<svg xmlns="http://www.w3.org/2000/svg" width="50" height="50" viewBox="0 0 50 50">
  <g id="グループ_60195" data-name="グループ 60195" transform="translate(-266 -2190)">
    <g id="楕円形_530" data-name="楕円形 530" transform="translate(266 2190)" fill="#fff" stroke="#009cbd" stroke-width="1.5">
      <circle cx="25" cy="25" r="25" stroke="none"/>
      <circle cx="25" cy="25" r="24.25" fill="none"/>
    </g>
    <path id="パス_77078" data-name="パス 77078" d="M403.782,367.613c-2.921-5.8,8.387-13.013,13.832-12.68,3.416.208,4.253,2.094,4.074,4.679a11.08,11.08,0,0,1-3.511,6.753c-2.014,2.042-4.617,3.7-7.483,3.818a1.8,1.8,0,0,1-1.077-.21c-.764-.509-.488-1.714.051-2.457a9.9,9.9,0,0,1,5.062-3.188c1.472-.493,3.2-.845,4.49.022,1.851,1.245,1.546,4.083.591,6.1-.991,2.093-2.6,4.062-4.823,4.7-.668.193-1.662.021-1.655-.674a3.728,3.728,0,0,1,.845-1.428c1.307-1.206,2.613-1.369,4.374-1.616a2.208,2.208,0,0,1,1.424.158,2.076,2.076,0,0,1,.736,2.081c-.231,1.978-3.124,5.462-3.549,4.417-.331-.7.52-1.5,1.282-1.38a2.3,2.3,0,0,1,1.583,1.546c.286.717.563,1.64.78,2.177" transform="translate(-124.289 1847.322)" fill="none" stroke="#009cbd" stroke-linecap="round" stroke-miterlimit="10" stroke-width="1.5"/>
  </g>
</svg>
