<svg xmlns="http://www.w3.org/2000/svg" width="50" height="50" viewBox="0 0 50 50">
  <g id="グループ_70343" data-name="グループ 70343" transform="translate(-410 -2349)">
    <g id="楕円形_530" data-name="楕円形 530" transform="translate(410 2349)" fill="#fff" stroke="#009cbd" stroke-width="1.5">
      <circle cx="25" cy="25" r="25" stroke="none"/>
      <circle cx="25" cy="25" r="24.25" fill="none"/>
    </g>
    <g id="グループ_60190" data-name="グループ 60190" transform="translate(293.334 124.237)">
      <path id="パス_77064" data-name="パス 77064" d="M75.157,73.2l-3.8,4.963.932-.244L70.185,76.68a.682.682,0,0,0-.688,1.177l2.109,1.234a.7.7,0,0,0,.932-.244l3.8-4.963c.533-.7-.651-1.376-1.177-.688" transform="translate(69.115 2174.163)" fill="#009cbd"/>
      <path id="パス_77065" data-name="パス 77065" d="M83.34,3.486V.659a.682.682,0,0,0-1.363,0V3.486a.682.682,0,0,0,1.363,0" transform="translate(58.951 2232.015)" fill="#009cbd"/>
      <path id="パス_77066" data-name="パス 77066" d="M3.484,81.977H.658a.682.682,0,0,0,0,1.363H3.484a.682.682,0,0,0,0-1.363" transform="translate(124 2166.968)" fill="#009cbd"/>
      <path id="パス_77067" data-name="パス 77067" d="M154.528,81.977H151.7a.682.682,0,0,0,0,1.363h2.827a.682.682,0,0,0,0-1.363" transform="translate(4.147 2166.968)" fill="#009cbd"/>
      <path id="パス_77068" data-name="パス 77068" d="M27.089,26.125l-2-2a.682.682,0,0,0-.964.964l2,2a.682.682,0,0,0,.964-.964" transform="translate(105.014 2213.031)" fill="#009cbd"/>
      <path id="パス_77069" data-name="パス 77069" d="M131.5,27.089l2-2a.682.682,0,0,0-.964-.964l-2,2a.682.682,0,0,0,.964.964" transform="translate(20.575 2213.031)" fill="#009cbd"/>
      <path id="パス_77070" data-name="パス 77070" d="M54.99,44.69A10.667,10.667,0,1,0,35.8,51.105c.977,1.294,2.538,2.164,2.9,3.839a14.467,14.467,0,0,1,.081,2.471,4.143,4.143,0,0,0,4.3,4.039c1.784.016,3.828.288,5.3-.928a4.18,4.18,0,0,0,1.473-3.279,6.335,6.335,0,0,1,.605-3.589,20.733,20.733,0,0,1,1.93-2,10.78,10.78,0,0,0,1.393-2.045,11.029,11.029,0,0,0,1.2-4.925.682.682,0,0,0-1.363,0,9.7,9.7,0,0,1-3.393,7.189c-1.64,1.5-1.712,3.312-1.739,5.369a2.777,2.777,0,0,1-1.477,2.562,4.722,4.722,0,0,1-2.2.282c-1.759,0-3.935.214-4.565-1.923a8.233,8.233,0,0,1-.11-2.212,5.535,5.535,0,0,0-.733-2.869c-.706-1.173-1.92-1.922-2.708-3.047A9.308,9.308,0,1,1,53.627,44.69a.682.682,0,0,0,1.363,0" transform="translate(97.289 2205.019)" fill="#009cbd"/>
      <path id="パス_77071" data-name="パス 77071" d="M59.233,135.57h9.712a.682.682,0,0,0,0-1.363H59.233a.682.682,0,0,0,0,1.363" transform="translate(77.521 2125.523)" fill="#009cbd"/>
    </g>
  </g>
</svg>
