<svg xmlns="http://www.w3.org/2000/svg" width="25.344" height="25.344" viewBox="0 0 25.344 25.344">
  <g id="グループ_14301" data-name="グループ 14301" transform="translate(-634.456 -6108)">
    <g id="グループ_7305" data-name="グループ 7305" transform="translate(634.456 6108)">
      <g id="パス_392" data-name="パス 392" fill="none">
        <path d="M12.672,0A12.672,12.672,0,1,1,0,12.672,12.672,12.672,0,0,1,12.672,0Z" stroke="none"/>
        <path d="M 12.67199993133545 1.5 C 9.687849998474121 1.5 6.882320404052734 2.662090301513672 4.772199630737305 4.772199630737305 C 2.662090301513672 6.882320404052734 1.5 9.687849998474121 1.5 12.67199993133545 C 1.5 15.65614986419678 2.662090301513672 18.46167945861816 4.772199630737305 20.57180023193359 C 6.882320404052734 22.68190956115723 9.687849998474121 23.8439998626709 12.67199993133545 23.8439998626709 C 15.65614986419678 23.8439998626709 18.46167945861816 22.68190956115723 20.57180023193359 20.57180023193359 C 22.68190956115723 18.46167945861816 23.8439998626709 15.65614986419678 23.8439998626709 12.67199993133545 C 23.8439998626709 9.687849998474121 22.68190956115723 6.882320404052734 20.57180023193359 4.772199630737305 C 18.46167945861816 2.662090301513672 15.65614986419678 1.5 12.67199993133545 1.5 M 12.67199993133545 0 C 19.6705493927002 0 25.3439998626709 5.673450469970703 25.3439998626709 12.67199993133545 C 25.3439998626709 19.6705493927002 19.6705493927002 25.3439998626709 12.67199993133545 25.3439998626709 C 5.673450469970703 25.3439998626709 0 19.6705493927002 0 12.67199993133545 C 0 5.673450469970703 5.673450469970703 0 12.67199993133545 0 Z" stroke="none" fill="#009cbd"/>
      </g>
      <path id="パス_380" data-name="パス 380" d="M0,0,4.106,4.337,0,8.885" transform="translate(11.057 8.229)" fill="none" stroke="#009cbd" stroke-width="1.5"/>
    </g>
  </g>
</svg>
