<svg xmlns="http://www.w3.org/2000/svg" xmlns:xlink="http://www.w3.org/1999/xlink" width="234" height="31.7" viewBox="0 0 234 31.7">
  <defs>
    <clipPath id="clip-path">
      <rect id="長方形_24231" data-name="長方形 24231" width="234" height="31.7" fill="#fff"/>
    </clipPath>
  </defs>
  <g id="グループ_14290" data-name="グループ 14290" transform="translate(0 0)">
    <g id="グループ_14288" data-name="グループ 14288" transform="translate(0 0)" clip-path="url(#clip-path)">
      <path id="パス_25782" data-name="パス 25782" d="M13.447,28.194H5.28c-.054-1.158-.107-2.423-.137-3.3-.068-1.954-.107-4.206-.112-8.821,1.558,0,5.261.01,7.5.039,2.887.029,7.815.44,7.815.44a15.338,15.338,0,0,1-.127-1.832,15.23,15.23,0,0,1,.127-1.832s-4.928.405-7.815.44c-2.237.024-5.935.034-7.493.039.01-3.5.049-5.422.107-7.117.029-.874.083-2.139.137-3.3h8.04c6.882,0,9.417.679,9.417.679A15.039,15.039,0,0,1,22.6,1.789a11.113,11.113,0,0,1,.137-1.68S18.063.343,11.322.343.054.055,0,.055c0,0,.2,4.152.269,6.193.068,2.022.107,4.362.107,9.324s-.039,7.3-.107,9.32C.2,26.934,0,31.091,0,31.091c.054,0,4.718-.288,11.449-.288s11.537.234,11.537.234a11.513,11.513,0,0,1-.132-1.68,15.72,15.72,0,0,1,.132-1.846s-2.657.684-9.539.684" transform="translate(0 0.212)" fill="#fff"/>
      <path id="パス_25783" data-name="パス 25783" d="M45.014,28.194H36.847c-.054-1.158-.107-2.423-.137-3.3-.068-1.954-.107-4.206-.112-8.821,1.558,0,5.261.01,7.5.039,2.892.029,7.815.44,7.815.44a15.942,15.942,0,0,1-.122-1.832,15.83,15.83,0,0,1,.122-1.832s-4.924.405-7.815.44c-2.237.024-5.935.034-7.493.039.01-3.5.049-5.422.107-7.117.029-.874.083-2.139.137-3.3h8.04c6.882,0,9.417.679,9.417.679a15.039,15.039,0,0,1-.137-1.841A11.113,11.113,0,0,1,54.3.109s-4.67.234-11.415.234C36.163.343,31.621.055,31.567.055c0,0,.2,4.152.269,6.193.068,2.022.112,4.362.112,9.324s-.044,7.3-.112,9.32c-.068,2.042-.269,6.2-.269,6.2.054,0,4.723-.288,11.449-.288s11.537.234,11.537.234a11.512,11.512,0,0,1-.132-1.68,15.719,15.719,0,0,1,.132-1.846s-2.657.684-9.539.684" transform="translate(122.621 0.212)" fill="#fff"/>
      <path id="パス_25784" data-name="パス 25784" d="M41.51,4.567a6.842,6.842,0,0,0-1.631-2.178,7.234,7.234,0,0,0-2.2-1.329A14.856,14.856,0,0,0,35.244.371,16.4,16.4,0,0,0,32.923.1C32.2.069,31.58.054,31.087.054c-.366,0-.816.015-1.343.044s-1.084.054-1.661.068S26.93.205,26.369.235C25.875.264,23.2.279,22.3.284l-.015,0A15.52,15.52,0,0,1,19.584.054s.2,4.152.269,6.2c.073,2.022.112,4.357.112,9.32s-.039,7.3-.112,9.32c-.068,2.047-.269,6.2-.269,6.2a16.437,16.437,0,0,1,5.417,0s-.2-4.152-.274-6.2c-.059-1.768-.1-3.785-.107-7.6.992.054,2.071.1,2.423.107.63.015,1.329.024,2.091.024a26.324,26.324,0,0,0,4.088-.366,14.2,14.2,0,0,0,4.333-1.421A9.582,9.582,0,0,0,40.939,12.7,7.721,7.721,0,0,0,42.2,7.8a7.9,7.9,0,0,0-.694-3.234m-4.626,7.195a6.166,6.166,0,0,1-2.169,2.188,9.007,9.007,0,0,1-2.975,1.094,17.458,17.458,0,0,1-3.17.3,22.66,22.66,0,0,1-3.952-.415V2.262h4.494A23.418,23.418,0,0,1,32.6,2.5a7.3,7.3,0,0,1,2.638.879,4.629,4.629,0,0,1,1.719,1.8,6.718,6.718,0,0,1,.689,3,6.538,6.538,0,0,1-.762,3.58" transform="translate(76.073 0.208)" fill="#fff"/>
      <path id="パス_25785" data-name="パス 25785" d="M39.044,15.973a14.825,14.825,0,0,0,4.323-1.329,9.365,9.365,0,0,0,3.38-2.75A6.882,6.882,0,0,0,48,7.3a6.986,6.986,0,0,0-.708-3.023,6.423,6.423,0,0,0-1.636-2.037A7.373,7.373,0,0,0,43.445,1,14.67,14.67,0,0,0,41.012.353a17.922,17.922,0,0,0-2.32-.259C37.959.07,37.349.055,36.851.055c-.366,0-.811.015-1.338.039s-1.089.054-1.666.068S32.7.2,32.137.226,28.21.27,27.814.27v0a15,15,0,0,1-2.437-.22s.2,4.152.269,6.2c.073,2.017.112,4.357.112,9.32s-.039,7.3-.112,9.32c-.068,2.047-.269,6.2-.269,6.2a16.437,16.437,0,0,1,5.417,0s-.2-4.152-.274-6.2c-.064-1.934-.1-4.162-.107-8.694,1,.044,2.1.088,2.452.1h0c2.066,2.647,11.2,14.8,11.2,14.8a12.878,12.878,0,0,1,2.672-.23,22.037,22.037,0,0,1,3.624.322s-9.837-11.127-13.12-15c.571-.054,1.162-.127,1.793-.22M34.887,2.121a25.053,25.053,0,0,1,3.488.22,7.583,7.583,0,0,1,2.638.825,4.477,4.477,0,0,1,1.729,1.685,5.962,5.962,0,0,1,.694,2.809,5.768,5.768,0,0,1-.747,3.356,5.9,5.9,0,0,1-2.159,2.047,9.383,9.383,0,0,1-2.97,1.026,18.861,18.861,0,0,1-3.175.278,24.424,24.424,0,0,1-3.971-.391V2.121Z" transform="translate(98.576 0.212)" fill="#fff"/>
      <path id="パス_25786" data-name="パス 25786" d="M59.387,17.595a11.776,11.776,0,0,0-3.346-2.633,28.75,28.75,0,0,0-4.206-1.832,38.273,38.273,0,0,1-4.142-1.695,11.745,11.745,0,0,1-3.155-2.149,4.448,4.448,0,0,1-1.192-3.18,3.824,3.824,0,0,1,2-3.033,9.652,9.652,0,0,1,5.187-1.094,11.219,11.219,0,0,1,2.9.606,6.1,6.1,0,0,1,2.2,1.333A5.483,5.483,0,0,1,56.837,6l.64.039a8.62,8.62,0,0,1,.479-2.051,5.648,5.648,0,0,1,.83-1.5A13.616,13.616,0,0,0,55.328.875,18,18,0,0,0,51.049.04a20.724,20.724,0,0,0-5.007.278,11.447,11.447,0,0,0-3.615,1.333,6.879,6.879,0,0,0-2.364,2.262,6.242,6.242,0,0,0-.923,3.1,6.459,6.459,0,0,0,1.138,4.215,10.615,10.615,0,0,0,3.1,2.726,25.518,25.518,0,0,0,4.152,1.929q2.249.813,4.21,1.754a11.921,11.921,0,0,1,3.331,2.105A4.8,4.8,0,0,1,56.5,23.256a5.342,5.342,0,0,1-1.92,4.425c-1.084.933-3,1.788-6.291,1.788A10.791,10.791,0,0,1,41.51,26.9a9.088,9.088,0,0,1-2.149-3.888l-.689,0a13.81,13.81,0,0,1-.293,2.569A7.92,7.92,0,0,1,37.3,28.1a15.236,15.236,0,0,0,3.658,2.271,17.852,17.852,0,0,0,5.9,1.27,19,19,0,0,0,7.791-.933,10.511,10.511,0,0,0,5.407-4.626,9.013,9.013,0,0,0,.952-4.254,6.674,6.674,0,0,0-1.627-4.235" transform="translate(144.906 -0.003)" fill="#fff"/>
      <path id="パス_25787" data-name="パス 25787" d="M66.765,21.831A6.7,6.7,0,0,0,65.139,17.6a11.9,11.9,0,0,0-3.351-2.638,29.211,29.211,0,0,0-4.2-1.827,38.861,38.861,0,0,1-4.142-1.695A11.667,11.667,0,0,1,50.29,9.287,4.435,4.435,0,0,1,49.1,6.108a3.816,3.816,0,0,1,2-3.033A9.652,9.652,0,0,1,56.288,1.98a11.22,11.22,0,0,1,2.9.606,6.137,6.137,0,0,1,2.193,1.329,5.4,5.4,0,0,1,1.206,2.091l.645.039a8.621,8.621,0,0,1,.479-2.051,5.514,5.514,0,0,1,.83-1.5A13.57,13.57,0,0,0,61.075.876,17.91,17.91,0,0,0,56.8.041a20.985,20.985,0,0,0-5.007.274A11.524,11.524,0,0,0,48.18,1.653a6.85,6.85,0,0,0-2.369,2.262,6.227,6.227,0,0,0-.923,3.1,6.489,6.489,0,0,0,1.143,4.215,10.623,10.623,0,0,0,3.1,2.726,25.465,25.465,0,0,0,4.147,1.929q2.257.813,4.215,1.754a11.991,11.991,0,0,1,3.331,2.105,4.786,4.786,0,0,1,1.421,3.507,5.323,5.323,0,0,1-1.915,4.43c-1.089.933-3.009,1.788-6.291,1.788A10.767,10.767,0,0,1,47.261,26.9a9.079,9.079,0,0,1-2.154-3.883L44.424,23a13.809,13.809,0,0,1-.293,2.569A7.807,7.807,0,0,1,43.051,28.1a15.183,15.183,0,0,0,3.658,2.276,17.768,17.768,0,0,0,5.9,1.265,18.9,18.9,0,0,0,7.791-.933,10.524,10.524,0,0,0,5.407-4.621,9.073,9.073,0,0,0,.957-4.254" transform="translate(167.23 0.001)" fill="#fff"/>
      <path id="パス_25788" data-name="パス 25788" d="M30.461,4.093a11.917,11.917,0,0,0-4.63-2.94,19.876,19.876,0,0,0-6.8-1.031c-1.148,0-2.281.039-3.414.112S13.35.347,12.207.347c-.933,0-1.861-.02-2.784-.049-.181-.01-.366-.015-.557-.02H8.8A15.424,15.424,0,0,1,6.1.054s.2,4.157.269,6.2c.068,2.022.107,4.362.107,9.32s-.039,7.3-.107,9.324C6.3,26.938,6.1,31.09,6.1,31.09A15.519,15.519,0,0,1,8.8,30.865c.992,0,1.612.01,2.638.01s2.032.015,3.028.049,2,.044,3.023.044a21.441,21.441,0,0,0,5.578-.786A14.908,14.908,0,0,0,28.4,27.51a14.444,14.444,0,0,0,3.976-4.963,16.65,16.65,0,0,0,1.558-7.566A21.474,21.474,0,0,0,33.1,8.763a11.572,11.572,0,0,0-2.642-4.67M27.608,21.966a11.509,11.509,0,0,1-3.1,4.318,10.358,10.358,0,0,1-4.293,2.144,20.6,20.6,0,0,1-4.8.571q-1.656,0-3.224-.107c-.283-.02-.542-.044-.791-.068-.063-1.309-.132-2.892-.166-3.927-.068-2.022-.112-4.362-.112-9.324s.044-7.3.112-9.32c.034-1,.1-2.506.156-3.781.44-.044.889-.083,1.368-.122q1.7-.132,3.663-.132a21.316,21.316,0,0,1,4.968.547,9.1,9.1,0,0,1,3.9,1.973,9.564,9.564,0,0,1,2.574,3.878,17.913,17.913,0,0,1,.933,6.272,17.776,17.776,0,0,1-1.2,7.078" transform="translate(23.684 0.208)" fill="#fff"/>
      <path id="パス_25789" data-name="パス 25789" d="M34.942.054c.117.845.215,2.481.278,4.728s.132,5.651.205,9.837c0,0,.02,1.924.015,3.019a28.905,28.905,0,0,1-.22,3.3,16.543,16.543,0,0,1-.723,3.18,8.65,8.65,0,0,1-1.451,2.691,7,7,0,0,1-2.428,1.9,8.453,8.453,0,0,1-3.688.723,10.219,10.219,0,0,1-3.766-.611,7.023,7.023,0,0,1-2.53-1.67,7.423,7.423,0,0,1-1.553-2.472,14.393,14.393,0,0,1-.8-2.955,24.726,24.726,0,0,1-.3-3.17c-.034-1.084-.054-1.934-.059-2.94-.034-4.948-.01-7.454.049-9.456s.225-6.1.225-6.1a15.311,15.311,0,0,1-2.657.22,15.311,15.311,0,0,1-2.657-.22s.2,4.083.288,6.1c.21,4.826.024,9.237.044,12.626.024,4.376,1.031,7.6,3.048,9.637s5.256,3.072,9.691,3.072a15.358,15.358,0,0,0,5.339-.86,9.992,9.992,0,0,0,3.883-2.53,11.046,11.046,0,0,0,2.384-4.044,16.368,16.368,0,0,0,.806-5.363q-.007-2.447.034-5.041c.024-1.729.049-3.59.078-5.221s.068-3.146.127-4.562.122-2.8.19-3.815a6.639,6.639,0,0,1-1.954.22,10.4,10.4,0,0,1-1.9-.22" transform="translate(50.067 0.208)" fill="#fff"/>
    </g>
  </g>
</svg>
