<svg id="グループ_14294" data-name="グループ 14294" xmlns="http://www.w3.org/2000/svg" xmlns:xlink="http://www.w3.org/1999/xlink" width="150" height="45.005" viewBox="0 0 150 45.005">
  <defs>
    <clipPath id="clip-path">
      <rect id="長方形_24249" data-name="長方形 24249" width="150" height="45.005" fill="none"/>
    </clipPath>
  </defs>
  <g id="グループ_14293" data-name="グループ 14293" transform="translate(0 0)" clip-path="url(#clip-path)">
    <path id="パス_25804" data-name="パス 25804" d="M24.626,1.414H13L11.8,4.263l.379.075c.823-1.647,1.5-2.176,4.2-2.176h5.251s-11.027,13.651-11.1,13.8c-.078.075-.078.225.072.225H23.427l1.2-2.924-.376-.078c-.823,1.578-1.5,2.176-4.2,2.176H13.674c1.653-2.1,11.027-13.648,11.1-13.723s.075-.225-.15-.225" transform="translate(22.323 3.013)" fill="#fff"/>
    <path id="パス_25805" data-name="パス 25805" d="M16.871,3.617,15.593,5.192h6.228l1.349-1.575Z" transform="translate(33.23 7.709)" fill="#fff"/>
    <path id="パス_25806" data-name="パス 25806" d="M29.128,1.79c1.349,0,1.65.6,1.65,2.176v9.747c0,1.5-.376,2.176-1.65,2.176v.376H34.6v-.376c-1.349,0-1.647-.6-1.647-2.176V3.966c0-1.5.376-2.176,1.647-2.176V1.414H29.128Z" transform="translate(62.072 3.013)" fill="#fff"/>
    <path id="パス_25807" data-name="パス 25807" d="M22.165,13.713V3.963c0-1.5.376-2.173,1.725-2.173V1.414H18.564V1.79c1.353,0,1.65.6,1.65,2.173v9.75c0,1.5-.376,2.176-1.65,2.176v.373H23.89v-.373c-1.349-.078-1.725-.676-1.725-2.176" transform="translate(39.56 3.013)" fill="#fff"/>
    <path id="パス_25808" data-name="パス 25808" d="M27.2,13.338c-.977-1.049-.977-1.049-5.251-5.623l4.574-4.277a8.235,8.235,0,0,1,1.653-1.274A2.831,2.831,0,0,1,29.3,1.788V1.415H24.281v.373a2.434,2.434,0,0,1,.9.15.527.527,0,0,1,.3.676c-.075.448-.673,1.2-2.248,2.7-.827.748-1.951,1.8-3.225,2.924a.157.157,0,0,0,0,.3l7.123,7.649h3.526v-.373c-1.425,0-2.473-1.349-3.45-2.477" transform="translate(42.394 3.015)" fill="#fff"/>
    <path id="パス_25809" data-name="パス 25809" d="M28.341,10.619c1.277-2.852,2.777-6.3,2.777-6.3l2.924,6.3Zm9.6,3.526c-.6-1.2-6.224-12.828-6.224-12.828h-.3l-4.95,10.952a20.5,20.5,0,0,1-1.65,3.153,1.45,1.45,0,0,1-1.2.6v.373h4.274V16.02a1.793,1.793,0,0,1-.9-.225c-.448-.3-.6-.6-.3-1.575.075-.075.526-1.274,1.2-2.774h6.525l2.248,4.8h3.228V15.87c-.9.15-1.349-.6-1.951-1.725" transform="translate(50.332 2.807)" fill="#fff"/>
    <path id="パス_25810" data-name="パス 25810" d="M39.837,8.222c1.049,0,1.349.526,1.349,1.725v2.7a.635.635,0,0,1-.15.451,3.144,3.144,0,0,1-.748.376,2.8,2.8,0,0,1-.827.15,2.925,2.925,0,0,1-.751.072,4.075,4.075,0,0,1-3.147-1.349A5.386,5.386,0,0,1,34.285,8.6a5.853,5.853,0,0,1,1.277-4.2,4.206,4.206,0,0,1,3-1.274,3.613,3.613,0,0,1,2.777,1.127,4.387,4.387,0,0,1,1.124,1.875h.3l-.15-3.676h-.225c-.072.222-.15.451-.3.523a.561.561,0,0,1-.523.075,10.4,10.4,0,0,1-1.274-.376,6.394,6.394,0,0,0-2.026-.3A5.682,5.682,0,0,0,33.838,4.32a6.4,6.4,0,0,0-1.5,4.2,5.509,5.509,0,0,0,1.875,4.424,6.236,6.236,0,0,0,4.2,1.5,8.683,8.683,0,0,0,2.924-.523c.977-.379,1.349-.526,1.349-.751V9.947c0-1.2.3-1.725,1.353-1.725v-.3h-4.2Z" transform="translate(68.912 5.057)" fill="#fff"/>
    <path id="パス_25811" data-name="パス 25811" d="M44.877,10.774a2.248,2.248,0,0,1-3.6,0A4.934,4.934,0,0,1,40.6,7.85a5.721,5.721,0,0,1,.673-3,2.138,2.138,0,0,1,1.8-.9,1.97,1.97,0,0,1,1.8.9,5.052,5.052,0,0,1,.673,3,5.6,5.6,0,0,1-.673,2.924M43,3.426A3.9,3.9,0,0,0,40.077,4.7a4.169,4.169,0,0,0-1.2,3.075,4,4,0,0,0,1.2,3.147,4.165,4.165,0,0,0,5.849,0,4.18,4.18,0,0,0,1.2-3.225,4.179,4.179,0,0,0-1.2-3.075A3.742,3.742,0,0,0,43,3.426" transform="translate(82.849 7.301)" fill="#fff"/>
    <path id="パス_25812" data-name="パス 25812" d="M51.706,10.774a1.91,1.91,0,0,1-1.722.9,1.8,1.8,0,0,1-1.65-.9,2.246,2.246,0,0,1-.451-1.049V5.978a2.545,2.545,0,0,1,.451-1.127,1.916,1.916,0,0,1,1.725-.9,2.007,2.007,0,0,1,1.725.9,5.717,5.717,0,0,1,.673,3,6.241,6.241,0,0,1-.751,2.921M52.984,4.7A3.3,3.3,0,0,0,50.36,3.426,3.211,3.211,0,0,0,47.883,4.55v-.9c0-.078-.075-.15-.15-.078-.072,0-2.7.827-2.7.827v.3c.673-.15,1.349.075,1.349,1.049v8.025c0,1.2-.3,1.728-1.349,1.728v.3h4.2v-.3c-1.049,0-1.349-.526-1.349-1.728V11.225a3.412,3.412,0,0,0,2.477,1.052,3.347,3.347,0,0,0,2.624-1.2,4.427,4.427,0,0,0,1.049-3.225A4.69,4.69,0,0,0,52.984,4.7" transform="translate(95.967 7.301)" fill="#fff"/>
    <path id="パス_25813" data-name="パス 25813" d="M49.574,9.75V3.45H46.725v.3c1.049,0,1.349.526,1.349,1.725V9.75a2.838,2.838,0,0,1-2.026,1.277,1.207,1.207,0,0,1-1.2-.676,1.915,1.915,0,0,1-.15-.977V3.525H41.847v.3c1.052,0,1.353.523,1.353,1.722v4.2a2.292,2.292,0,0,0,.673,1.875,2.308,2.308,0,0,0,1.5.523,2.722,2.722,0,0,0,1.653-.523,6.887,6.887,0,0,0,1.124-1.049v1.271c0,.078.075.15.147.078.078,0,2.7-.827,2.7-.827v-.3c-.748.15-1.425-.072-1.425-1.049" transform="translate(89.176 7.352)" fill="#fff"/>
    <path id="パス_25814" data-name="パス 25814" d="M41.33,3.546A4.037,4.037,0,0,0,39.379,5.2V3.546c0-.075-.075-.15-.147-.075-.078,0-2.7.823-2.7.823v.3c.676-.15,1.349.078,1.349,1.049V9.921c0,1.2-.3,1.725-1.349,1.725v.3h4.2v-.3c-1.049,0-1.349-.523-1.349-1.725V6.32A2.066,2.066,0,0,1,41.48,4.6a.879.879,0,0,1,.9.977l.225.072s.526-1.271.6-1.421,0-.225-.075-.3a1.827,1.827,0,0,0-1.8-.376" transform="translate(77.845 7.331)" fill="#fff"/>
    <rect id="長方形_24242" data-name="長方形 24242" width="6.3" height="1.503" rx="0.072" transform="translate(0.001 5.55)" fill="#fff"/>
    <path id="パス_25815" data-name="パス 25815" d="M9,.887H.223A.237.237,0,0,0,0,1.112V2.164a.2.2,0,0,0,.222.222H7.049c.451,0,.673.075.974-.222l1.127-.9c.075-.075.075-.376-.15-.376" transform="translate(0.002 1.89)" fill="#fff"/>
    <path id="パス_25816" data-name="パス 25816" d="M6.3,3.958a.2.2,0,0,1-.225.225H.225A.24.24,0,0,1,0,3.958V2.909a.2.2,0,0,1,.225-.225H6.074a.2.2,0,0,1,.225.225Z" transform="translate(0 5.72)" fill="#fff"/>
    <rect id="長方形_24243" data-name="長方形 24243" width="6.3" height="1.5" rx="0.072" transform="translate(0.001 11.178)" fill="#fff"/>
    <rect id="長方形_24244" data-name="長方形 24244" width="6.3" height="1.5" rx="0.072" transform="translate(0.001 13.953)" fill="#fff"/>
    <rect id="長方形_24245" data-name="長方形 24245" width="6.3" height="1.5" rx="0.072" transform="translate(0.001 16.728)" fill="#fff"/>
    <path id="パス_25817" data-name="パス 25817" d="M24.9,7.5a.2.2,0,0,1-.225.225H.229A.2.2,0,0,1,0,7.5V6.454a.241.241,0,0,1,.229-.225H24.675a.2.2,0,0,1,.225.225Z" transform="translate(0 13.274)" fill="#fff"/>
    <path id="長方形_24246" data-name="長方形 24246" d="M.072,0H24.828A.073.073,0,0,1,24.9.073V1.43a.073.073,0,0,1-.073.073H.072A.072.072,0,0,1,0,1.431V.072A.072.072,0,0,1,.072,0Z" transform="translate(0 22.275)" fill="#fff"/>
    <path id="長方形_24247" data-name="長方形 24247" d="M.072,0h11.78a.071.071,0,0,1,.071.071V1.43a.073.073,0,0,1-.073.073H.072A.072.072,0,0,1,0,1.431V.072A.072.072,0,0,1,.072,0Z" transform="translate(12.978)" fill="#fff"/>
    <path id="長方形_24248" data-name="長方形 24248" d="M.072,0h11.78a.071.071,0,0,1,.071.071V1.43a.073.073,0,0,1-.073.073H.072A.072.072,0,0,1,0,1.431V.072A.072.072,0,0,1,.072,0Z" transform="translate(12.978 2.775)" fill="#fff"/>
    <path id="パス_25818" data-name="パス 25818" d="M12.375,0H.223A.2.2,0,0,0,0,.226V1.278A.2.2,0,0,0,.223,1.5h10.2c.451,0,.673.075.974-.222l1.127-.9C12.6.3,12.6,0,12.375,0" transform="translate(0.002 0.002)" fill="#fff"/>
    <path id="パス_25819" data-name="パス 25819" d="M14.659,3.273h5.47a.2.2,0,0,0,.229-.225V2a.2.2,0,0,0-.229-.222H8.657A.2.2,0,0,0,8.432,2v6.75L2.286,13.924c-.225.222-.225.523.15.523H20.129a.2.2,0,0,0,.229-.222V13.173a.2.2,0,0,0-.229-.225h-5.47a.2.2,0,0,1-.225-.222V11.9a.2.2,0,0,1,.225-.225h5.47a.2.2,0,0,0,.229-.225V10.4a.2.2,0,0,0-.229-.225h-5.47a.2.2,0,0,1-.225-.225V9.121a.2.2,0,0,1,.225-.225h5.47c.153,0,.229-.072.229-.222V7.625a.2.2,0,0,0-.229-.229h-5.47a.2.2,0,0,1-.225-.222V6.347a.2.2,0,0,1,.225-.225h5.47a.2.2,0,0,0,.229-.225V4.848a.2.2,0,0,0-.229-.225h-5.47a.2.2,0,0,1-.225-.222V3.573c0-.15.072-.3.225-.3" transform="translate(4.543 3.778)" fill="#fff"/>
    <path id="パス_25820" data-name="パス 25820" d="M6.525,17.113a9.536,9.536,0,0,0,.748,1.349c.3.3.526.6.827.9a5.3,5.3,0,0,0,1.124-2.251Zm2.774-.3.526-.526c.3.3.451.376.748.676.075.072.15.147.15.147,0,.075-.075.15-.6.3a12.8,12.8,0,0,1-1.5,2.326,6.909,6.909,0,0,0,2.924,1.2v.15a.875.875,0,0,0-.526.3c-.225.147-.225.3-.3.523a7.157,7.157,0,0,1-2.549-1.65,8.874,8.874,0,0,1-2.624,1.725l-.078-.15A9.232,9.232,0,0,0,7.8,19.89a6.525,6.525,0,0,1-1.5-2.627h-.15a1.63,1.63,0,0,0-.6.075l-.078-.451a2.023,2.023,0,0,0,.751.078H9.3Zm-6.675-2.7h6v-1.2h-6Zm6-2.627h-6v1.127h6ZM2.1,20.188c1.127-.225,1.5-.3,2.251-.448V18.688H2.1Zm0-1.725H4.346V17.185H2.1Zm0-1.575H4.346v-1.2H2.1Zm.526-2.248h0c0,.15-.147.15-.526.15-.222,0-.3,0-.3-.15.075-.9.075-1.349.075-2.477A9.1,9.1,0,0,0,1.8,10.588c.376.225.526.3.9.526H8.548c.229-.225.229-.3.451-.526a6.571,6.571,0,0,1,.751.6c.075.075.075.075.075.147s0,.078-.376.379v2.846c0,.15,0,.15-.075.15-.075.078-.3.078-.6.078-.15,0-.229,0-.229-.15v-.3h-6v.3ZM1.349,15.688H1.2a5.337,5.337,0,0,0-1.127.075L0,15.313a5.317,5.317,0,0,0,1.2.075H9.6c.3-.376.448-.526.748-.9a13.418,13.418,0,0,1,1.052.974c.075.075.075.075.075.15s0,.075-.075.075H5.176v3.3c0,1.2,0,1.951.075,3a.159.159,0,0,1-.15.15,1.457,1.457,0,0,1-.6.075.162.162,0,0,1-.153-.147c.075-1.2.075-1.5.075-2.026-1.65.6-1.65.6-3.526,1.2-.15.448-.15.523-.3.523s-.229-.225-.529-1.274a11.219,11.219,0,0,0,1.277-.15Z" transform="translate(0 22.563)" fill="#fff"/>
    <path id="パス_25821" data-name="パス 25821" d="M8.07,20.037h3.3v-1.65H8.07Zm-.6-4.725h4.574v-1.65H7.472ZM11.3,18.087a1.286,1.286,0,0,1,.451-.448,6.085,6.085,0,0,1,.748.523l.078.075c0,.075,0,.075-.379.3v2.1c0,.15-.222.229-.673.229-.147,0-.147,0-.147-.078v-.448H8.07v.6c0,.15-.15.15-.448.15H7.4c-.15,0-.225-.072-.225-.15v-1.8a9.227,9.227,0,0,0-.078-1.578c.454.229.6.3.977.526Zm.676-4.722a2.707,2.707,0,0,1,.451-.529c.373.229.448.3.823.529.075.072.075.072.075.147s0,.075-.451.376v2.026c0,.075,0,.147-.147.147-.078,0-.379.078-.6.078-.15,0-.15-.078-.15-.15v-.451H7.4v.376c0,.147-.15.225-.526.225-.3,0-.3,0-.3-.15v-.075c0-.676.075-.977.075-1.578a9.58,9.58,0,0,0-.075-1.5c.451.229.6.3.977.529Zm1.65,3.372a3.472,3.472,0,0,1,.526-.526c.451.3.523.376.9.6.075.075.075.075.075.15s0,.075-.451.376v4.124c0,.3-.15.451-.523.6a4.733,4.733,0,0,1-.977.225.833.833,0,0,0-.376-.6c-.222-.153-.451-.153-1.2-.229v-.225c.9.075,1.349.075,2.026.075.075,0,.15-.075.15-.225V17.038h-8.1v5.025c0,.075-.075.075-.15.15-.15,0-.451.075-.6.075s-.15,0-.229-.15c.078-1.5.078-1.65.078-2.026,0-2.323,0-3.075-.078-3.973a5.359,5.359,0,0,1,1.127.6Zm-.15-4.65a4.7,4.7,0,0,0,.748-.977c.6.451.751.6,1.349,1.052l.078.075c0,.075-.078.075-.15.075H5.371c-.376,0-.9.075-1.2.075L4.1,11.937a9.553,9.553,0,0,0,1.274.15H9.2v-.748a2.967,2.967,0,0,0-.078-.751c1.277.15,1.5.15,1.5.373,0,.078-.075.15-.526.3v.827Z" transform="translate(8.731 22.563)" fill="#fff"/>
    <path id="パス_25822" data-name="パス 25822" d="M8.89,15.834a3.125,3.125,0,0,0,.523,1.653.9.9,0,0,0,.451.373c.3,0,.9-.673,1.5-1.65a10.436,10.436,0,0,0,1.578-3.9,2.361,2.361,0,0,0-.153-.6,4.463,4.463,0,0,0-3.9,4.124m4.2,3.9a5.38,5.38,0,0,0,2.924-1.725,4.436,4.436,0,0,0,1.127-3.075,3.225,3.225,0,0,0-1.431-2.777,4.121,4.121,0,0,0-2.173-.6h-.448a1.64,1.64,0,0,1,.376,1.049,9.931,9.931,0,0,1-1.653,4.352c-.82,1.274-1.425,1.947-1.875,1.947a.5.5,0,0,1-.526-.3c-.147-.15-.147-.222-.376-.82a12.75,12.75,0,0,1-.52-1.205,2.1,2.1,0,0,1-.3-1.121,3.937,3.937,0,0,1,1.124-2.477,6.06,6.06,0,0,1,4.349-1.8,4.933,4.933,0,0,1,3.3,1.2,3.787,3.787,0,0,1,1.2,3,4.257,4.257,0,0,1-2.555,3.826,7.31,7.31,0,0,1-2.473.751Z" transform="translate(17.51 23.842)" fill="#fff"/>
    <path id="パス_25823" data-name="パス 25823" d="M19.936,14.011l-.523,1.049a10.867,10.867,0,0,0,1.124,2.852,10.943,10.943,0,0,0,1.2-3.9Zm2.627,0a10.028,10.028,0,0,1-.451,2.1,8.3,8.3,0,0,1-1.049,2.473,7.571,7.571,0,0,0,2.849,2.251v.222a1.009,1.009,0,0,0-1.052.6,8.118,8.118,0,0,1-1.425-1.349,8.669,8.669,0,0,1-.823-1.124,6.347,6.347,0,0,1-1.65,1.5,7.575,7.575,0,0,1-2.7,1.277l-.075-.153a18.137,18.137,0,0,0,2.473-1.572,11.636,11.636,0,0,0,1.575-1.728,11.406,11.406,0,0,1-.974-3.075,8.322,8.322,0,0,1-1.425,2.176l-.15-.15a22.951,22.951,0,0,0,1.8-4.2,22.9,22.9,0,0,0,.6-2.624,3.812,3.812,0,0,0,.676.15c.523.15.748.225.748.3s-.147.147-.6.225c-.3.974-.526,1.65-.827,2.4h2.1c.3-.373.376-.451.673-.823.451.373.6.523,1.127.974v.075a.074.074,0,0,1-.075.075Zm-7.126-1.2v1.875h.376a16.452,16.452,0,0,0,1.2-1.875Zm.225-.3c.225-.3.3-.376.526-.676.373.3.373.3.9.751a10.148,10.148,0,0,0,.751-1.575,3.777,3.777,0,0,1,.6.3c.451.15.6.3.6.373s0,.15-.451.15a20.141,20.141,0,0,1-1.947,2.774h.6c.225-.3.3-.373.523-.673a4.359,4.359,0,0,1,.9.751c.075.072.075.072.075.15a.073.073,0,0,1-.075.072H16.339c-.451.526-.751.9-1.277,1.428h1.349c.229-.225.229-.3.451-.526a3.7,3.7,0,0,1,.9.6l.078.072v.078c-.078.072-.15.072-.225.15l-.225.072c-.075,0-.15.078-.225.078a10,10,0,0,0-.974.748.578.578,0,0,1-.225.15c.225.072.3.072.3.15s-.15.15-.376.222v.3c.823-.222,1.124-.3,1.872-.451l.078.229c-.751.3-1.127.448-1.951.748v2.248a.841.841,0,0,1-.526.6,1.875,1.875,0,0,1-.748.153c-.15-.379-.229-.454-.376-.526a.95.95,0,0,0-.6-.15l-.3-.078a.579.579,0,0,1-.3-.072v-.15h.526a11.886,11.886,0,0,0,1.349.072c.147,0,.147-.072.147-.222v-1.65c-.147.075-.3.075-.376.15a7.4,7.4,0,0,1-1.2.373c-.523.15-.523.15-.748.229,0,.072-.075.15-.075.222-.075.225-.075.3-.15.3s-.075-.075-.15-.222a5.218,5.218,0,0,1-.376-.977,19.726,19.726,0,0,0,3.075-.6v-.6a.672.672,0,0,0-.075-.376,2.907,2.907,0,0,0,.676.075,6.637,6.637,0,0,0,.526-1.049H14.613a17.02,17.02,0,0,1-2.7,2.023l-.15-.15a20.185,20.185,0,0,0,2.1-1.872h-.676a4.82,4.82,0,0,0-.673.072l-.15-.448a3.369,3.369,0,0,0,.9.075h1.121a13.081,13.081,0,0,0,1.2-1.425h-2.7a5.853,5.853,0,0,0-.827.072l-.075-.451a3.816,3.816,0,0,0,.9.078h1.725V12.812h-1.2a3.673,3.673,0,0,0-.827.075l-.075-.451a4.5,4.5,0,0,0,.9.15h1.2v-.751c0-.673-.078-1.049-.078-1.2a2.588,2.588,0,0,0,.676.075c.526.075.751.15.751.225s-.075.15-.526.3v1.353h.225Z" transform="translate(25.063 22.665)" fill="#fff"/>
    <path id="パス_25824" data-name="パス 25824" d="M18.95,18.862h5.1V17.438h-5.1Zm5.1-2.924h-5.1v1.277h5.1Zm-5.1,3.3v2.774c0,.15,0,.15-.147.225-.075,0-.376.075-.526.075s-.225-.075-.225-.15c.078-1.725.078-2.627.078-4.127a22,22,0,0,0-.078-2.849,10.679,10.679,0,0,1,.977.526H23.9a2.883,2.883,0,0,0,.448-.526c.3.225.451.3.751.526.075.075.15.15.15.225s-.075.15-.376.373v5.1c0,.6-.225.751-1.575.9-.072-.3-.15-.451-.3-.523a3.552,3.552,0,0,0-1.274-.379v-.15c1.425.075,1.425.075,2.026.15.15,0,.15-.075.15-.15V19.535H18.95Zm6.378-7.051a9.375,9.375,0,0,1,.827-.9,13.531,13.531,0,0,1,1.2.974l.072.075a.159.159,0,0,1-.15.15H20.9c-.827.977-.827.977-1.277,1.5,2.927,0,3.526-.075,4.653-.15a10.742,10.742,0,0,0-1.349-.9l.15-.147a19.852,19.852,0,0,1,2.173.823c.974.526,1.124.673,1.124,1.349,0,.3-.072.451-.222.451a.677.677,0,0,1-.376-.225,15.137,15.137,0,0,0-1.127-1.124c-1.947.3-4.048.523-7.273.748-.15.376-.225.526-.3.526S17,15.262,17,15.186a7.88,7.88,0,0,1-.222-1.274,6.824,6.824,0,0,0,1.2.075h1.349a5.657,5.657,0,0,0,.6-1.5H17c-.222,0-.523.075-.9.075l-.15-.526a5.075,5.075,0,0,0,1.049.15h3.973V11.36a3.233,3.233,0,0,0-.072-.748,6.783,6.783,0,0,1,1.425.225.251.251,0,0,1,.075.15c0,.072-.075.15-.526.3v.974h3.45Z" transform="translate(33.998 22.614)" fill="#fff"/>
    <path id="パス_25825" data-name="パス 25825" d="M29.055,12.84a5.144,5.144,0,0,1,1.277.523.88.88,0,0,1,.526.827c0,.376-.15.6-.3.6-.075,0-.15-.078-.225-.3a3.675,3.675,0,0,0-1.349-1.5Zm-1.2.451c.451.222.9.451,1.277.673.373.3.523.526.523.748,0,.379-.15.6-.3.6s-.15-.075-.373-.451a6.743,6.743,0,0,0-1.2-1.5Zm-7.348-.676a.74.74,0,0,0,.6.225,21.342,21.342,0,0,0,3.522-.751c.526-.15,1.2-.3,2.026-.451a12.68,12.68,0,0,0,1.725-.448,1.322,1.322,0,0,1,.451-.075,1.672,1.672,0,0,1,.673.3c.225.15.376.3.376.451,0,.222-.15.3-.376.3h-.6a4.471,4.471,0,0,0-4.277,4.2,2.53,2.53,0,0,0,1.65,2.473,4.353,4.353,0,0,0,1.277.3.682.682,0,0,1,.526.225,1.1,1.1,0,0,1,.373.6.421.421,0,0,1-.451.379,4.8,4.8,0,0,1-2.549-.9,3.328,3.328,0,0,1-1.5-2.852,4.75,4.75,0,0,1,1.349-3.075,6.715,6.715,0,0,1,2.026-1.425,20.941,20.941,0,0,0-3.6.9,9.387,9.387,0,0,0-2.026.823.8.8,0,0,1-.523.15,1.451,1.451,0,0,1-.977-.748,1.583,1.583,0,0,1-.3-.827c0-.075,0-.15.15-.376.15.225.3.376.451.6" transform="translate(42.42 23.686)" fill="#fff"/>
    <path id="パス_25826" data-name="パス 25826" d="M23.622,13.367a12.909,12.909,0,0,1,2.477,1.2,1.256,1.256,0,0,1,.673,1.127c0,.373-.225.827-.451.827a.259.259,0,0,1-.15-.078,10.457,10.457,0,0,1-.673-.9,12.146,12.146,0,0,0-1.951-2.026Z" transform="translate(50.179 28.485)" fill="#fff"/>
    <path id="パス_25827" data-name="パス 25827" d="M34.191,13.089c.3-.376.451-.526.748-.9a14.776,14.776,0,0,1,1.127,1.049l.072.075c0,.075-.072.075-.147.075H31.865v2.473h3.3c.373-.376.448-.526.823-.9.526.451.676.6,1.2,1.049l.075.075c0,.075-.075.075-.15.075h-5.1a7.243,7.243,0,0,0,1.65,2.1,7.885,7.885,0,0,0,3.826,2.023v.15c-.526.078-.751.3-.974.9a10.359,10.359,0,0,1-2.777-2.1,8.552,8.552,0,0,1-1.875-2.849v2.549a20.55,20.55,0,0,0,.078,3v.078c0,.147-.229.222-.751.222-.15,0-.15,0-.225-.15V16.915a15.419,15.419,0,0,1-2.624,2.774,11,11,0,0,1-2.777,1.8l-.15-.15A14.49,14.49,0,0,0,28.79,18.49a10.609,10.609,0,0,0,1.65-2.248h-3.6a5.2,5.2,0,0,0-.977.072l-.15-.526a6.588,6.588,0,0,0,1.277.15h3.9V13.389H27.813a5.309,5.309,0,0,0-1.049.075l-.072-.526a6.679,6.679,0,0,0,1.349.15h2.849v-.827a10.1,10.1,0,0,0-.075-1.65,2.489,2.489,0,0,0,.676.078c.673.072.823.15.823.3,0,.072-.075.15-.523.3v1.8Z" transform="translate(54.159 22.614)" fill="#fff"/>
    <path id="パス_25828" data-name="パス 25828" d="M32.114,12.984c1.049.823,1.65,1.5,1.65,1.951,0,.373-.3.9-.526.9-.15,0-.15-.075-.225-.376a8.074,8.074,0,0,0-.977-2.4Zm4.274,3.3a11.069,11.069,0,0,0,1.575-3.153c1.2.454,1.2.529,1.2.6,0,.15-.075.15-.526.15a19.175,19.175,0,0,1-1.947,2.473h2.549c.3-.376.376-.526.676-.9.526.451.748.6,1.274,1.052l.075.075c0,.075,0,.075-.15.075H35.937a6.9,6.9,0,0,0,1.951,2.173,12.406,12.406,0,0,0,2.4,1.353,7.632,7.632,0,0,0,1.2.373v.15c-.526.15-.676.3-.9.9a9.206,9.206,0,0,1-2.552-1.8,10.829,10.829,0,0,1-2.1-2.777v1.951c0,.751,0,.827.075,1.951v1.124c-.075.15-.075.15-.373.15-.078,0-.379.075-.451.075-.15,0-.225-.075-.225-.15a17.212,17.212,0,0,0,.075-2.849v-1.8a11.706,11.706,0,0,1-2.552,2.552,10.659,10.659,0,0,1-2.849,1.722l-.15-.15a13.976,13.976,0,0,0,3.3-2.7,11.067,11.067,0,0,0,1.65-2.173H30.915a4.621,4.621,0,0,0-1.052.075l-.15-.526a7.492,7.492,0,0,0,1.2.15h4.048V12.909h-3.3a6.824,6.824,0,0,0-1.2.075l-.15-.451a6.857,6.857,0,0,0,1.425.15h3.225v-.451c0-.523-.075-1.121-.075-1.572,1.124.15,1.5.222,1.5.373s-.15.225-.526.3v1.349h2.774c.3-.373.376-.523.676-.9.526.448.676.6,1.2,1.049l.078.075c0,.075-.078.075-.15.075H35.787v3.3Z" transform="translate(62.837 22.719)" fill="#fff"/>
    <path id="パス_25829" data-name="パス 25829" d="M33.874,12.454a2.2,2.2,0,0,0,1.575.6A12.085,12.085,0,0,0,36.8,12.9a2.889,2.889,0,0,0,.451-1.277c0-.373-.225-.523-.9-.673a.8.8,0,0,1,.6-.15,2.314,2.314,0,0,1,.977.225c.3.147.448.3.448.448,0,.078-.075.15-.225.376a2.174,2.174,0,0,0-.373.526,5.833,5.833,0,0,0-.3.526,3.637,3.637,0,0,0,1.8-.827A.27.27,0,0,1,39.5,12c.526,0,.827.15.827.451,0,.15-.15.3-.526.376a22.913,22.913,0,0,1-2.774.751c-.225.3-.376.523-.673.971-.379.526-.451.676-.676.977A3.221,3.221,0,0,1,37.325,15a1.45,1.45,0,0,1,1.425,1.277,8.826,8.826,0,0,0,1.274-.6c1.277-.6,1.578-.827,1.578-1.049s-.229-.451-.6-.6a.562.562,0,0,1,.3-.075c.523,0,1.421.748,1.421,1.274,0,.225-.072.3-.448.379A21.01,21.01,0,0,0,38.9,16.878v1.049c0,.6-.075.977-.075,1.127a.413.413,0,0,1-.376.225.354.354,0,0,1-.373-.376v-.225a7.583,7.583,0,0,0,.072-1.349,13.507,13.507,0,0,0-1.5.974,1.558,1.558,0,0,0-.6,1.2c0,.676.673.974,2.1.974A9.09,9.09,0,0,0,40.7,20.1c.075,0,.15-.072.225-.072.376,0,.9.373.9.6,0,.15-.15.3-.373.373a18.2,18.2,0,0,1-2.254.15,6.8,6.8,0,0,1-2.549-.373,1.335,1.335,0,0,1-.9-1.349,2.453,2.453,0,0,1,.9-1.725,9.8,9.8,0,0,1,1.578-1.127,2.638,2.638,0,0,0-.15-.971.785.785,0,0,0-.676-.379,4.291,4.291,0,0,0-2.777,1.8c-.222.3-.373.376-.448.376-.225,0-.376-.3-.376-.676,0-.3,0-.3.376-.6a9.6,9.6,0,0,0,2.323-2.7,4.174,4.174,0,0,1-.823.072,2.074,2.074,0,0,1-1.875-.974Z" transform="translate(72.026 23.023)" fill="#fff"/>
    <path id="パス_25830" data-name="パス 25830" d="M37.6,11.5c.376.451.6.6,1.049.6a4.215,4.215,0,0,0,2.4-.827.233.233,0,0,1,.15-.075c.225,0,.673.376.673.6,0,.15-.072.15-.448.376a4.311,4.311,0,0,0-1.578,1.349,5.925,5.925,0,0,0-1.421,3.6c0,1.725.974,2.777,2.473,2.777a3.118,3.118,0,0,0,2.774-1.725,6.693,6.693,0,0,0,.6-3.225,11.988,11.988,0,0,0-.451-3.45.749.749,0,0,1-.075-.3.2.2,0,0,1,.229-.225.927.927,0,0,1,.6.3.832.832,0,0,1,.222.451,15.037,15.037,0,0,0,.977,2.924,5.565,5.565,0,0,0,.974,1.5,1.486,1.486,0,0,1,.376,1.052c0,.3-.15.523-.3.523-.3,0-.6-.451-1.124-1.5a23.516,23.516,0,0,1-1.349-3.6h-.075a22.864,22.864,0,0,1,.3,3.147,5.465,5.465,0,0,1-1.127,3.751,3.341,3.341,0,0,1-2.474,1.124c-1.875,0-3.15-1.421-3.15-3.6a5.69,5.69,0,0,1,.523-2.477A9.666,9.666,0,0,1,39.629,12.4a7.252,7.252,0,0,1-.977.15,1.6,1.6,0,0,1-1.5-.974Z" transform="translate(79.171 23.379)" fill="#fff"/>
    <path id="パス_25831" data-name="パス 25831" d="M43.131,10.783a2.78,2.78,0,0,0,1.575,1.127c.225.072.6.15.9.222a1.218,1.218,0,0,1,.523.3c.225.225.3.376.3.526a.321.321,0,0,1-.3.3c-.075,0-.075,0-.3-.078-.222,0-.3-.072-.6-.072a10.6,10.6,0,0,0-2.4.373,1.155,1.155,0,0,0-.6.225.565.565,0,0,0-.15.376.848.848,0,0,0,.072.376.933.933,0,0,1,0,.748c-.072.676-.15,1.725-.222,2.552a7.7,7.7,0,0,1,4.124-1.575c1.428,0,2.4.823,2.4,1.947,0,1.2-.9,2.176-2.473,2.7a9.545,9.545,0,0,1-2.849.523l-.075-.222a6.454,6.454,0,0,0,3.15-1.127,2.4,2.4,0,0,0,1.277-2.026,1.347,1.347,0,0,0-1.5-1.349,5.129,5.129,0,0,0-3,1.349,1.748,1.748,0,0,0-.676.827c-.15.225-.222.225-.373.225-.225,0-.376-.15-.526-.451a2.3,2.3,0,0,1-.3-.673.371.371,0,0,1,.075-.225,4.23,4.23,0,0,0,.15-.751,8.593,8.593,0,0,1,.15-1.049c.15-.977.225-1.425.225-1.65a1,1,0,0,1,.225-.751c.15-.222.523-.373,1.274-.6a9.717,9.717,0,0,0,1.5-.448,3.23,3.23,0,0,1-1.124-.751,2.005,2.005,0,0,1-.676-.974Z" transform="translate(87.595 22.819)" fill="#fff"/>
    <path id="パス_25832" data-name="パス 25832" d="M46.953,10.783a2.492,2.492,0,0,1,1.425.676c.225.222.3.3.3.523,0,.15-.075.225-.748.751-.676.6-1.954,1.725-2.326,2.173-.451.526-.6.751-.6,1.052a1.54,1.54,0,0,0,.376.673c.15.225.15.225.9.827A11.578,11.578,0,0,1,48.6,20.007a1.713,1.713,0,0,1,.225.827c0,.451-.15.751-.451.751-.15,0-.225-.078-.448-.526a9.307,9.307,0,0,0-1.052-1.8A20.057,20.057,0,0,0,45,16.932a1.512,1.512,0,0,1-.448-1.049c0-.376.222-.748.974-1.725,1.5-1.875,1.875-2.4,1.875-2.7,0-.225-.15-.376-.676-.751.075.075.075.075.225.075" transform="translate(94.947 22.819)" fill="#fff"/>
    <path id="パス_25833" data-name="パス 25833" d="M47.3,14.969a1.2,1.2,0,1,0,1.2-1.2,1.182,1.182,0,0,0-1.2,1.2m2.849,0a1.65,1.65,0,1,1-1.65-1.65,1.665,1.665,0,0,1,1.65,1.65" transform="translate(99.846 28.383)" fill="#fff"/>
  </g>
</svg>
