<svg xmlns="http://www.w3.org/2000/svg" xmlns:xlink="http://www.w3.org/1999/xlink" width="133.464" height="21" viewBox="0 0 133.464 21">
  <defs>
    <clipPath id="clip-path">
      <rect id="長方形_24241" data-name="長方形 24241" width="133.464" height="21" fill="none"/>
    </clipPath>
  </defs>
  <g id="グループ_14291" data-name="グループ 14291" clip-path="url(#clip-path)">
    <rect id="長方形_24232" data-name="長方形 24232" width="5.548" height="1.329" rx="0.056" transform="translate(0 4.917)" fill="#002880"/>
    <path id="パス_25790" data-name="パス 25790" d="M7.937.686H.2a.2.2,0,0,0-.2.2v.928a.2.2,0,0,0,.2.2H6.218c.376,0,.591.032.863-.193L8.07,1A.188.188,0,0,0,7.937.686" transform="translate(0 1.77)" fill="#002880"/>
    <rect id="長方形_24233" data-name="長方形 24233" width="5.548" height="1.329" rx="0.056" transform="translate(0 7.376)" fill="#002880"/>
    <rect id="長方形_24234" data-name="長方形 24234" width="5.548" height="1.329" rx="0.056" transform="translate(0 9.835)" fill="#002880"/>
    <rect id="長方形_24235" data-name="長方形 24235" width="5.548" height="1.329" rx="0.056" transform="translate(0 12.294)" fill="#002880"/>
    <rect id="長方形_24236" data-name="長方形 24236" width="5.548" height="1.329" rx="0.056" transform="translate(0 14.753)" fill="#002880"/>
    <rect id="長方形_24237" data-name="長方形 24237" width="21.985" height="1.329" rx="0.056" transform="translate(0.003 17.212)" fill="#002880"/>
    <rect id="長方形_24238" data-name="長方形 24238" width="21.985" height="1.329" rx="0.056" transform="translate(0.003 19.671)" fill="#002880"/>
    <rect id="長方形_24239" data-name="長方形 24239" width="10.548" height="1.329" rx="0.056" transform="translate(11.439 -0.001)" fill="#002880"/>
    <rect id="長方形_24240" data-name="長方形 24240" width="10.548" height="1.329" rx="0.056" transform="translate(11.439 2.46)" fill="#002880"/>
    <path id="パス_25791" data-name="パス 25791" d="M10.9,0H.2A.2.2,0,0,0,0,.2v.931a.2.2,0,0,0,.2.2H9.184c.376,0,.591.032.863-.193l.989-.817A.188.188,0,0,0,10.9,0" transform="translate(0 -0.001)" fill="#002880"/>
    <path id="パス_25792" data-name="パス 25792" d="M12.72,2.7h4.85a.2.2,0,0,0,.2-.2V1.574a.2.2,0,0,0-.2-.2H7.419a.2.2,0,0,0-.2.2V7.552L1.777,12.093c-.218.179-.19.444.1.444H17.569a.2.2,0,0,0,.2-.2v-.928a.2.2,0,0,0-.2-.2H12.72a.2.2,0,0,1-.2-.2v-.731a.2.2,0,0,1,.2-.2h4.85a.2.2,0,0,0,.2-.2V8.952a.2.2,0,0,0-.2-.2H12.72a.2.2,0,0,1-.2-.2V7.82a.2.2,0,0,1,.2-.2h4.85a.2.2,0,0,0,.2-.2V6.491a.2.2,0,0,0-.2-.2H12.72a.2.2,0,0,1-.2-.2V5.363a.2.2,0,0,1,.2-.2h4.85a.2.2,0,0,0,.2-.2V4.034a.2.2,0,0,0-.2-.2H12.72a.2.2,0,0,1-.2-.2V2.9a.2.2,0,0,1,.2-.2" transform="translate(4.219 3.544)" fill="#002880"/>
    <path id="パス_25793" data-name="パス 25793" d="M20.7,1.1H10.345L9.307,3.663l.319.082c.752-1.436,1.35-1.938,3.736-1.938h4.7S8.282,13.985,8.214,14.064s-.075.168.061.168H19.662l1.049-2.572-.319-.079C19.644,13,19.031,13.52,16.646,13.52H10.933c1.486-1.837,9.782-12.124,9.853-12.21s.072-.211-.09-.211" transform="translate(21.085 2.834)" fill="#1a1311"/>
    <path id="パス_25794" data-name="パス 25794" d="M13.269,2.807,12.126,4.225H17.7l1.146-1.418Z" transform="translate(31.307 7.245)" fill="#1a1311"/>
    <path id="パス_25795" data-name="パス 25795" d="M22.66,1.406c1.178,0,1.5.562,1.5,1.909v8.7c0,1.347-.355,1.913-1.5,1.913v.3h4.857v-.3c-1.2,0-1.5-.566-1.5-1.913v-8.7c0-1.347.319-1.909,1.5-1.909V1.1H22.66Z" transform="translate(58.503 2.834)" fill="#1a1311"/>
    <path id="パス_25796" data-name="パス 25796" d="M17.684,12.018v-8.7c0-1.35.326-1.909,1.508-1.909V1.1h-4.76v.312c1.182,0,1.5.559,1.5,1.909v8.7c0,1.347-.337,1.909-1.5,1.909v.308h4.76v-.308c-1.218,0-1.508-.555-1.508-1.909" transform="translate(37.26 2.831)" fill="#1a1311"/>
    <path id="パス_25797" data-name="パス 25797" d="M21.932,11.728c-.852-.928-.852-.928-4.66-5.036L21.33,2.9a6.621,6.621,0,0,1,1.443-1.139,2.622,2.622,0,0,1,1-.347V1.1H19.324v.312a1.983,1.983,0,0,1,.831.133.462.462,0,0,1,.261.573c-.072.365-.609,1.089-2,2.411-.738.691-1.719,1.619-2.844,2.608-.111.1-.129.172-.025.287l6.333,6.816h3.105v-.312c-1.2,0-2.135-1.193-3.052-2.2" transform="translate(39.958 2.831)" fill="#1a1311"/>
    <path id="パス_25798" data-name="パス 25798" d="M22.583,9.312c1.11-2.536,2.464-5.631,2.464-5.631l2.608,5.631Zm8.564,3.13c-.512-1.053-5.541-11.419-5.541-11.419h-.258l-4.427,9.764A16.069,16.069,0,0,1,19.435,13.6a1.366,1.366,0,0,1-1.071.516v.308h3.818v-.308a1.71,1.71,0,0,1-.774-.176c-.408-.244-.541-.566-.236-1.368.036-.1.48-1.121,1.057-2.443h5.806l1.988,4.295h2.89v-.3c-.863,0-1.282-.681-1.766-1.676" transform="translate(47.412 2.643)" fill="#1a1311"/>
    <path id="パス_25799" data-name="パス 25799" d="M31.818,7.109c.924,0,1.182.444,1.182,1.5v2.378a.522.522,0,0,1-.143.39,2.094,2.094,0,0,1-.688.315,4.73,4.73,0,0,1-.724.168,5.666,5.666,0,0,1-.67.054,3.691,3.691,0,0,1-2.8-1.214,4.717,4.717,0,0,1-1.139-3.363,5.15,5.15,0,0,1,1.143-3.754,3.607,3.607,0,0,1,2.636-1.135,3.381,3.381,0,0,1,2.5,1,3.527,3.527,0,0,1,.971,1.666h.251L34.21,1.833H34a.922.922,0,0,1-.229.48.546.546,0,0,1-.494.09c-.079-.021-.512-.15-1.1-.319A6.405,6.405,0,0,0,30.4,1.833a4.868,4.868,0,0,0-3.9,1.716,5.508,5.508,0,0,0-1.343,3.729,4.991,4.991,0,0,0,1.68,3.947,5.5,5.5,0,0,0,3.747,1.332,8.015,8.015,0,0,0,2.586-.458c.9-.3,1.207-.48,1.207-.663V8.613c0-1.06.251-1.5,1.182-1.5V6.865H31.818Z" transform="translate(64.937 4.732)" fill="#1a1311"/>
    <path id="パス_25800" data-name="パス 25800" d="M35.528,9.191a2.039,2.039,0,0,1-3.209,0,4.4,4.4,0,0,1-.627-2.622A4.661,4.661,0,0,1,32.3,3.922a2,2,0,0,1,3.227,0,4.706,4.706,0,0,1,.609,2.643,4.494,4.494,0,0,1-.612,2.622m-1.612-6.53a3.471,3.471,0,0,0-2.611,1.11,3.82,3.82,0,0,0-1.06,2.754,3.8,3.8,0,0,0,1.071,2.833,3.554,3.554,0,0,0,2.6,1.057,3.609,3.609,0,0,0,2.6-1.039,3.769,3.769,0,0,0,1.075-2.851,3.823,3.823,0,0,0-1.06-2.751,3.479,3.479,0,0,0-2.618-1.114" transform="translate(78.086 6.869)" fill="#1a1311"/>
    <path id="パス_25801" data-name="パス 25801" d="M40.987,9.194a1.841,1.841,0,0,1-3.005,0,2.951,2.951,0,0,1-.408-.974V4.907a3.165,3.165,0,0,1,.4-.985,1.8,1.8,0,0,1,3.019,0,4.938,4.938,0,0,1,.573,2.643,4.725,4.725,0,0,1-.577,2.625m1.128-5.419a2.975,2.975,0,0,0-4.542-.118V2.815a.09.09,0,0,0-.122-.093l-2.436.713v.24a.885.885,0,0,1,1.178.949v7.11c0,1.06-.276,1.5-1.178,1.5v.244h3.736v-.244c-.938,0-1.178-.444-1.178-1.5V9.459a2.989,2.989,0,0,0,2.21.956A3.034,3.034,0,0,0,42.1,9.377a4.021,4.021,0,0,0,.96-2.851,4.107,4.107,0,0,0-.946-2.751" transform="translate(90.404 6.869)" fill="#1a1311"/>
    <path id="パス_25802" data-name="パス 25802" d="M39.48,8.268V2.7H36.919v.24c.938,0,1.182.444,1.182,1.5V8.218a2.485,2.485,0,0,1-1.773,1.15,1.082,1.082,0,0,1-1.089-.609,2.111,2.111,0,0,1-.15-.87V2.7H32.531v.244c.924,0,1.178.444,1.178,1.5V8.186a1.971,1.971,0,0,0,.623,1.648,2.067,2.067,0,0,0,1.315.494A2.5,2.5,0,0,0,37.1,9.866a5.348,5.348,0,0,0,1-.921v1.132c0,.079.054.107.125.093.032-.011,2.436-.716,2.436-.716V9.217c-.587.115-1.182-.082-1.182-.949" transform="translate(83.988 6.957)" fill="#1a1311"/>
    <path id="パス_25803" data-name="パス 25803" d="M32.677,2.757a3.646,3.646,0,0,0-1.719,1.476V2.775a.088.088,0,0,0-.122-.093c-.032.007-2.432.713-2.432.713v.236a.889.889,0,0,1,1.178.953V8.409c0,1.064-.279,1.5-1.178,1.5v.244H32.14V9.913c-.938,0-1.182-.441-1.182-1.5V5.217a1.8,1.8,0,0,1,1.855-1.526.805.805,0,0,1,.8.835l.2.057s.469-1.153.509-1.268a.2.2,0,0,0-.072-.244,1.536,1.536,0,0,0-1.565-.315" transform="translate(73.333 6.91)" fill="#1a1311"/>
  </g>
</svg>
