<svg xmlns="http://www.w3.org/2000/svg" xmlns:xlink="http://www.w3.org/1999/xlink" width="165" height="22.353" viewBox="0 0 165 22.353">
  <defs>
    <clipPath id="clip-path">
      <rect id="長方形_24231" data-name="長方形 24231" width="165" height="22.353" fill="#009cbd"/>
    </clipPath>
  </defs>
  <g id="グループ_14289" data-name="グループ 14289" transform="translate(0 0)">
    <g id="グループ_14288" data-name="グループ 14288" transform="translate(0 0)" clip-path="url(#clip-path)">
      <path id="パス_25782" data-name="パス 25782" d="M9.482,19.9H3.723c-.038-.816-.076-1.708-.1-2.328-.048-1.378-.076-2.965-.079-6.22,1.1,0,3.709.007,5.287.028,2.036.021,5.511.31,5.511.31a10.815,10.815,0,0,1-.09-1.292,10.739,10.739,0,0,1,.09-1.292s-3.475.286-5.511.31c-1.577.017-4.185.024-5.283.028.007-2.466.034-3.823.076-5.018.021-.617.059-1.509.1-2.325H9.392a29.871,29.871,0,0,1,6.64.479,10.6,10.6,0,0,1-.1-1.3,7.836,7.836,0,0,1,.1-1.185s-3.3.165-8.049.165S.038.055,0,.055c0,0,.141,2.928.189,4.367S.265,7.5.265,11,.238,16.143.189,17.569,0,21.939,0,21.939c.038,0,3.327-.2,8.073-.2s8.135.165,8.135.165a8.118,8.118,0,0,1-.093-1.185,11.085,11.085,0,0,1,.093-1.3,31.146,31.146,0,0,1-6.726.482" transform="translate(0 0.133)" fill="#009cbd"/>
      <path id="パス_25783" data-name="パス 25783" d="M41.049,19.9H35.29c-.038-.816-.076-1.708-.1-2.328-.048-1.378-.076-2.965-.079-6.22,1.1,0,3.709.007,5.287.028,2.039.021,5.511.31,5.511.31a11.241,11.241,0,0,1-.086-1.292A11.162,11.162,0,0,1,45.912,9.1s-3.472.286-5.511.31c-1.577.017-4.185.024-5.283.028.007-2.466.034-3.823.076-5.018.021-.617.059-1.509.1-2.325h5.669a29.871,29.871,0,0,1,6.64.479,10.6,10.6,0,0,1-.1-1.3A7.836,7.836,0,0,1,47.6.093s-3.293.165-8.049.165-7.946-.2-7.984-.2c0,0,.141,2.928.189,4.367S31.836,7.5,31.836,11s-.031,5.146-.079,6.571-.189,4.371-.189,4.371c.038,0,3.331-.2,8.073-.2s8.135.165,8.135.165a8.118,8.118,0,0,1-.093-1.185,11.084,11.084,0,0,1,.093-1.3,31.146,31.146,0,0,1-6.726.482" transform="translate(77.155 0.133)" fill="#009cbd"/>
      <path id="パス_25784" data-name="パス 25784" d="M35.045,3.236A4.824,4.824,0,0,0,33.895,1.7,5.1,5.1,0,0,0,32.341.763,10.476,10.476,0,0,0,30.626.278,11.562,11.562,0,0,0,28.99.085c-.513-.021-.947-.031-1.3-.031-.258,0-.575.01-.947.031s-.765.038-1.171.048-.813.028-1.209.048C24.02.2,22.136.212,21.5.216l-.01,0A10.943,10.943,0,0,1,19.584.054s.141,2.928.189,4.371c.052,1.426.079,3.072.079,6.571s-.028,5.146-.079,6.571c-.048,1.443-.189,4.371-.189,4.371a11.59,11.59,0,0,1,3.82,0s-.141-2.928-.193-4.371c-.041-1.247-.069-2.669-.076-5.356.7.038,1.46.069,1.708.076.444.01.937.017,1.474.017a18.562,18.562,0,0,0,2.883-.258,10.016,10.016,0,0,0,3.055-1,6.756,6.756,0,0,0,2.387-2.07,5.444,5.444,0,0,0,.892-3.458,5.568,5.568,0,0,0-.489-2.28M31.783,8.31a4.348,4.348,0,0,1-1.529,1.543,6.351,6.351,0,0,1-2.1.771,12.31,12.31,0,0,1-2.235.21,15.978,15.978,0,0,1-2.786-.293V1.611H26.3a16.512,16.512,0,0,1,2.459.165,5.146,5.146,0,0,1,1.86.62,3.264,3.264,0,0,1,1.212,1.271,4.737,4.737,0,0,1,.486,2.118,4.61,4.61,0,0,1-.537,2.525" transform="translate(47.867 0.131)" fill="#009cbd"/>
      <path id="パス_25785" data-name="パス 25785" d="M35.014,11.28a10.453,10.453,0,0,0,3.048-.937A6.6,6.6,0,0,0,40.445,8.4a4.853,4.853,0,0,0,.882-3.238,4.926,4.926,0,0,0-.5-2.132A4.529,4.529,0,0,0,39.674,1.6,5.2,5.2,0,0,0,38.117.72,10.344,10.344,0,0,0,36.4.265,12.637,12.637,0,0,0,34.766.083c-.517-.017-.947-.028-1.3-.028-.258,0-.572.01-.944.028s-.768.038-1.174.048-.809.024-1.205.045S27.375.207,27.1.207v0A10.575,10.575,0,0,1,25.377.055s.141,2.928.189,4.371c.052,1.422.079,3.072.079,6.571s-.028,5.146-.079,6.571c-.048,1.443-.189,4.371-.189,4.371a11.59,11.59,0,0,1,3.82,0s-.141-2.928-.193-4.371c-.045-1.364-.072-2.934-.076-6.131.7.031,1.478.062,1.729.069h0c1.457,1.867,7.9,10.436,7.9,10.436a9.081,9.081,0,0,1,1.884-.162A15.539,15.539,0,0,1,43,22.008s-6.937-7.846-9.251-10.574c.4-.038.82-.09,1.264-.155M32.083,1.512a17.666,17.666,0,0,1,2.459.155,5.347,5.347,0,0,1,1.86.582,3.157,3.157,0,0,1,1.219,1.188,4.2,4.2,0,0,1,.489,1.98,4.067,4.067,0,0,1-.527,2.366,4.16,4.16,0,0,1-1.522,1.443,6.616,6.616,0,0,1-2.094.723,13.3,13.3,0,0,1-2.239.2,17.222,17.222,0,0,1-2.8-.276V1.512Z" transform="translate(62.026 0.133)" fill="#009cbd"/>
      <path id="パス_25786" data-name="パス 25786" d="M52.875,12.407a8.3,8.3,0,0,0-2.359-1.856A20.272,20.272,0,0,0,47.55,9.259a26.988,26.988,0,0,1-2.921-1.2A8.281,8.281,0,0,1,42.4,6.548a3.136,3.136,0,0,1-.84-2.242,2.7,2.7,0,0,1,1.412-2.139A6.806,6.806,0,0,1,46.634,1.4a7.911,7.911,0,0,1,2.042.427,4.3,4.3,0,0,1,1.55.94,3.866,3.866,0,0,1,.851,1.471l.451.028a6.078,6.078,0,0,1,.338-1.447,3.982,3.982,0,0,1,.585-1.057A9.6,9.6,0,0,0,50.013.617,12.694,12.694,0,0,0,47,.028a14.613,14.613,0,0,0-3.53.2,8.072,8.072,0,0,0-2.549.94A4.85,4.85,0,0,0,39.25,2.759,4.4,4.4,0,0,0,38.6,4.946a4.555,4.555,0,0,0,.8,2.972,7.485,7.485,0,0,0,2.184,1.922,17.994,17.994,0,0,0,2.928,1.36q1.586.573,2.969,1.236a8.406,8.406,0,0,1,2.349,1.484A3.381,3.381,0,0,1,50.836,16.4a3.766,3.766,0,0,1-1.354,3.12,6.615,6.615,0,0,1-4.436,1.261,7.609,7.609,0,0,1-4.777-1.812,6.408,6.408,0,0,1-1.515-2.742l-.486,0a9.738,9.738,0,0,1-.207,1.812,5.584,5.584,0,0,1-.758,1.781,10.743,10.743,0,0,0,2.58,1.6,12.588,12.588,0,0,0,4.161.9,13.4,13.4,0,0,0,5.493-.658,7.411,7.411,0,0,0,3.813-3.262,6.355,6.355,0,0,0,.672-3,4.706,4.706,0,0,0-1.147-2.986" transform="translate(91.177 -0.002)" fill="#009cbd"/>
      <path id="パス_25787" data-name="パス 25787" d="M59.772,15.394a4.725,4.725,0,0,0-1.147-2.986,8.391,8.391,0,0,0-2.363-1.86A20.6,20.6,0,0,0,53.3,9.26a27.4,27.4,0,0,1-2.921-1.2,8.227,8.227,0,0,1-2.225-1.515,3.127,3.127,0,0,1-.84-2.242,2.691,2.691,0,0,1,1.412-2.139A6.806,6.806,0,0,1,52.385,1.4a7.911,7.911,0,0,1,2.042.427,4.328,4.328,0,0,1,1.546.937,3.808,3.808,0,0,1,.851,1.474l.455.028a6.079,6.079,0,0,1,.338-1.447A3.888,3.888,0,0,1,58.2,1.758,9.569,9.569,0,0,0,55.76.618,12.629,12.629,0,0,0,52.746.029a14.8,14.8,0,0,0-3.53.193,8.126,8.126,0,0,0-2.549.944A4.83,4.83,0,0,0,45,2.76a4.391,4.391,0,0,0-.651,2.187,4.575,4.575,0,0,0,.806,2.972,7.491,7.491,0,0,0,2.184,1.922A17.956,17.956,0,0,0,50.26,11.2q1.591.573,2.972,1.236a8.455,8.455,0,0,1,2.349,1.484,3.375,3.375,0,0,1,1,2.473,3.753,3.753,0,0,1-1.35,3.124A6.629,6.629,0,0,1,50.8,20.78a7.592,7.592,0,0,1-4.777-1.815A6.4,6.4,0,0,1,44.5,16.227l-.482-.007a9.737,9.737,0,0,1-.207,1.812,5.5,5.5,0,0,1-.761,1.781,10.706,10.706,0,0,0,2.58,1.6,12.529,12.529,0,0,0,4.161.892,13.324,13.324,0,0,0,5.493-.658A7.421,7.421,0,0,0,59.1,18.394a6.4,6.4,0,0,0,.675-3" transform="translate(105.224 0)" fill="#009cbd"/>
      <path id="パス_25788" data-name="パス 25788" d="M23.277,2.9A8.4,8.4,0,0,0,20.011.829,14.015,14.015,0,0,0,15.217.1c-.809,0-1.608.028-2.407.079s-1.6.079-2.4.079C9.748.261,9.093.247,8.442.226,8.315.219,8.184.216,8.05.212H8A10.876,10.876,0,0,1,6.1.054s.141,2.931.189,4.371S6.362,7.5,6.362,11s-.028,5.149-.076,6.575S6.1,21.938,6.1,21.938a10.943,10.943,0,0,1,1.908-.158c.7,0,1.137.007,1.86.007s1.433.01,2.135.034,1.409.031,2.132.031a15.119,15.119,0,0,0,3.933-.555,10.512,10.512,0,0,0,3.761-1.884,10.185,10.185,0,0,0,2.8-3.5,11.74,11.74,0,0,0,1.1-5.335,15.142,15.142,0,0,0-.589-4.384A8.16,8.16,0,0,0,23.277,2.9M21.265,15.5a8.115,8.115,0,0,1-2.184,3.045,7.3,7.3,0,0,1-3.027,1.512,14.524,14.524,0,0,1-3.382.4q-1.168,0-2.273-.076c-.2-.014-.382-.031-.558-.048-.045-.923-.093-2.039-.117-2.769C9.675,16.145,9.644,14.5,9.644,11s.031-5.146.079-6.571c.024-.706.069-1.767.11-2.666.31-.031.627-.059.964-.086Q12,1.58,13.381,1.58a15.03,15.03,0,0,1,3.5.386,6.419,6.419,0,0,1,2.752,1.391,6.744,6.744,0,0,1,1.815,2.735,12.631,12.631,0,0,1,.658,4.422,12.534,12.534,0,0,1-.844,4.991" transform="translate(14.902 0.131)" fill="#009cbd"/>
      <path id="パス_25789" data-name="パス 25789" d="M28.439.054c.083.6.152,1.75.2,3.334s.093,3.985.145,6.937c0,0,.014,1.357.01,2.128a20.382,20.382,0,0,1-.155,2.328,11.665,11.665,0,0,1-.51,2.242,6.1,6.1,0,0,1-1.023,1.9,4.933,4.933,0,0,1-1.712,1.336,5.96,5.96,0,0,1-2.6.51,7.206,7.206,0,0,1-2.655-.431,4.952,4.952,0,0,1-1.784-1.178,5.234,5.234,0,0,1-1.1-1.743,10.149,10.149,0,0,1-.561-2.084,17.436,17.436,0,0,1-.21-2.235c-.024-.765-.038-1.364-.041-2.073-.024-3.489-.007-5.256.034-6.668s.158-4.3.158-4.3a10.8,10.8,0,0,1-1.874.155A10.8,10.8,0,0,1,12.889.054s.141,2.879.2,4.3c.148,3.4.017,6.513.031,8.9.017,3.086.727,5.356,2.149,6.8s3.706,2.166,6.833,2.166a10.83,10.83,0,0,0,3.764-.606,7.045,7.045,0,0,0,2.738-1.784,7.789,7.789,0,0,0,1.681-2.852,11.541,11.541,0,0,0,.568-3.782q-.005-1.726.024-3.554c.017-1.219.034-2.531.055-3.682s.048-2.218.09-3.217S31.112.77,31.16.054a4.681,4.681,0,0,1-1.378.155A7.333,7.333,0,0,1,28.439.054" transform="translate(31.503 0.131)" fill="#009cbd"/>
    </g>
  </g>
</svg>
