<svg xmlns="http://www.w3.org/2000/svg" width="9.896" height="85.968" viewBox="0 0 9.896 85.968">
  <g id="グループ_8281" data-name="グループ 8281" transform="translate(-1635.904 -737.532)">
    <path id="パス_29672" data-name="パス 29672" d="M-41.988-7.728a5.1,5.1,0,0,0-2.088-.408c-1.836,0-2.892.96-2.892,2.328A2.471,2.471,0,0,0-45.24-3.516c.924.432,1.644.648,1.644,1.236a.868.868,0,0,1-.972.8A3.861,3.861,0,0,1-46.9-2.268v1.86a5.046,5.046,0,0,0,2.328.5c1.776,0,2.94-1,2.94-2.448,0-1.476-1.128-2.052-2.136-2.5-.684-.3-1.2-.588-1.2-1.032,0-.384.312-.684.96-.684A4.15,4.15,0,0,1-41.988-6Zm8.676-.012a4.1,4.1,0,0,0-2.1-.456A3.975,3.975,0,0,0-39.588-4.02,4,4,0,0,0-35.424.1,4.142,4.142,0,0,0-33.312-.36V-2.172a3.5,3.5,0,0,1-1.932.576A2.252,2.252,0,0,1-37.608-4.02a2.3,2.3,0,0,1,2.292-2.5,3.439,3.439,0,0,1,2,.552Zm4.428,1.152h.912a1.051,1.051,0,0,1,1.164,1.1c0,.768-.36,1.176-1.2,1.176h-.876ZM-26.568,0h2.208l-2.052-3.108A2.433,2.433,0,0,0-24.936-5.5c0-1.524-1.176-2.592-3-2.592h-2.8V0h1.848V-2.808h.564Zm4.1-4.068A3.8,3.8,0,0,0-18.528.084a3.814,3.814,0,0,0,3.936-4.152A3.8,3.8,0,0,0-18.528-8.22,3.814,3.814,0,0,0-22.464-4.068Zm1.98,0c0-1.512.756-2.472,1.956-2.472s1.956.96,1.956,2.472S-17.328-1.6-18.528-1.6-20.484-2.556-20.484-4.068Zm10.2,2.448V-8.088h-1.848V0H-7.3V-1.62Zm7.056,0V-8.088H-5.076V0H-.24V-1.62Z" transform="translate(1636 784.5) rotate(90)" fill="#333"/>
    <g id="グループ_281" data-name="グループ 281" transform="translate(8784 304.5) rotate(90)">
      <path id="パス_1155" data-name="パス 1155" d="M513.166,534.5l-6.7-5.8v5.8Z" transform="translate(5.834 6609.504)" fill="#333"/>
      <rect id="長方形_77" data-name="長方形 77" width="25" height="1" transform="translate(492 7143)" fill="#333"/>
    </g>
  </g>
</svg>
