<svg xmlns="http://www.w3.org/2000/svg" width="80" height="59" viewBox="0 0 80 59">
  <g id="グループ_70346" data-name="グループ 70346" transform="translate(20703 5912)">
    <rect id="長方形_27252" data-name="長方形 27252" width="80" height="59" transform="translate(-20703 -5912)" fill="none"/>
    <g id="グループ_70340" data-name="グループ 70340" transform="translate(-20764.998 -6238.066)">
      <path id="パス_80523" data-name="パス 80523" d="M35.9,105.678c1.4,1.576,2.644,3.049,4.734,3.8" transform="translate(35.959 249.569)" fill="none" stroke="#009cbd" stroke-linecap="round" stroke-linejoin="round" stroke-width="2.5"/>
      <path id="パス_80524" data-name="パス 80524" d="M73.144,17.361a11.018,11.018,0,0,0,4.74.807c3.62-.271,12.205-5.54,19.534-3.681" transform="translate(6.893 321.046)" fill="none" stroke="#009cbd" stroke-linecap="round" stroke-linejoin="round" stroke-width="2.5"/>
      <path id="パス_80525" data-name="パス 80525" d="M78.246,126.412c-3.405,4.231-9.16-.381-5.755-4.612l5.785-7.187c3.031-3.766,8.787.846,5.755,4.612Z" transform="translate(8.213 243.689)" fill="none" stroke="#009cbd" stroke-linecap="round" stroke-linejoin="round" stroke-width="2.5"/>
      <path id="パス_80526" data-name="パス 80526" d="M58.06,110.805a3.616,3.616,0,1,1-5.63-4.5L55.5,102.4c2.919-3.617,8.618.938,5.7,4.554" transform="translate(23.832 253.163)" fill="none" stroke="#009cbd" stroke-linecap="round" stroke-linejoin="round" stroke-width="2.5"/>
      <path id="パス_80527" data-name="パス 80527" d="M105.646,138.571c2.911-3.608,8.741.958,5.83,4.563L107.3,148.2l-.866,1.048a3.663,3.663,0,1,1-5.71-4.564" transform="translate(-13.871 224.927)" fill="none" stroke="#009cbd" stroke-linecap="round" stroke-linejoin="round" stroke-width="2.5"/>
      <path id="パス_80528" data-name="パス 80528" d="M134.776,161.381c2.728-3.39,7.932.936,5.2,4.325l-3.773,4.63a3.421,3.421,0,1,1-5.325-4.268" transform="translate(-37.451 207.057)" fill="none" stroke="#009cbd" stroke-linecap="round" stroke-linejoin="round" stroke-width="2.5"/>
      <path id="パス_80529" data-name="パス 80529" d="M290.889,110.093a9.471,9.471,0,0,1-5.947,2.98h0" transform="translate(-158.402 246.124)" fill="none" stroke="#009cbd" stroke-linecap="round" stroke-linejoin="round" stroke-width="2.5"/>
      <path id="パス_80530" data-name="パス 80530" d="M144.929,22.821a5.36,5.36,0,0,1-5.618.6c-3.169,4.742-6.057,7.907-11.525,3.861h.028l3.308-6c1.829-3.655,4.254-7.287,8.942-9.032a17.614,17.614,0,0,1,4.97-1.015c3.239-.216,7.231,2.9,10.91,4.337a9.762,9.762,0,0,0,3.974.241" transform="translate(-35.754 323.283)" fill="none" stroke="#009cbd" stroke-linecap="round" stroke-linejoin="round" stroke-width="2.5"/>
      <path id="パス_80531" data-name="パス 80531" d="M191.218,136.626l8.611,6.6a3.659,3.659,0,0,1,.368.283l2.11,1.615c3.654,2.535,7.492-2.337,5-5.283" transform="translate(-85.258 225.416)" fill="none" stroke="#009cbd" stroke-linecap="round" stroke-linejoin="round" stroke-width="2.5"/>
      <path id="パス_80532" data-name="パス 80532" d="M215.314,166.667c3.826,2.656-.422,8.746-4.248,6.089" transform="translate(-100.746 201.971)" fill="none" stroke="#009cbd" stroke-linecap="round" stroke-linejoin="round" stroke-width="2.5"/>
      <path id="パス_80533" data-name="パス 80533" d="M168.423,171.295l5.136,3.565c3.412,2.368-.2,7.543-3.607,5.175l-4.289-2.957" transform="translate(-65.314 198.359)" fill="none" stroke="#009cbd" stroke-linecap="round" stroke-linejoin="round" stroke-width="2.5"/>
      <path id="パス_80534" data-name="パス 80534" d="M205.864,64.037l17.363,13.091.552.411,1.034.722c4.051,2.819-.241,8.979-4.291,6.161l-1.785-1.232-.014-.014-11.8-8.951" transform="translate(-96.688 282.067)" fill="none" stroke="#009cbd" stroke-linecap="round" stroke-linejoin="round" stroke-width="2.5"/>
      <line id="線_451" data-name="線 451" x1="1.837" y1="1.331" transform="translate(108.48 373.396)" fill="none" stroke="#009cbd" stroke-linecap="round" stroke-linejoin="round" stroke-width="2.5"/>
      <path id="パス_80535" data-name="パス 80535" d="M277.353,6.762,274.3,8.549a2.932,2.932,0,0,0-1.156,3.812l8.236,16.948a2.919,2.919,0,0,0,3.766,1.411l3.187-1.353" transform="translate(-148.965 326.767)" fill="none" stroke="#009cbd" stroke-linecap="round" stroke-linejoin="round" stroke-width="2.5"/>
      <path id="パス_80536" data-name="パス 80536" d="M15.624,4.656l2.905,1.706a2.862,2.862,0,0,1,1.128,3.714L11.625,26.615l-.232.473A2.932,2.932,0,0,1,7.615,28.5L4.656,27.239" transform="translate(60.342 328.41)" fill="none" stroke="#009cbd" stroke-linecap="round" stroke-linejoin="round" stroke-width="2.5"/>
    </g>
  </g>
</svg>
