<svg xmlns="http://www.w3.org/2000/svg" width="80" height="59" viewBox="0 0 80 59">
  <g id="グループ_70345" data-name="グループ 70345" transform="translate(20536 5912)">
    <rect id="長方形_27253" data-name="長方形 27253" width="80" height="59" transform="translate(-20536 -5912)" fill="none"/>
    <g id="グループ_70341" data-name="グループ 70341" transform="translate(-20768.381 -6239.919)">
      <path id="パス_80547" data-name="パス 80547" d="M17.036,51.357H2.277V2.276H27.191v12.27" transform="translate(243.104 330.643)" fill="none" stroke="#009cbd" stroke-linecap="round" stroke-linejoin="round" stroke-width="2.5"/>
      <path id="パス_80548" data-name="パス 80548" d="M76.612,22.89V16.943H98.174V59.7H84.243" transform="translate(200.813 322.298)" fill="none" stroke="#009cbd" stroke-linecap="round" stroke-linejoin="round" stroke-width="2.5"/>
      <rect id="長方形_27230" data-name="長方形 27230" width="24.907" height="36.801" transform="translate(260.15 345.191)" fill="none" stroke="#009cbd" stroke-linecap="round" stroke-linejoin="round" stroke-width="2.5"/>
      <line id="線_452" data-name="線 452" x1="15.781" transform="translate(249.939 339.242)" fill="none" stroke="#009cbd" stroke-linejoin="round" stroke-width="2.5"/>
      <line id="線_453" data-name="線 453" x1="10.21" transform="translate(249.939 345.191)" fill="none" stroke="#009cbd" stroke-linejoin="round" stroke-width="2.5"/>
      <line id="線_454" data-name="線 454" x1="10.21" transform="translate(249.939 351.14)" fill="none" stroke="#009cbd" stroke-linejoin="round" stroke-width="2.5"/>
      <line id="線_455" data-name="線 455" x1="10.21" transform="translate(249.939 357.089)" fill="none" stroke="#009cbd" stroke-linejoin="round" stroke-width="2.5"/>
      <line id="線_456" data-name="線 456" x1="10.21" transform="translate(249.939 363.038)" fill="none" stroke="#009cbd" stroke-linejoin="round" stroke-width="2.5"/>
      <line id="線_457" data-name="線 457" x1="10.21" transform="translate(249.939 368.987)" fill="none" stroke="#009cbd" stroke-linejoin="round" stroke-width="2.5"/>
      <line id="線_458" data-name="線 458" x1="10.011" transform="translate(285.057 368.987)" fill="none" stroke="#009cbd" stroke-linejoin="round" stroke-width="2.5"/>
      <line id="線_459" data-name="線 459" x1="10.011" transform="translate(285.057 363.557)" fill="none" stroke="#009cbd" stroke-linejoin="round" stroke-width="2.5"/>
      <line id="線_460" data-name="線 460" x1="10.011" transform="translate(285.057 358.126)" fill="none" stroke="#009cbd" stroke-linejoin="round" stroke-width="2.5"/>
      <line id="線_461" data-name="線 461" x1="10.011" transform="translate(285.057 352.696)" fill="none" stroke="#009cbd" stroke-linejoin="round" stroke-width="2.5"/>
      <line id="線_462" data-name="線 462" x1="10.011" transform="translate(285.057 347.266)" fill="none" stroke="#009cbd" stroke-linejoin="round" stroke-width="2.5"/>
      <rect id="長方形_27231" data-name="長方形 27231" width="2.941" height="2.963" transform="translate(265.172 350.157)" fill="#009cbd"/>
      <rect id="長方形_27232" data-name="長方形 27232" width="2.941" height="2.963" transform="translate(271.133 350.157)" fill="#009cbd"/>
      <rect id="長方形_27233" data-name="長方形 27233" width="2.941" height="2.963" transform="translate(277.092 350.157)" fill="#009cbd"/>
      <rect id="長方形_27234" data-name="長方形 27234" width="2.941" height="2.963" transform="translate(265.172 355.978)" fill="#009cbd"/>
      <rect id="長方形_27235" data-name="長方形 27235" width="2.941" height="2.963" transform="translate(271.133 355.978)" fill="#009cbd"/>
      <rect id="長方形_27236" data-name="長方形 27236" width="2.941" height="2.963" transform="translate(277.092 355.978)" fill="#009cbd"/>
      <rect id="長方形_27237" data-name="長方形 27237" width="2.941" height="2.963" transform="translate(265.172 361.8)" fill="#009cbd"/>
      <rect id="長方形_27238" data-name="長方形 27238" width="2.941" height="2.963" transform="translate(271.133 361.8)" fill="#009cbd"/>
      <rect id="長方形_27239" data-name="長方形 27239" width="2.941" height="2.963" transform="translate(277.092 361.8)" fill="#009cbd"/>
      <rect id="長方形_27240" data-name="長方形 27240" width="2.941" height="2.963" transform="translate(265.172 367.622)" fill="#009cbd"/>
      <rect id="長方形_27241" data-name="長方形 27241" width="2.941" height="2.963" transform="translate(271.133 367.622)" fill="#009cbd"/>
      <rect id="長方形_27242" data-name="長方形 27242" width="2.941" height="2.963" transform="translate(277.092 367.622)" fill="#009cbd"/>
      <rect id="長方形_27243" data-name="長方形 27243" width="2.941" height="2.963" transform="translate(265.172 373.443)" fill="#009cbd"/>
      <rect id="長方形_27244" data-name="長方形 27244" width="2.941" height="2.963" transform="translate(271.133 373.443)" fill="#009cbd"/>
      <rect id="長方形_27245" data-name="長方形 27245" width="2.941" height="2.963" transform="translate(277.092 373.443)" fill="#009cbd"/>
    </g>
  </g>
</svg>
