<svg xmlns="http://www.w3.org/2000/svg" width="110" height="110" viewBox="0 0 110 110">
  <g id="グループ_70340" data-name="グループ 70340" transform="translate(22906 6611)">
    <rect id="長方形_27253" data-name="長方形 27253" width="110" height="110" transform="translate(-22906 -6611)" fill="none"/>
    <g id="グループ_70344" data-name="グループ 70344" transform="translate(-24121.258 -7413.249)">
      <path id="パス_57143" data-name="パス 57143" d="M272.366,149.829c.967-.715,2.516-2.119,2.675-3.854l.6-9.046c.172-1.285-.119-7.523,5.178-7.152a3.022,3.022,0,0,1,2.511,1.606" transform="translate(1027.896 719.141)" fill="none" stroke="#009cbd" stroke-linecap="round" stroke-linejoin="round" stroke-width="2.5"/>
      <path id="パス_57144" data-name="パス 57144" d="M160.1,230.092c4.913-16.462,5.5-19.442,21.217-29.679,3.218-2.106,9.337-2.49,9.3,1.218-.027,1.563-.2,1.271-13.959,13.853" transform="translate(1109.965 668.65)" fill="none" stroke="#009cbd" stroke-linecap="round" stroke-linejoin="round" stroke-width="2.5"/>
      <path id="パス_57145" data-name="パス 57145" d="M6.5,131.4a3.17,3.17,0,0,1,2.564-1.625c5.3-.371,5.006,5.867,5.179,7.152l.6,9.046c.159,1.735,1.709,3.139,2.675,3.854" transform="translate(1222.252 719.141)" fill="none" stroke="#009cbd" stroke-linecap="round" stroke-linejoin="round" stroke-width="2.5"/>
      <path id="パス_57146" data-name="パス 57146" d="M60.221,215.483c-13.76-12.582-13.933-12.29-13.959-13.853-.04-3.708,6.079-3.324,9.3-1.218,15.721,10.237,16.3,13.217,21.217,29.679" transform="translate(1193.184 668.65)" fill="none" stroke="#009cbd" stroke-linecap="round" stroke-linejoin="round" stroke-width="2.5"/>
      <path id="パス_57147" data-name="パス 57147" d="M83.907,28.071A41.744,41.744,0,1,1,66.346,9.728" transform="translate(1223.6 810.596)" fill="none" stroke="#009cbd" stroke-linecap="round" stroke-linejoin="round" stroke-width="2.5"/>
      <path id="パス_57148" data-name="パス 57148" d="M168.728,68.418c-4.5-7.217-2.441-16.992,2.039-22.111,8.429-9.627,21.287-10.29,27.362-13.232-2.107,6.481-1.121,19.489-9.472,29.186-2.743,3.184-8.448,6.14-13.126,6.882" transform="translate(1105.498 789.821)" fill="none" stroke="#009cbd" stroke-linecap="round" stroke-linejoin="round" stroke-width="2.5"/>
      <path id="パス_57149" data-name="パス 57149" d="M159.906,120.865c4.251-16.945,12.184-27.188,20.46-34.271" transform="translate(1110.107 750.697)" fill="none" stroke="#009cbd" stroke-linecap="round" stroke-linejoin="round" stroke-width="2.5"/>
      <path id="パス_57150" data-name="パス 57150" d="M81.85,117.466c-3.31-.415-7.276-1.76-8.972-4.777-4.809-8.56,3.158-12.222-4.648-18.593" transform="translate(1177.125 745.213)" fill="none" stroke="#009cbd" stroke-linecap="round" stroke-linejoin="round" stroke-width="2.5"/>
      <path id="パス_57151" data-name="パス 57151" d="M88.95,117.366C89.777,103.553,84.4,94.34,68.231,94.1" transform="translate(1177.125 745.213)" fill="none" stroke="#009cbd" stroke-linecap="round" stroke-linejoin="round" stroke-width="2.5"/>
      <path id="パス_57152" data-name="パス 57152" d="M116.287,148.1c5.866,4.918,9.108,10.064,11.732,17.432" transform="translate(1141.994 705.736)" fill="none" stroke="#009cbd" stroke-linecap="round" stroke-linejoin="round" stroke-width="2.5"/>
    </g>
  </g>
</svg>
