<svg xmlns="http://www.w3.org/2000/svg" width="110" height="110" viewBox="0 0 110 110">
  <g id="グループ_70342" data-name="グループ 70342" transform="translate(23269 6608)">
    <rect id="長方形_27254" data-name="長方形 27254" width="110" height="110" transform="translate(-23269 -6608)" fill="none"/>
    <g id="グループ_70342-2" data-name="グループ 70342" transform="translate(-24633.984 -7185)">
      <path id="パス_57153" data-name="パス 57153" d="M42.346,410.371h7.37l-1.294-.985L50.1,418.53l2.673,14.57.612,3.338,1.294-1.7H3.493c-.688,0-1.4-.047-2.083,0H1.321l1.294,1.7,1.678-9.144,2.673-14.57.613-3.338-1.294.985h7.107a1.342,1.342,0,0,0,0-2.683H6.285a1.356,1.356,0,0,0-1.294.985l-1.678,9.144L.64,432.386l-.612,3.338a1.362,1.362,0,0,0,1.294,1.7H48.108c2.157,0,4.327.072,6.483,0h.089a1.362,1.362,0,0,0,1.294-1.7L54.3,426.581l-2.673-14.57-.613-3.338a1.351,1.351,0,0,0-1.294-.985H42.35a1.342,1.342,0,0,0,0,2.683" transform="translate(1392 231.894)" fill="#009cbd"/>
      <path id="パス_57154" data-name="パス 57154" d="M80.613,0a24.338,24.338,0,0,0-10.5,2.423,20.794,20.794,0,0,0-7.679,6.585,18.136,18.136,0,0,0-3.273,9.448A21.867,21.867,0,0,0,60.6,26.743a127.556,127.556,0,0,0,6.717,15.3c2.487,4.988,5.118,9.9,7.836,14.769q1.4,2.511,2.844,5c.435.749.847,1.529,1.337,2.244a1.392,1.392,0,0,0,1.866.52H79.85c1.434.762,2.134-.94,2.7-1.9q1.282-2.179,2.518-4.384,3.95-7,7.614-14.157a157.544,157.544,0,0,0,7.127-15.608,30.985,30.985,0,0,0,1.913-6.755,17.917,17.917,0,0,0-1.774-10.556C96.759,4.9,90.183,1,83.3.162A23,23,0,0,0,80.613,0a1.342,1.342,0,0,0,0,2.683,20.374,20.374,0,0,1,9.442,2.3,17.907,17.907,0,0,1,6.61,5.914,15.233,15.233,0,0,1,2.568,8.45,21.736,21.736,0,0,1-1.555,7.215c-.4,1.127-.834,2.243-1.287,3.35q-.167.409-.338.817c-.121.289.026-.059-.1.232l-.215.5q-.393.912-.8,1.818c-1.155,2.575-2.38,5.119-3.642,7.644-2.4,4.812-4.944,9.557-7.564,14.255C82.341,57.672,80.9,60.136,79.46,62.6c-.206.351.293-.3.388-.346H81.2a1.409,1.409,0,0,0-1.356,0H81.2c.109.052.587.687.384.338-.067-.115-.141-.228-.21-.342-.254-.42-.5-.843-.75-1.266q-1.3-2.224-2.561-4.473-3.823-6.793-7.376-13.735c-1.3-2.562-2.574-5.143-3.781-7.753q-.858-1.854-1.667-3.73l-.19-.445c-.061-.143.01.024.018.044l-.092-.22q-.193-.461-.381-.923-.352-.864-.685-1.735a33.081,33.081,0,0,1-1.832-5.883,15.994,15.994,0,0,1-.257-3.083q.01-.554.057-1.106c.017-.194.036-.389.06-.582.03-.24-.025.163.011-.076q.027-.18.057-.359a16.428,16.428,0,0,1,.548-2.237,12.5,12.5,0,0,1,.8-1.995A18.666,18.666,0,0,1,78.158,2.8c.819-.084,1.633-.1,2.455-.116a1.342,1.342,0,0,0,0-2.683" transform="translate(1339.473 594)" fill="#009cbd"/>
      <path id="パス_57155" data-name="パス 57155" d="M164.226,101.258a9.379,9.379,0,0,1-18.726.779,9.377,9.377,0,1,1,18.721-.778,1.342,1.342,0,0,0,2.683,0,12.059,12.059,0,1,0-9.56,11.8,12.214,12.214,0,0,0,9.56-11.8,1.342,1.342,0,0,0-2.683,0" transform="translate(1265.148 514.77)" fill="#009cbd"/>
      <path id="パス_57156" data-name="パス 57156" d="M320.224,481.055a5.1,5.1,0,0,0-5.926-3.083,9.06,9.06,0,0,0-3.63,1.723,21.8,21.8,0,0,0-3.107,2.631c-1.735,1.859-2.872,4.773-1.362,7.131a7.163,7.163,0,0,0,1.182,1.3c.094.089.188.179.278.273.025.026.212.269.121.136.16.234.087.116.055.07.112.16-.013.151.056-.012a1.1,1.1,0,0,1-.766.545c-.7.2-1.426.2-2.127.374a5.065,5.065,0,0,0-3.523,6.385,1.374,1.374,0,0,0,1.65.937,1.354,1.354,0,0,0,.937-1.65,2.2,2.2,0,0,1,.176-1.971,2.309,2.309,0,0,1,1.876-1.194,6.3,6.3,0,0,0,3.4-1.2A2.827,2.827,0,0,0,310.2,490c-.453-.859-1.475-1.371-1.847-2.177a2.831,2.831,0,0,1,.076-2.107,7.013,7.013,0,0,1,1.955-2.385,18.221,18.221,0,0,1,2.672-2.014,5.9,5.9,0,0,1,1.674-.7,3.651,3.651,0,0,1,.372-.074c-.194.026.239-.005.232-.005h.3s.411.054.237.022a2.6,2.6,0,0,1,1.179.457,1.654,1.654,0,0,1,.584.747,1.373,1.373,0,0,0,1.65.937,1.355,1.355,0,0,0,.937-1.65" transform="translate(1124.449 169.554)" fill="#009cbd"/>
      <path id="パス_57157" data-name="パス 57157" d="M39.927,454.1c.552,2.326,1.665,4.967,4.4,5.2,1.189.1,2.114-.571,3.168-.867a.92.92,0,0,1,.8.084,6.15,6.15,0,0,1,1.164.725,3.412,3.412,0,0,1,1.529,2.221,1.431,1.431,0,0,1-.168.782,4.513,4.513,0,0,1-.992.927A4.481,4.481,0,0,0,48,466.133a9.724,9.724,0,0,0,.489,3.742,4.9,4.9,0,0,1,.2,1.81,3.549,3.549,0,0,1-.426,1.194,3.437,3.437,0,0,1-2.141,1.643,1.343,1.343,0,0,0,.713,2.587,6.163,6.163,0,0,0,4.485-5.01,10.191,10.191,0,0,0-.51-3.932c-.246-1-.364-1.971.407-2.675a6.522,6.522,0,0,0,2.255-2.652,4.613,4.613,0,0,0-.494-3.669,7.953,7.953,0,0,0-2.611-2.548,4.375,4.375,0,0,0-3.517-.791c-.594.153-1.16.478-1.7.669a1.069,1.069,0,0,1-1.146-.044c-.985-.586-1.246-1.986-1.5-3.068-.4-1.68-2.986-.968-2.588.713" transform="translate(1356.574 192.154)" fill="#009cbd"/>
    </g>
  </g>
</svg>
