<svg xmlns="http://www.w3.org/2000/svg" width="80" height="59" viewBox="0 0 80 59">
  <g id="グループ_70349" data-name="グループ 70349" transform="translate(20628 5617)">
    <rect id="長方形_27256" data-name="長方形 27256" width="80" height="59" transform="translate(-20628 -5617)" fill="none"/>
    <g id="グループ_70344" data-name="グループ 70344" transform="translate(-20775.998 -6239.217)">
      <path id="パス_80537" data-name="パス 80537" d="M272.366,142.666a3.927,3.927,0,0,0,1.72-2.478l.383-5.817c.111-.826-.077-4.838,3.33-4.6a1.943,1.943,0,0,1,1.615,1.033" transform="translate(-65.063 517.094)" fill="none" stroke="#009cbd" stroke-linecap="round" stroke-linejoin="round" stroke-width="2.5"/>
      <path id="パス_80538" data-name="パス 80538" d="M160.1,218.933c3.16-10.586,3.534-12.5,13.644-19.086,2.07-1.354,6-1.6,5.979.784-.017,1-.128.817-8.977,8.908" transform="translate(27.783 459.973)" fill="none" stroke="#009cbd" stroke-linecap="round" stroke-linejoin="round" stroke-width="2.5"/>
      <path id="パス_80539" data-name="パス 80539" d="M6.5,130.817a2.039,2.039,0,0,1,1.649-1.045c3.407-.239,3.219,3.773,3.33,4.6l.383,5.817a3.926,3.926,0,0,0,1.721,2.478" transform="translate(154.818 517.094)" fill="none" stroke="#009cbd" stroke-linecap="round" stroke-linejoin="round" stroke-width="2.5"/>
      <path id="パス_80540" data-name="パス 80540" d="M55.239,209.539c-8.849-8.091-8.96-7.9-8.976-8.909-.026-2.385,3.909-2.138,5.979-.783,10.109,6.583,10.484,8.5,13.644,19.086" transform="translate(121.932 459.973)" fill="none" stroke="#009cbd" stroke-linecap="round" stroke-linejoin="round" stroke-width="2.5"/>
      <path id="パス_80541" data-name="パス 80541" d="M55.62,19.714a26.844,26.844,0,1,1-11.293-11.8" transform="translate(156.342 620.561)" fill="none" stroke="#009cbd" stroke-linecap="round" stroke-linejoin="round" stroke-width="2.5"/>
      <path id="パス_80542" data-name="パス 80542" d="M167.83,55.8c-2.893-4.641-1.57-10.927,1.311-14.219,5.421-6.191,13.689-6.617,17.6-8.509-1.355,4.168-.721,12.533-6.091,18.769a15.739,15.739,0,0,1-8.441,4.426" transform="translate(22.73 597.057)" fill="none" stroke="#009cbd" stroke-linecap="round" stroke-linejoin="round" stroke-width="2.5"/>
      <path id="パス_80543" data-name="パス 80543" d="M159.906,108.632c2.733-10.9,7.835-17.484,13.157-22.038" transform="translate(27.945 552.795)" fill="none" stroke="#009cbd" stroke-linecap="round" stroke-linejoin="round" stroke-width="2.5"/>
      <path id="パス_80544" data-name="パス 80544" d="M76.989,109.124c-2.129-.267-4.679-1.132-5.769-3.072-3.093-5.5,2.031-7.859-2.989-11.957" transform="translate(103.764 546.591)" fill="none" stroke="#009cbd" stroke-linecap="round" stroke-linejoin="round" stroke-width="2.5"/>
      <path id="パス_80545" data-name="パス 80545" d="M81.555,109.06c.532-8.883-2.924-14.807-13.324-14.964" transform="translate(103.764 546.591)" fill="none" stroke="#009cbd" stroke-linecap="round" stroke-linejoin="round" stroke-width="2.5"/>
      <path id="パス_80546" data-name="パス 80546" d="M116.287,148.1a23.814,23.814,0,0,1,7.545,11.21" transform="translate(64.02 501.929)" fill="none" stroke="#009cbd" stroke-linecap="round" stroke-linejoin="round" stroke-width="2.5"/>
    </g>
  </g>
</svg>
