<svg xmlns="http://www.w3.org/2000/svg" width="110" height="110" viewBox="0 0 110 110">
  <g id="グループ_70340" data-name="グループ 70340" transform="translate(22354 6684)">
    <rect id="長方形_27252" data-name="長方形 27252" width="110" height="110" transform="translate(-22354 -6684)" fill="rgba(0,0,0,0)"/>
    <g id="グループ_70343" data-name="グループ 70343" transform="translate(-23269.965 -7487.302)">
      <path id="パス_57131" data-name="パス 57131" d="M19,49.688a1.537,1.537,0,0,0,2.123.453l7.86-5.079a2,2,0,0,0,.843-1.592,2.337,2.337,0,0,0-1.587-2.579,9.309,9.309,0,0,1-2.9-2.3c-1.388-2.137-.77-4.267.844-6A7.966,7.966,0,0,1,29.4,30.5c2.237-.771,4.434-.468,5.822,1.669a9.307,9.307,0,0,1,.927,3.583,2.336,2.336,0,0,0,1.711,2.5,2,2,0,0,0,1.8-.122l7.33-4.773a1.537,1.537,0,0,0,.449-2.126L42.668,23.9a2,2,0,0,1-.123-1.8,2.337,2.337,0,0,1,2.5-1.711,9.3,9.3,0,0,0,3.583-.927c2.137-1.388,2.437-3.584,1.666-5.821A7.977,7.977,0,0,0,48.2,10.418c-1.73-1.614-3.856-2.231-5.993-.843a9.307,9.307,0,0,0-2.3,2.9,2.336,2.336,0,0,1-2.579,1.587,2,2,0,0,1-1.592-.843l-5.1-7.862A1.537,1.537,0,0,0,28.514,4.9L8.575,17.852a8.607,8.607,0,0,0-2.53,11.9Z" transform="translate(915.307 802.649)" fill="none" stroke="#009cbd" stroke-linecap="round" stroke-linejoin="round" stroke-width="2.5"/>
      <path id="パス_57132" data-name="パス 57132" d="M161.226,197.229c0,11.527.15,10.669-.276,11.521-2.514,3.143-4.165-.414-7.382-.414-4.73,0-6.212,6.089-3.656,10.349,4.645,5.225,8.176-2.914,11.038,1.38.429.858.276-.006.276,12.142" transform="translate(811.496 663.836)" fill="none" stroke="#009cbd" stroke-linecap="round" stroke-linejoin="round" stroke-width="2.5"/>
      <path id="パス_57133" data-name="パス 57133" d="M193.641,197.16c11.528,0,10.669-.15,11.522.276,3.142,2.514-.414,4.165-.414,7.382,0,4.834,6.133,6.186,10.349,3.657,5.046-4.485-2.789-8.259,1.38-11.039.858-.429-.006-.276,12.142-.276" transform="translate(779.082 663.905)" fill="none" stroke="#009cbd" stroke-linecap="round" stroke-linejoin="round" stroke-width="2.5"/>
      <path id="パス_57134" data-name="パス 57134" d="M193.592,102.826c0,2.917-.346,3.853,1.932,4.829" transform="translate(779.129 731.885)" fill="none" stroke="#009cbd" stroke-linecap="round" stroke-linejoin="round" stroke-width="2.5"/>
      <path id="パス_57135" data-name="パス 57135" d="M220.084,114.015c1.394-.348,3.576.618,4.553,2.9" transform="translate(760.02 723.869)" fill="none" stroke="#009cbd" stroke-linecap="round" stroke-linejoin="round" stroke-width="2.5"/>
      <path id="パス_57136" data-name="パス 57136" d="M226.448,144.838a4.391,4.391,0,0,1-4.14,3.519" transform="translate(758.418 701.601)" fill="none" stroke="#009cbd" stroke-linecap="round" stroke-linejoin="round" stroke-width="2.5"/>
      <path id="パス_57137" data-name="パス 57137" d="M196.194,151.263a2.614,2.614,0,0,0-2.553,2.277v2" transform="translate(779.082 696.97)" fill="none" stroke="#009cbd" stroke-linecap="round" stroke-linejoin="round" stroke-width="2.5"/>
      <line id="線_391" data-name="線 391" y2="2.76" transform="translate(972.723 858.306)" fill="none" stroke="#009cbd" stroke-linecap="round" stroke-linejoin="round" stroke-width="2.5"/>
      <line id="線_392" data-name="線 392" x1="2.76" transform="translate(969.961 861.065)" fill="none" stroke="#009cbd" stroke-linecap="round" stroke-linejoin="round" stroke-width="2.5"/>
      <path id="パス_57138" data-name="パス 57138" d="M151.952,190.638c-1.221,0-4.277.442-4.277-2.553" transform="translate(812.215 670.428)" fill="none" stroke="#009cbd" stroke-linecap="round" stroke-linejoin="round" stroke-width="2.5"/>
      <path id="パス_57139" data-name="パス 57139" d="M144.768,157.874a4.7,4.7,0,0,0-3.518-4.139" transform="translate(816.846 695.188)" fill="none" stroke="#009cbd" stroke-linecap="round" stroke-linejoin="round" stroke-width="2.5"/>
      <path id="パス_57140" data-name="パス 57140" d="M113.325,154.476a4.581,4.581,0,0,0-2.967,4.554" transform="translate(839.113 694.654)" fill="none" stroke="#009cbd" stroke-linecap="round" stroke-linejoin="round" stroke-width="2.5"/>
      <path id="パス_57141" data-name="パス 57141" d="M103.888,190.309c-1.026,2.394-1.971,1.932-4.9,1.932" transform="translate(847.309 668.824)" fill="none" stroke="#009cbd" stroke-linecap="round" stroke-linejoin="round" stroke-width="2.5"/>
      <path id="パス_57142" data-name="パス 57142" d="M71.106,106.913h-2.76v26.1a8.875,8.875,0,0,0,8.875,8.875h52.208a8.875,8.875,0,0,0,8.875-8.875v-52.2a8.876,8.876,0,0,0-8.873-8.875h-26.1v2.828" transform="translate(869.398 754.153)" fill="none" stroke="#009cbd" stroke-linecap="round" stroke-linejoin="round" stroke-width="2.5"/>
    </g>
  </g>
</svg>
