<svg xmlns="http://www.w3.org/2000/svg" width="80" height="59" viewBox="0 0 80 59">
  <g id="グループ_70347" data-name="グループ 70347" transform="translate(20715 5764)">
    <rect id="長方形_27255" data-name="長方形 27255" width="80" height="59" transform="translate(-20715 -5764)" fill="none"/>
    <g id="グループ_70342" data-name="グループ 70342" transform="translate(-20777.152 -6236.47)">
      <path id="パス_57153" data-name="パス 57153" d="M29.258,409.542H34.35l-.894-.681,1.159,6.318,1.847,10.067.423,2.306.894-1.173H2.414c-.476,0-.964-.033-1.439,0-.02,0-.041,0-.061,0l.894,1.173,1.159-6.318,1.847-10.067.423-2.306-.894.681h4.91a.928.928,0,0,0,0-1.854H4.342a.937.937,0,0,0-.894.681l-1.159,6.318L.442,424.753l-.423,2.306a.941.941,0,0,0,.894,1.173H33.239c1.49,0,2.99.05,4.479,0h.061a.941.941,0,0,0,.894-1.173l-1.159-6.318-1.847-10.067-.423-2.306a.933.933,0,0,0-.894-.681H29.258a.928.928,0,0,0,0,1.854" transform="translate(83.152 99.745)" fill="#009cbd"/>
      <path id="パス_57154" data-name="パス 57154" d="M73.976,0a16.816,16.816,0,0,0-7.255,1.674,14.367,14.367,0,0,0-5.306,4.55,12.531,12.531,0,0,0-2.261,6.528,15.109,15.109,0,0,0,1,5.725,88.136,88.136,0,0,0,4.641,10.568c1.718,3.446,3.536,6.843,5.414,10.2q.969,1.735,1.965,3.455c.3.517.585,1.056.924,1.55a.962.962,0,0,0,1.289.359h-.936c.991.526,1.475-.649,1.864-1.312q.886-1.506,1.74-3.029,2.729-4.836,5.26-9.782a108.849,108.849,0,0,0,4.924-10.784,21.409,21.409,0,0,0,1.322-4.667,12.379,12.379,0,0,0-1.226-7.294A14.775,14.775,0,0,0,75.829.112,15.891,15.891,0,0,0,73.976,0a.928.928,0,0,0,0,1.854A14.077,14.077,0,0,1,80.5,3.443a12.373,12.373,0,0,1,4.567,4.086,10.525,10.525,0,0,1,1.775,5.838,15.018,15.018,0,0,1-1.075,4.985c-.277.779-.576,1.55-.89,2.315q-.116.283-.234.564c-.084.2.018-.04-.068.16l-.149.347q-.272.63-.553,1.256c-.8,1.779-1.644,3.537-2.516,5.281-1.662,3.325-3.416,6.6-5.226,9.849-.961,1.723-1.954,3.426-2.952,5.127-.142.243.2-.207.268-.239h.936a.974.974,0,0,0-.937,0h.936c.075.036.406.474.265.234-.047-.08-.1-.157-.145-.236-.175-.29-.347-.582-.518-.875q-.9-1.537-1.769-3.09-2.641-4.694-5.1-9.49c-.9-1.77-1.778-3.554-2.613-5.357q-.593-1.281-1.152-2.577l-.131-.308c-.042-.1.007.017.013.031l-.064-.152q-.133-.318-.264-.638-.243-.6-.473-1.2a22.857,22.857,0,0,1-1.266-4.065,11.051,11.051,0,0,1-.177-2.13q.007-.383.04-.764c.012-.134.025-.269.042-.4.021-.166-.017.112.007-.053q.018-.124.04-.248a11.351,11.351,0,0,1,.379-1.545,8.636,8.636,0,0,1,.556-1.378A12.9,12.9,0,0,1,72.28,1.935c.566-.058,1.129-.068,1.7-.08a.928.928,0,0,0,0-1.854" transform="translate(28.582 475.939)" fill="#009cbd"/>
      <path id="パス_57155" data-name="パス 57155" d="M157.61,97.532a6.553,6.553,0,0,1-4.247,6.086,6.494,6.494,0,0,1-7.252-1.988,6.6,6.6,0,0,1-1.436-3.56,6.445,6.445,0,0,1,.934-3.923,6.477,6.477,0,0,1,12,3.385.928.928,0,0,0,1.854,0,8.332,8.332,0,1,0-6.605,8.15,8.439,8.439,0,0,0,6.605-8.15.928.928,0,0,0-1.854,0" transform="translate(-48.635 393.626)" fill="#009cbd"/>
      <path id="パス_57156" data-name="パス 57156" d="M314.354,480.072a3.525,3.525,0,0,0-4.094-2.13,6.26,6.26,0,0,0-2.508,1.19,15.068,15.068,0,0,0-2.147,1.818c-1.2,1.285-1.984,3.3-.941,4.927a4.949,4.949,0,0,0,.817.9c.065.062.13.124.192.189.017.018.147.186.084.094.111.162.06.08.038.048.077.11-.009.1.038-.008a.76.76,0,0,1-.529.376c-.481.135-.985.141-1.469.259a3.5,3.5,0,0,0-2.434,4.411.949.949,0,0,0,1.14.647.936.936,0,0,0,.647-1.14,1.52,1.52,0,0,1,.122-1.362,1.6,1.6,0,0,1,1.3-.825,4.35,4.35,0,0,0,2.349-.828,1.953,1.953,0,0,0,.476-2.383c-.313-.593-1.019-.947-1.276-1.5a1.956,1.956,0,0,1,.052-1.456,4.845,4.845,0,0,1,1.351-1.648,12.588,12.588,0,0,1,1.846-1.391,4.074,4.074,0,0,1,1.157-.487c.084-.02.172-.04.257-.051-.134.018.165,0,.161,0,.069,0,.138,0,.206,0,0,0,.284.037.164.015a1.794,1.794,0,0,1,.815.316,1.143,1.143,0,0,1,.4.516.948.948,0,0,0,1.14.647.936.936,0,0,0,.647-1.14" transform="translate(-194.807 34.98)" fill="#009cbd"/>
      <path id="パス_57157" data-name="パス 57157" d="M39.914,453.585c.381,1.607,1.151,3.432,3.042,3.6a5.951,5.951,0,0,0,2.189-.6.636.636,0,0,1,.555.058,4.249,4.249,0,0,1,.8.5,2.357,2.357,0,0,1,1.056,1.534.989.989,0,0,1-.116.54,3.118,3.118,0,0,1-.685.64A3.1,3.1,0,0,0,45.5,461.9a6.718,6.718,0,0,0,.338,2.586,3.389,3.389,0,0,1,.142,1.25,2.452,2.452,0,0,1-.295.825,2.375,2.375,0,0,1-1.479,1.135.928.928,0,0,0,.493,1.788,4.258,4.258,0,0,0,3.1-3.462,7.042,7.042,0,0,0-.352-2.717,1.74,1.74,0,0,1,.281-1.848,4.506,4.506,0,0,0,1.558-1.832,3.187,3.187,0,0,0-.341-2.535,5.5,5.5,0,0,0-1.8-1.761,3.023,3.023,0,0,0-2.43-.547c-.41.106-.8.33-1.173.462a.738.738,0,0,1-.792-.03c-.681-.405-.861-1.372-1.039-2.12-.275-1.16-2.063-.669-1.788.493" transform="translate(46.348 58.459)" fill="#009cbd"/>
    </g>
  </g>
</svg>
