<svg id="グループ_56130" data-name="グループ 56130" xmlns="http://www.w3.org/2000/svg" xmlns:xlink="http://www.w3.org/1999/xlink" width="157.987" height="137.348" viewBox="0 0 157.987 137.348">
  <defs>
    <clipPath id="clip-path">
      <path id="パス_75362" data-name="パス 75362" d="M302.718,276.294l15.53-.5.057,12.31-15.53.5Z" transform="translate(-302.718 -275.796)" fill="none"/>
    </clipPath>
  </defs>
  <rect id="長方形_26670" data-name="長方形 26670" width="157.988" height="137.347" fill="none"/>
  <g id="グループ_56129" data-name="グループ 56129" transform="translate(15.785 6.271)">
    <g id="グループ_56079" data-name="グループ 56079" transform="translate(9.013 16.37)">
      <g id="グループ_56071" data-name="グループ 56071">
        <g id="グループ_56070" data-name="グループ 56070">
          <path id="パス_75348" data-name="パス 75348" d="M309.173,280.515l-17.164.55-.065-13.96,17.164-.55Z" transform="translate(-291.945 -266.555)" fill="#090962"/>
          <path id="パス_75349" data-name="パス 75349" d="M301.609,277.074l15.53-.5.057,12.31-15.53.5Z" transform="translate(-300.789 -275.725)" fill="#dea353"/>
        </g>
      </g>
      <g id="グループ_56078" data-name="グループ 56078" transform="translate(0.915 0.785)">
        <g id="グループ_56077" data-name="グループ 56077" clip-path="url(#clip-path)">
          <g id="グループ_56076" data-name="グループ 56076" transform="translate(-9.214 -13.562)">
            <g id="グループ_56074" data-name="グループ 56074" transform="translate(15.564 16.678)">
              <g id="グループ_56072" data-name="グループ 56072">
                <path id="パス_75350" data-name="パス 75350" d="M380.427,316.464l-.59,1.586-1.687.046-.671-1.605,1.436-4,0-.009,0,2.9a.008.008,0,0,0-.006,0,.523.523,0,0,0-.419.468.452.452,0,0,0,.465.455.482.482,0,0,0,.465-.48.415.415,0,0,0-.421-.454.1.1,0,0,0-.026,0l.018-2.893Z" transform="translate(-377.479 -312.48)" fill="#fff"/>
                <path id="パス_75351" data-name="パス 75351" d="M391.072,366.587l-.067-.159a1.26,1.26,0,0,0,.326.034,1.288,1.288,0,0,0,.386-.071l-.067.18Z" transform="translate(-389.856 -361.812)" fill="#fff"/>
              </g>
              <g id="グループ_56073" data-name="グループ 56073" transform="translate(0.509 5.803)">
                <path id="パス_75352" data-name="パス 75352" d="M383.7,380.842a17.38,17.38,0,0,0-.2,2.278,17.264,17.264,0,0,1,2.162-.059c-.054.073-.3-2.265-.3-2.265Z" transform="translate(-383.477 -380.797)" fill="#fff"/>
                <path id="パス_75353" data-name="パス 75353" d="M393.785,391.346c.017-.163.04-.36.068-.6l.206-.005c.025.225.048.419.069.587Z" transform="translate(-392.909 -389.9)" fill="#fff"/>
              </g>
            </g>
            <g id="グループ_56075" data-name="グループ 56075">
              <path id="パス_75354" data-name="パス 75354" d="M215.262,132.589q-.167,0-.333.006a.122.122,0,0,1-.123-.126.135.135,0,0,1,.128-.127c.495,0,1-.03,1.489-.079a.123.123,0,0,1,.134.113.13.13,0,0,1-.116.138C216.052,132.553,215.655,132.578,215.262,132.589Zm-1.828-.054h-.014c-.5-.044-1-.112-1.493-.2a.123.123,0,0,1-.1-.147.129.129,0,0,1,.148-.1c.484.089.978.156,1.47.2a.122.122,0,0,1,.11.137A.13.13,0,0,1,213.434,132.535Zm4.489-.241a.121.121,0,0,1-.123-.1.13.13,0,0,1,.1-.148c.488-.1.978-.216,1.456-.357a.121.121,0,0,1,.153.086.13.13,0,0,1-.089.157c-.485.143-.983.265-1.479.363Zm-7.424-.3a.123.123,0,0,1-.037,0c-.48-.137-.959-.3-1.422-.483a.124.124,0,0,1-.067-.164.128.128,0,0,1,.164-.072c.456.18.928.34,1.4.475a.123.123,0,0,1,.082.156A.13.13,0,0,1,210.5,131.993Zm10.323-.556a.121.121,0,0,1-.117-.079.13.13,0,0,1,.074-.164c.464-.186.925-.4,1.371-.625a.122.122,0,0,1,.167.055.13.13,0,0,1-.059.17c-.453.232-.922.446-1.393.634A.126.126,0,0,1,220.822,131.438Zm-13.091-.535a.123.123,0,0,1-.059-.013c-.443-.226-.881-.477-1.3-.745a.128.128,0,0,1,.138-.215c.413.264.844.511,1.28.734a.125.125,0,0,1,.052.17A.129.129,0,0,1,207.731,130.9Zm15.794-.85a.121.121,0,0,1-.107-.058.129.129,0,0,1,.043-.175c.424-.269.841-.562,1.239-.869a.123.123,0,0,1,.175.022.129.129,0,0,1-.026.178c-.4.312-.828.609-1.258.883A.126.126,0,0,1,223.525,130.052Zm-18.3-.749a.12.12,0,0,1-.078-.026c-.392-.307-.773-.637-1.135-.98a.127.127,0,0,1,0-.179.125.125,0,0,1,.177-.008c.356.338.731.663,1.117.965a.126.126,0,0,1,.019.177A.128.128,0,0,1,205.227,129.3Zm20.712-1.114a.121.121,0,0,1-.093-.04.128.128,0,0,1,.01-.179c.369-.343.727-.707,1.064-1.082a.125.125,0,0,1,.177-.011.127.127,0,0,1,.006.179c-.342.381-.706.75-1.081,1.1A.127.127,0,0,1,225.939,128.189Zm-22.866-.934a.121.121,0,0,1-.1-.042c-.327-.377-.64-.774-.929-1.18a.128.128,0,0,1,.03-.177.123.123,0,0,1,.174.025c.286.4.594.791.915,1.162a.129.129,0,0,1-.1.211Zm24.909-1.34a.122.122,0,0,1-.076-.024.126.126,0,0,1-.023-.177c.3-.4.589-.827.853-1.257a.126.126,0,0,1,.173-.044.125.125,0,0,1,.039.173c-.268.437-.559.866-.866,1.277A.128.128,0,0,1,227.982,125.915Zm-26.639-1.087a.121.121,0,0,1-.109-.06c-.25-.433-.483-.884-.691-1.34a.13.13,0,0,1,.062-.169.122.122,0,0,1,.166.058c.2.449.434.893.68,1.319a.129.129,0,0,1-.046.174A.126.126,0,0,1,201.343,124.827Zm28.239-1.519a.121.121,0,0,1-.056-.012.124.124,0,0,1-.055-.168c.224-.452.429-.919.61-1.389a.128.128,0,0,1,.162-.076.124.124,0,0,1,.071.162c-.184.477-.392.952-.619,1.411A.13.13,0,0,1,229.581,123.309Zm-29.482-1.2a.121.121,0,0,1-.118-.082c-.164-.475-.308-.964-.427-1.454a.13.13,0,0,1,.092-.155.122.122,0,0,1,.151.089c.117.482.259.964.42,1.431a.13.13,0,0,1-.077.163A.127.127,0,0,1,200.1,122.106Zm30.579-1.646a.121.121,0,0,1-.035,0,.123.123,0,0,1-.086-.154c.137-.483.253-.979.344-1.473a.129.129,0,0,1,.146-.1.123.123,0,0,1,.1.145c-.093.5-.211,1-.35,1.5A.13.13,0,0,1,230.679,120.46Zm.5-2.558a.12.12,0,0,1-.035,0,.122.122,0,0,1-.12-.129c.022-.5.02-1.005,0-1.5a.13.13,0,0,1,.119-.136.122.122,0,0,1,.131.116c.025.506.027,1.02.005,1.528A.131.131,0,0,1,231.175,117.9Zm-31.785,1.281a.121.121,0,0,1-.124-.1c-.073-.5-.122-1.01-.148-1.516a.13.13,0,0,1,.119-.136.123.123,0,0,1,.132.116c.025.5.074,1,.146,1.493a.13.13,0,0,1-.106.146Z" transform="translate(-198.704 -116.137)" fill="#fff"/>
              <path id="パス_75355" data-name="パス 75355" d="M215.262,132.589q-.167,0-.333.006a.122.122,0,0,1-.123-.126.135.135,0,0,1,.128-.127c.495,0,1-.03,1.489-.079a.123.123,0,0,1,.134.113.13.13,0,0,1-.116.138C216.052,132.553,215.655,132.578,215.262,132.589Zm-1.828-.054h-.014c-.5-.044-1-.112-1.493-.2a.123.123,0,0,1-.1-.147.129.129,0,0,1,.148-.1c.484.089.978.156,1.47.2a.122.122,0,0,1,.11.137A.13.13,0,0,1,213.434,132.535Zm4.489-.241a.121.121,0,0,1-.123-.1.13.13,0,0,1,.1-.148c.488-.1.978-.216,1.456-.357a.121.121,0,0,1,.153.086.13.13,0,0,1-.089.157c-.485.143-.983.265-1.479.363Zm-7.424-.3a.123.123,0,0,1-.037,0c-.48-.137-.959-.3-1.422-.483a.124.124,0,0,1-.067-.164.128.128,0,0,1,.164-.072c.456.18.928.34,1.4.475a.123.123,0,0,1,.082.156A.13.13,0,0,1,210.5,131.993Zm10.323-.556a.121.121,0,0,1-.117-.079.13.13,0,0,1,.074-.164c.464-.186.925-.4,1.371-.625a.122.122,0,0,1,.167.055.13.13,0,0,1-.059.17c-.453.232-.922.446-1.393.634A.126.126,0,0,1,220.822,131.438Zm-13.091-.535a.123.123,0,0,1-.059-.013c-.443-.226-.881-.477-1.3-.745a.128.128,0,0,1,.138-.215c.413.264.844.511,1.28.734a.125.125,0,0,1,.052.17A.129.129,0,0,1,207.731,130.9Zm15.794-.85a.121.121,0,0,1-.107-.058.129.129,0,0,1,.043-.175c.424-.269.841-.562,1.239-.869a.123.123,0,0,1,.175.022.129.129,0,0,1-.026.178c-.4.312-.828.609-1.258.883A.126.126,0,0,1,223.525,130.052Zm-18.3-.749a.12.12,0,0,1-.078-.026c-.392-.307-.773-.637-1.135-.98a.127.127,0,0,1,0-.179.125.125,0,0,1,.177-.008c.356.338.731.663,1.117.965a.126.126,0,0,1,.019.177A.128.128,0,0,1,205.227,129.3Zm20.712-1.114a.121.121,0,0,1-.093-.04.128.128,0,0,1,.01-.179c.369-.343.727-.707,1.064-1.082a.125.125,0,0,1,.177-.011.127.127,0,0,1,.006.179c-.342.381-.706.75-1.081,1.1A.127.127,0,0,1,225.939,128.189Zm-22.866-.934a.121.121,0,0,1-.1-.042c-.327-.377-.64-.774-.929-1.18a.128.128,0,0,1,.03-.177.123.123,0,0,1,.174.025c.286.4.594.791.915,1.162a.129.129,0,0,1-.1.211Zm24.909-1.34a.122.122,0,0,1-.076-.024.126.126,0,0,1-.023-.177c.3-.4.589-.827.853-1.257a.126.126,0,0,1,.173-.044.125.125,0,0,1,.039.173c-.268.437-.559.866-.866,1.277A.128.128,0,0,1,227.982,125.915Zm-26.639-1.087a.121.121,0,0,1-.109-.06c-.25-.433-.483-.884-.691-1.34a.13.13,0,0,1,.062-.169.122.122,0,0,1,.166.058c.2.449.434.893.68,1.319a.129.129,0,0,1-.046.174A.126.126,0,0,1,201.343,124.827Zm28.239-1.519a.121.121,0,0,1-.056-.012.124.124,0,0,1-.055-.168c.224-.452.429-.919.61-1.389a.128.128,0,0,1,.162-.076.124.124,0,0,1,.071.162c-.184.477-.392.952-.619,1.411A.13.13,0,0,1,229.581,123.309Zm-29.482-1.2a.121.121,0,0,1-.118-.082c-.164-.475-.308-.964-.427-1.454a.13.13,0,0,1,.092-.155.122.122,0,0,1,.151.089c.117.482.259.964.42,1.431a.13.13,0,0,1-.077.163A.127.127,0,0,1,200.1,122.106Zm30.579-1.646a.121.121,0,0,1-.035,0,.123.123,0,0,1-.086-.154c.137-.483.253-.979.344-1.473a.129.129,0,0,1,.146-.1.123.123,0,0,1,.1.145c-.093.5-.211,1-.35,1.5A.13.13,0,0,1,230.679,120.46Zm.5-2.558a.12.12,0,0,1-.035,0,.122.122,0,0,1-.12-.129c.022-.5.02-1.005,0-1.5a.13.13,0,0,1,.119-.136.122.122,0,0,1,.131.116c.025.506.027,1.02.005,1.528A.131.131,0,0,1,231.175,117.9Zm-31.785,1.281a.121.121,0,0,1-.124-.1c-.073-.5-.122-1.01-.148-1.516a.13.13,0,0,1,.119-.136.123.123,0,0,1,.132.116c.025.5.074,1,.146,1.493a.13.13,0,0,1-.106.146Z" transform="translate(-198.704 -116.137)" fill="#fff"/>
              <path id="パス_75356" data-name="パス 75356" d="M195.318,126.936a.561.561,0,0,1-.54.56.525.525,0,0,1-.54-.53.561.561,0,0,1,.54-.56A.525.525,0,0,1,195.318,126.936Z" transform="translate(-194.239 -125.533)" fill="#fff"/>
              <path id="パス_75357" data-name="パス 75357" d="M195.318,126.936a.561.561,0,0,1-.54.56.525.525,0,0,1-.54-.53.561.561,0,0,1,.54-.56A.525.525,0,0,1,195.318,126.936Z" transform="translate(-194.239 -125.533)" fill="#fff"/>
              <path id="パス_75358" data-name="パス 75358" d="M389.557,301.768a.561.561,0,0,1-.54.56.525.525,0,0,1-.54-.53.561.561,0,0,1,.54-.56A.525.525,0,0,1,389.557,301.768Z" transform="translate(-371.979 -285.515)" fill="#fff"/>
              <path id="パス_75359" data-name="パス 75359" d="M389.557,301.768a.561.561,0,0,1-.54.56.525.525,0,0,1-.54-.53.561.561,0,0,1,.54-.56A.525.525,0,0,1,389.557,301.768Z" transform="translate(-371.979 -285.515)" fill="#fff"/>
              <path id="パス_75360" data-name="パス 75360" d="M570.971,116.663a.561.561,0,0,1-.54.56.525.525,0,0,1-.54-.53.561.561,0,0,1,.54-.56A.525.525,0,0,1,570.971,116.663Z" transform="translate(-537.984 -116.133)" fill="#fff"/>
              <path id="パス_75361" data-name="パス 75361" d="M570.971,116.663a.561.561,0,0,1-.54.56.525.525,0,0,1-.54-.53.561.561,0,0,1,.54-.56A.525.525,0,0,1,570.971,116.663Z" transform="translate(-537.984 -116.133)" fill="#fff"/>
            </g>
          </g>
        </g>
      </g>
    </g>
    <g id="グループ_56083" data-name="グループ 56083" transform="translate(74.512)">
      <g id="グループ_56080" data-name="グループ 56080" transform="translate(0 3.082)">
        <path id="パス_75363" data-name="パス 75363" d="M1065.867,146.448a.049.049,0,0,1-.044-.027c-.178-.352-.35-.713-.511-1.074a.05.05,0,0,1,.025-.066.049.049,0,0,1,.066.024c.161.359.332.719.509,1.07a.05.05,0,0,1-.022.067A.049.049,0,0,1,1065.867,146.448Zm-.97-2.167a.049.049,0,0,1-.046-.031c-.144-.367-.281-.743-.409-1.118a.05.05,0,0,1,.031-.063.05.05,0,0,1,.063.03c.127.374.264.749.407,1.114a.05.05,0,0,1-.028.065A.051.051,0,0,1,1064.9,144.281Zm20.051-2.292a.049.049,0,0,1-.05-.047.051.051,0,0,1,.048-.053c.364-.02.741-.061,1.123-.12l.061-.01a.049.049,0,0,1,.057.041.05.05,0,0,1-.042.057l-.061.01c-.385.06-.766.1-1.133.121Zm-1.194-.006h0a7.46,7.46,0,0,1-1.186-.177.049.049,0,0,1-.036-.06.05.05,0,0,1,.06-.037,7.382,7.382,0,0,0,1.17.174.049.049,0,0,1,.045.053A.05.05,0,0,1,1083.754,141.983Zm-19.621.048a.049.049,0,0,1-.048-.035c-.11-.38-.212-.767-.3-1.152a.05.05,0,0,1,.037-.06.049.049,0,0,1,.06.036c.092.383.194.77.3,1.148a.05.05,0,0,1-.034.062Zm23.176-.412a.049.049,0,0,1-.049-.038.05.05,0,0,1,.037-.06c.387-.1.772-.212,1.144-.341a.049.049,0,0,1,.063.03.05.05,0,0,1-.031.063c-.375.131-.762.246-1.152.344Zm-5.857-.2a.048.048,0,0,1-.021,0,5.026,5.026,0,0,1-.868-.514c-.051-.037-.1-.076-.149-.115a.05.05,0,0,1,.063-.078q.072.057.146.113a4.922,4.922,0,0,0,.852.5.049.049,0,0,1,.023.066A.051.051,0,0,1,1081.452,141.422Zm8.118-.593a.049.049,0,0,1-.046-.029.05.05,0,0,1,.025-.066c.365-.167.722-.352,1.061-.55a.049.049,0,0,1,.068.018.05.05,0,0,1-.019.068c-.342.2-.7.386-1.07.554A.051.051,0,0,1,1089.57,140.829Zm-9.95-.878a.049.049,0,0,1-.04-.019,5.6,5.6,0,0,1-.616-1.024.05.05,0,0,1,.024-.066.049.049,0,0,1,.066.023,5.5,5.5,0,0,0,.6,1.006.05.05,0,0,1-.01.07A.051.051,0,0,1,1079.62,139.951Zm12.019-.332a.049.049,0,0,1-.04-.02.05.05,0,0,1,.011-.07,10.505,10.505,0,0,0,.921-.762.049.049,0,1,1,.067.072,10.565,10.565,0,0,1-.929.769A.05.05,0,0,1,1091.639,139.618Zm-28.06.1a.049.049,0,0,1-.048-.04c-.075-.388-.141-.784-.2-1.176a.05.05,0,0,1,.1-.015c.056.391.122.785.2,1.172a.051.051,0,0,1-.04.059Zm29.813-1.734a.049.049,0,0,1-.038-.081,8.894,8.894,0,0,0,.7-.963.05.05,0,0,1,.069-.016.049.049,0,0,1,.015.068,9.019,9.019,0,0,1-.713.974A.05.05,0,0,1,1093.392,137.984Zm-14.784-.164a.049.049,0,0,1-.048-.036,8.336,8.336,0,0,1-.222-1.176.05.05,0,0,1,.1-.013,8.219,8.219,0,0,0,.219,1.162.05.05,0,0,1-.035.061Zm-15.368-.458a.049.049,0,0,1-.049-.044c-.038-.4-.068-.8-.088-1.191a.051.051,0,0,1,.047-.053.047.047,0,0,1,.052.046c.02.393.049.792.088,1.186a.05.05,0,0,1-.045.055Zm31.435-1.4a.049.049,0,0,1-.045-.07,8.976,8.976,0,0,0,.428-1.111.05.05,0,0,1,.062-.033.049.049,0,0,1,.033.062,9.11,9.11,0,0,1-.432,1.124A.051.051,0,0,1,1094.674,135.963Zm-16.352-.5h0a.049.049,0,0,1-.05-.049,11.067,11.067,0,0,1,.072-1.2.051.051,0,0,1,.055-.045.049.049,0,0,1,.044.055,10.962,10.962,0,0,0-.071,1.185A.05.05,0,0,1,1078.322,135.461Zm-15.2-.481a.049.049,0,0,1-.05-.049v-.1q0-.2,0-.409c0-.233.011-.464.021-.686a.05.05,0,0,1,.052-.048.049.049,0,0,1,.047.051c-.01.222-.017.452-.021.683q0,.2,0,.407v.1a.05.05,0,0,1-.05.05Zm32.26-1.3h-.008a.049.049,0,0,1-.041-.057,8.047,8.047,0,0,0,.1-1.181.048.048,0,0,1,.051-.05.049.049,0,0,1,.049.05,8.133,8.133,0,0,1-.106,1.2A.05.05,0,0,1,1095.379,133.682Zm-16.79-.591h-.01a.049.049,0,0,1-.039-.058c.082-.388.182-.779.3-1.163a.051.051,0,0,1,.062-.034.049.049,0,0,1,.034.061c-.113.381-.212.77-.293,1.156A.051.051,0,0,1,1078.589,133.091Zm-15.356-.494h-.005a.049.049,0,0,1-.044-.054c.043-.406.1-.805.168-1.187a.051.051,0,0,1,.058-.041.049.049,0,0,1,.04.057c-.068.379-.124.776-.167,1.18A.051.051,0,0,1,1063.233,132.6Zm32.173-1.292a.049.049,0,0,1-.049-.042,6.9,6.9,0,0,0-.268-1.142l.045-.023.048-.015-.048.015.049-.011a7.009,7.009,0,0,1,.273,1.16.051.051,0,0,1-.042.057Zm-16.138-.508a.049.049,0,0,1-.047-.067c.143-.372.3-.744.474-1.1a.05.05,0,0,1,.066-.024.049.049,0,0,1,.024.066c-.171.359-.329.729-.471,1.1A.05.05,0,0,1,1079.268,130.8Zm-15.611-.552h-.013a.049.049,0,0,1-.035-.06c.1-.395.226-.78.362-1.146a.05.05,0,0,1,.064-.03.049.049,0,0,1,.029.064c-.134.363-.255.745-.359,1.137A.051.051,0,0,1,1063.657,130.246Zm31.013-1.189a.049.049,0,0,1-.044-.026,7.982,7.982,0,0,0-.624-1,.05.05,0,0,1,.081-.059,8.077,8.077,0,0,1,.631,1.012.05.05,0,0,1-.021.067A.051.051,0,0,1,1094.67,129.057Zm-14.375-.424a.048.048,0,0,1-.025-.006.049.049,0,0,1-.018-.068c.2-.346.411-.69.635-1.022a.05.05,0,0,1,.069-.014.049.049,0,0,1,.013.069c-.223.33-.435.672-.631,1.016A.051.051,0,0,1,1080.295,128.634Zm-15.8-.628a.049.049,0,0,1-.044-.071,9.959,9.959,0,0,1,.527-.926l.077-.118a.05.05,0,0,1,.069-.015.049.049,0,0,1,.014.069l-.076.116a9.854,9.854,0,0,0-.521.916A.05.05,0,0,1,1064.494,128.006Zm28.788-.863a.049.049,0,0,1-.036-.015,10.14,10.14,0,0,0-.864-.8.05.05,0,0,1,.064-.077,10.208,10.208,0,0,1,.872.812.05.05,0,0,1,0,.07A.051.051,0,0,1,1093.282,127.142Zm-11.645-.5a.049.049,0,0,1-.031-.01.05.05,0,0,1-.008-.07c.248-.314.511-.623.782-.916a.049.049,0,1,1,.073.067c-.269.292-.53.6-.777.911A.051.051,0,0,1,1081.636,126.645Zm-15.817-.633a.049.049,0,0,1-.032-.012.05.05,0,0,1-.005-.07,10.41,10.41,0,0,1,.84-.866.049.049,0,1,1,.067.073,10.241,10.241,0,0,0-.832.858A.05.05,0,0,1,1065.819,126.012Zm25.643-.385a.049.049,0,0,1-.028-.008c-.176-.117-.359-.232-.544-.341-.153-.09-.312-.179-.472-.265a.05.05,0,0,1-.02-.067.051.051,0,0,1,.068-.02c.161.087.321.177.475.267.186.11.37.225.548.344a.049.049,0,0,1,.013.069A.05.05,0,0,1,1091.462,125.626Zm-8.2-.747a.049.049,0,0,1-.037-.016.05.05,0,0,1,0-.07c.293-.273.6-.538.912-.787a.049.049,0,1,1,.062.077c-.31.247-.615.51-.906.782A.05.05,0,0,1,1083.262,124.879Zm6.113-.382a.048.048,0,0,1-.021,0c-.346-.153-.716-.3-1.1-.443a.049.049,0,0,1-.029-.064.05.05,0,0,1,.064-.03c.386.142.758.292,1.106.445a.049.049,0,0,1,.025.065A.05.05,0,0,1,1089.374,124.5Zm-21.792-.11a.049.049,0,0,1-.029-.09,12.008,12.008,0,0,1,1.006-.664.049.049,0,0,1,.068.017.05.05,0,0,1-.018.068,11.948,11.948,0,0,0-1,.658A.051.051,0,0,1,1067.582,124.388Zm19.563-.717-.015,0c-.357-.112-.73-.222-1.141-.335a.049.049,0,0,1-.034-.061.05.05,0,0,1,.062-.035c.412.114.786.224,1.144.336a.049.049,0,0,1,.032.062A.051.051,0,0,1,1087.145,123.671Zm-2.005-.286a.049.049,0,0,1-.042-.022.05.05,0,0,1,.014-.069q.117-.079.235-.155c.25-.162.516-.323.789-.479a.049.049,0,0,1,.068.018.05.05,0,0,1-.019.068c-.272.155-.536.316-.784.477q-.117.076-.233.154A.049.049,0,0,1,1085.14,123.385Zm-.288-.353-.013,0-.107-.027c-.37-.093-.713-.177-1.049-.257a.049.049,0,0,1-.036-.06.051.051,0,0,1,.06-.037c.337.08.68.164,1.05.257l.107.027a.049.049,0,0,1,.035.06A.05.05,0,0,1,1084.852,123.032Zm-15.207.134a.049.049,0,0,1-.045-.028.05.05,0,0,1,.024-.066c.358-.169.731-.325,1.11-.466a.049.049,0,0,1,.064.029.05.05,0,0,1-.03.064c-.376.139-.747.295-1.1.462A.049.049,0,0,1,1069.645,123.166Zm12.888-.68h-.011c-.4-.085-.792-.164-1.167-.234a.049.049,0,0,1-.039-.058.05.05,0,0,1,.059-.04c.376.07.769.148,1.17.234a.049.049,0,0,1,.037.059A.051.051,0,0,1,1082.533,122.485Zm4.686-.3a.049.049,0,0,1-.045-.027.05.05,0,0,1,.023-.067c.338-.169.694-.337,1.087-.513a.049.049,0,0,1,.065.025.05.05,0,0,1-.026.066c-.392.176-.746.343-1.083.512A.049.049,0,0,1,1087.219,122.188Zm-15.328.145a.049.049,0,0,1-.048-.036.051.051,0,0,1,.035-.061c.383-.107.777-.2,1.17-.277a.049.049,0,0,1,.058.039.051.051,0,0,1-.04.058c-.39.076-.781.169-1.162.275Zm8.3-.279h-.008c-.4-.06-.8-.112-1.18-.154a.049.049,0,0,1-.043-.055.051.051,0,0,1,.055-.044c.383.042.782.094,1.184.155a.049.049,0,0,1,.041.057A.05.05,0,0,1,1080.189,122.053Zm-5.95-.18a.049.049,0,0,1-.049-.044.05.05,0,0,1,.044-.055c.39-.045.792-.079,1.195-.1a.047.047,0,0,1,.052.047.051.051,0,0,1-.048.052c-.4.02-.8.053-1.188.1Zm3.579-.078h0c-.4-.025-.8-.04-1.19-.044a.049.049,0,0,1-.049-.05.053.053,0,0,1,.051-.049c.389,0,.792.019,1.2.044a.049.049,0,0,1,.046.053A.051.051,0,0,1,1077.818,121.8Zm11.587-.6a.049.049,0,0,1-.046-.03.05.05,0,0,1,.027-.065c.369-.155.739-.307,1.109-.46a.049.049,0,0,1,.065.027.05.05,0,0,1-.028.065c-.37.152-.74.3-1.108.459A.05.05,0,0,1,1089.4,121.2Zm2.216-.919a.049.049,0,0,1-.046-.03.05.05,0,0,1,.027-.065c.413-.174.773-.33,1.1-.477a.05.05,0,0,1,.066.025.05.05,0,0,1-.026.066c-.328.147-.688.3-1.1.478A.05.05,0,0,1,1091.621,120.279Zm2.186-.99a.049.049,0,0,1-.045-.027.05.05,0,0,1,.023-.067c.188-.094.373-.189.551-.284s.339-.184.506-.279a.049.049,0,0,1,.068.018.05.05,0,0,1-.019.068c-.168.1-.339.19-.508.28s-.365.191-.554.285A.049.049,0,0,1,1093.807,119.29Zm2.085-1.188a.049.049,0,0,1-.042-.023.05.05,0,0,1,.015-.069c.333-.216.665-.445.986-.68a.049.049,0,1,1,.058.08c-.322.236-.656.466-.991.684A.051.051,0,0,1,1095.892,118.1Zm1.937-1.419a.049.049,0,0,1-.039-.018.05.05,0,0,1,.007-.07c.307-.253.611-.517.9-.787a.049.049,0,1,1,.067.073c-.294.271-.6.537-.908.791A.05.05,0,0,1,1097.829,116.682Zm1.766-1.627a.049.049,0,0,1-.036-.084c.277-.285.549-.582.81-.883a.049.049,0,1,1,.075.065c-.262.3-.536.6-.814.887A.049.049,0,0,1,1099.6,115.055Zm1.573-1.813a.049.049,0,0,1-.031-.01.05.05,0,0,1-.009-.07c.244-.315.481-.64.706-.967a.05.05,0,0,1,.069-.014.05.05,0,0,1,.013.069c-.226.329-.465.656-.71.972A.051.051,0,0,1,1101.169,113.242Zm1.359-1.977a.05.05,0,0,1-.026-.007.049.049,0,0,1-.016-.068c.207-.341.406-.691.591-1.04a.051.051,0,0,1,.068-.021.049.049,0,0,1,.021.067c-.186.351-.386.7-.594,1.045A.05.05,0,0,1,1102.528,111.264Z" transform="translate(-1063.069 -110.122)" fill="#090962"/>
      </g>
      <g id="グループ_56082" data-name="グループ 56082" transform="translate(33.515)">
        <g id="グループ_56081" data-name="グループ 56081">
          <path id="パス_75364" data-name="パス 75364" d="M1491.367,84.71c-.024-.009-.054,1.118-.069,1.773a.272.272,0,0,0,.4.246l2.314-1.2,5.868-6.34Z" transform="translate(-1488.439 -78.738)" fill="#bba235"/>
          <path id="パス_75365" data-name="パス 75365" d="M1457.671,78.728l3.051,1.161a.039.039,0,0,0,.035,0l7-4.536a.039.039,0,0,1,.045.063l-5.631,4.556a.039.039,0,0,0,.005.064l3.544,1.977a.039.039,0,0,0,.054-.017l3.965-8.1a.039.039,0,0,0-.049-.053l-12.016,4.818A.039.039,0,0,0,1457.671,78.728Z" transform="translate(-1457.646 -73.834)" fill="#f2d043"/>
        </g>
      </g>
    </g>
    <ellipse id="楕円形_514" data-name="楕円形 514" cx="12.846" cy="2.186" rx="12.846" ry="2.186" transform="translate(5.805 120.929)" fill="#f2e3e2"/>
    <g id="グループ_56085" data-name="グループ 56085" transform="translate(3.467 64.492)">
      <path id="パス_75366" data-name="パス 75366" d="M350.875,973.077l-27.3-4.655-.188-44.909,1.784-.008.182,43.409,23.766,4.052.6-44.369,1.784.024Z" transform="translate(-315.171 -915.827)" fill="#090962"/>
      <path id="パス_75367" data-name="パス 75367" d="M1190.788,894.988l-27.3-4.655-.188-44.909,1.784-.007.182,43.41,23.766,4.052.6-44.369,1.784.024Z" transform="translate(-1083.741 -844.371)" fill="#090962"/>
      <g id="グループ_56084" data-name="グループ 56084">
        <path id="パス_75368" data-name="パス 75368" d="M343.725,870.269l.089-2.765-28.782.332L302.2,866.709,278,868.468l-51.347.877.012,2.855,38.645,3.853Z" transform="translate(-226.652 -863.854)" fill="#dea353"/>
        <path id="パス_75369" data-name="パス 75369" d="M265.206,842l78.663-5.236L302.191,833.1l-75.54,5.491Z" transform="translate(-226.652 -833.1)" fill="#f2e3e2"/>
      </g>
    </g>
    <ellipse id="楕円形_515" data-name="楕円形 515" cx="27.879" cy="4.505" rx="27.879" ry="4.505" transform="translate(50.866 112.747)" fill="#f2e3e2"/>
    <g id="グループ_56087" data-name="グループ 56087" transform="translate(22.712 22.394)">
      <g id="グループ_56086" data-name="グループ 56086">
        <path id="パス_75370" data-name="パス 75370" d="M713.208,789.693l.021,5,16.228-1.166-.022-5.248Z" transform="translate(-691.126 -749.992)" fill="#090962"/>
        <path id="パス_75371" data-name="パス 75371" d="M475.638,338.3l.173,41.341,57.082-4.136.349-38.022Z" transform="translate(-473.734 -337.484)" fill="#6ebfb0"/>
        <path id="パス_75372" data-name="パス 75372" d="M497.424,354.144l.162,38.693,53.426-3.871.327-35.586Z" transform="translate(-493.67 -352.03)" fill="#f2e3e2"/>
        <path id="パス_75373" data-name="パス 75373" d="M455.31,388.812l-2.081-.409.074-40.643,1.83-.252Z" transform="translate(-453.228 -346.657)" fill="#090962"/>
        <path id="パス_75374" data-name="パス 75374" d="M727.6,793.943l.021,5,16.228-1.167-.022-5.248Z" transform="translate(-704.291 -753.881)" fill="#6ebfb0"/>
        <path id="パス_75375" data-name="パス 75375" d="M713.235,820.057l1.177.089-.019-4.447-1.228.058Z" transform="translate(-691.086 -775.08)" fill="#090962"/>
        <path id="パス_75376" data-name="パス 75376" d="M727.626,803.13l16.174-.494,0-.731Z" transform="translate(-704.318 -762.457)" fill="#090962"/>
      </g>
    </g>
    <g id="グループ_56088" data-name="グループ 56088" transform="translate(21.516 69.301)">
      <path id="パス_75377" data-name="パス 75377" d="M471.972,891.682l-14.185.981-18.645-2.052,13.025-.892Z" transform="translate(-439.142 -889.72)" fill="#d35974"/>
      <path id="パス_75378" data-name="パス 75378" d="M550.264,899.371l-9.027.624-11.865-1.306,8.289-.568Z" transform="translate(-521.708 -897.408)" fill="#fff"/>
      <path id="パス_75379" data-name="パス 75379" d="M471.972,901.293v.267l-14.185.981-17.073-1.879v.005l-1.572-.178v-.267l18.645,2.052Z" transform="translate(-439.142 -899.33)" fill="#090962"/>
      <path id="パス_75380" data-name="パス 75380" d="M572.838,892.043c0,.123-.539.223-1.2.223s-1.2-.1-1.2-.223.539-.223,1.2-.223S572.838,891.92,572.838,892.043Z" transform="translate(-559.278 -891.642)" fill="#fff"/>
      <ellipse id="楕円形_516" data-name="楕円形 516" cx="1.204" cy="0.223" rx="1.204" ry="0.223" transform="translate(4.55 0.624)" fill="#fff"/>
    </g>
    <g id="グループ_56090" data-name="グループ 56090" transform="translate(18.304 54.159)">
      <g id="グループ_56089" data-name="グループ 56089" transform="translate(0 13.183)">
        <path id="パス_75381" data-name="パス 75381" d="M406.6,871.864h-5.263v1.606h.011a.1.1,0,0,0-.011.045c0,.269,1.178.487,2.632.487s2.632-.218,2.632-.487a.1.1,0,0,0-.011-.045h.011Z" transform="translate(-401.332 -871.421)" fill="#090962"/>
        <path id="パス_75382" data-name="パス 75382" d="M406.6,867.139c0,.269-1.178.487-2.632.487s-2.632-.218-2.632-.487,1.178-.487,2.632-.487S406.6,866.87,406.6,867.139Z" transform="translate(-401.332 -866.652)" fill="#090962"/>
      </g>
      <path id="パス_75383" data-name="パス 75383" d="M423.856,725.11l-.086-12.82a.875.875,0,0,0-.39-.743c-.235-.149-.55-.179-.878.294a.9.9,0,0,0-.159.512v12.781A2.616,2.616,0,0,0,423.856,725.11Z" transform="translate(-420.559 -711.45)" fill="#d35974"/>
      <path id="パス_75384" data-name="パス 75384" d="M402.4,871.978c.432.092.865.162,1.3.216a12.119,12.119,0,0,0,1.305.087l.326,0c.109,0,.217-.013.326-.017l.163-.009.162-.019c.108-.015.217-.021.324-.04a7,7,0,0,0,1.268-.329,4.5,4.5,0,0,1-1.243.466,6.421,6.421,0,0,1-1.327.129,8.114,8.114,0,0,1-1.325-.128A6.809,6.809,0,0,1,402.4,871.978Z" transform="translate(-402.314 -858.238)" fill="#fff"/>
    </g>
    <g id="グループ_56097" data-name="グループ 56097" transform="translate(42.614 22.088)">
      <g id="グループ_56093" data-name="グループ 56093" transform="translate(40.962)">
        <path id="パス_75385" data-name="パス 75385" d="M1193.842,357.18c.171-1.874.873-4.643.328-6.781s-2.792-6.322-7.069-4.966-6.052,3.415-6.576,6a18.444,18.444,0,0,0-.028,4.544,8.54,8.54,0,0,0-.622,2.566c.125.25.685.368,1.011.417a9.676,9.676,0,0,0,1.292,3.974c1.255,1.333,3.215.789,3.661.788s.928.989.928.989l7.535-3.7A11.113,11.113,0,0,1,1193.842,357.18Z" transform="translate(-1178.998 -344.208)" fill="#dea353"/>
        <path id="パス_75386" data-name="パス 75386" d="M1173.871,343.923a1.716,1.716,0,0,0-1.287-1.783,3.327,3.327,0,0,1-2.8-3.173,2.73,2.73,0,0,1,4.093-2.6s.351-1.25,1.066-1.164a1.672,1.672,0,0,1,.893.264s.973-1.967,2.046-1.525l1.072.442s2.4-1.081,3.925-.017,1.256,1.6,1.256,1.6,2.594,1.773,2.248,4.183-.7,2.679-.7,2.679.447.087.362,1.158a3.374,3.374,0,0,1-.884,1.877s-.351,1.429.365,1.961,1.431.886.9,1.334-3.558,2.424-5.526,1.361-1.71-3.651-1.98-4.1-.534.27-.717-.889-1.257-1.957-1.878-1.152a8.759,8.759,0,0,0-.969,2.859,7.386,7.386,0,0,1-1.609-.618A25.194,25.194,0,0,1,1173.871,343.923Z" transform="translate(-1169.785 -333.873)" fill="#090962"/>
        <path id="パス_75387" data-name="パス 75387" d="M1216.112,489.975a.134.134,0,0,0,0,.268A.134.134,0,0,0,1216.112,489.975Z" transform="translate(-1212.059 -476.716)" fill="#090962"/>
        <path id="パス_75388" data-name="パス 75388" d="M1222.092,491.64a.12.12,0,0,0-.071-.07.1.1,0,0,0-.052-.011l-.036.005a.132.132,0,0,0-.059.035l-.021.027a.132.132,0,0,0-.018.068v.046a.1.1,0,0,0,.012.051.1.1,0,0,0,.028.043.1.1,0,0,0,.043.027.1.1,0,0,0,.052.011l.036,0a.133.133,0,0,0,.059-.035l.021-.027a.134.134,0,0,0,.018-.068v-.046A.1.1,0,0,0,1222.092,491.64Z" transform="translate(-1217.415 -478.165)" fill="#090962"/>
        <path id="パス_75389" data-name="パス 75389" d="M1232.213,492.59a.134.134,0,0,0,0,.268A.134.134,0,0,0,1232.213,492.59Z" transform="translate(-1226.792 -479.109)" fill="#090962"/>
        <path id="パス_75390" data-name="パス 75390" d="M1227.949,499.043a.134.134,0,0,0,0,.268A.134.134,0,0,0,1227.949,499.043Z" transform="translate(-1222.891 -485.013)" fill="#090962"/>
        <path id="パス_75391" data-name="パス 75391" d="M1216.146,498.02a.134.134,0,0,0,0,.268A.134.134,0,0,0,1216.146,498.02Z" transform="translate(-1212.09 -484.077)" fill="#090962"/>
        <path id="パス_75392" data-name="パス 75392" d="M1221.518,500.143a.134.134,0,0,0,0,.268A.134.134,0,0,0,1221.518,500.143Z" transform="translate(-1217.006 -486.02)" fill="#090962"/>
        <path id="パス_75393" data-name="パス 75393" d="M1215.118,508.751a.134.134,0,0,0,0,.268A.134.134,0,0,0,1215.118,508.751Z" transform="translate(-1211.15 -493.897)" fill="#090962"/>
        <path id="パス_75394" data-name="パス 75394" d="M1221.7,512.574a.134.134,0,0,0-.035-.059l-.027-.021a.13.13,0,0,0-.067-.018h-.046a.129.129,0,0,0-.122.083.1.1,0,0,0-.011.052c0,.012,0,.024.005.036a.133.133,0,0,0,.035.059l.027.021a.132.132,0,0,0,.068.018h.045a.1.1,0,0,0,.052-.012.1.1,0,0,0,.043-.028.1.1,0,0,0,.027-.043.1.1,0,0,0,.011-.052Z" transform="translate(-1217.004 -497.305)" fill="#090962"/>
        <path id="パス_75395" data-name="パス 75395" d="M1229.065,509.229a.134.134,0,0,0,0,.268A.134.134,0,0,0,1229.065,509.229Z" transform="translate(-1223.912 -494.334)" fill="#090962"/>
        <path id="パス_75396" data-name="パス 75396" d="M1249.351,460.248l-.034-.083a1.784,1.784,0,0,0,1.125-2.09c-.253-.75-.816-.6-.84-.592l-.025-.086c.006,0,.668-.184.949.649A1.875,1.875,0,0,1,1249.351,460.248Z" transform="translate(-1242.562 -446.889)" fill="#090962"/>
        <path id="パス_75397" data-name="パス 75397" d="M1246.929,464.015s.356-.18.447.266-.529,1.43-.8,1.342.266-.358.354-.626A3.468,3.468,0,0,0,1246.929,464.015Z" transform="translate(-1239.988 -452.928)" fill="#090962"/>
        <path id="パス_75398" data-name="パス 75398" d="M1179.454,371.606c-.089-.022-2.174-.549-2.539-1.984a2.265,2.265,0,0,1,1.267-2.646,2.624,2.624,0,0,1,2.174.082l-.037.081a2.541,2.541,0,0,0-2.109-.079A2.207,2.207,0,0,0,1177,369.6c.352,1.383,2.452,1.915,2.473,1.92Z" transform="translate(-1176.24 -363.983)" fill="#fff"/>
        <path id="パス_75399" data-name="パス 75399" d="M1244.789,344.344a3.839,3.839,0,0,1,.452-.919,1.964,1.964,0,0,1,.756-.7,1.115,1.115,0,0,1,.518-.105,1.809,1.809,0,0,1,.512.114c.163.052.325.106.487.163.081.029.162.058.242.091.041.016.081.034.122.053a.589.589,0,0,1,.063.035l.019.014a.11.11,0,0,1,.027.032.074.074,0,0,1,.008.023.07.07,0,0,1,0,.04.074.074,0,0,1-.022.032.085.085,0,0,1-.02.013.108.108,0,0,1-.044.009l-.241.016.2-.142a4.441,4.441,0,0,1,1.225-.6c.111-.028.22-.066.333-.084l.169-.033.172-.02.086-.01.086,0,.173,0c.058,0,.116.009.173.013a1.2,1.2,0,0,1,.173.021,2.081,2.081,0,0,1,.338.086l.165.058c.053.022.1.049.156.073a2.549,2.549,0,0,1,.585.372,1.731,1.731,0,0,1,.438.55,1.257,1.257,0,0,1,.136.7l-.052-.092a4.983,4.983,0,0,1,.734.379,4.769,4.769,0,0,1,.661.493,3.249,3.249,0,0,1,.544.624,2.745,2.745,0,0,1,.2.363,2.375,2.375,0,0,1,.138.393,2.313,2.313,0,0,1,.068.41c0,.069.006.139,0,.207l-.005.2c0,.136-.015.272-.022.407s-.026.271-.048.405a5.427,5.427,0,0,1-.171.8,2.707,2.707,0,0,1-.33.741,2.878,2.878,0,0,0,.292-.752,5.4,5.4,0,0,0,.137-.8c.028-.268.041-.537.043-.806v-.2c0-.067-.006-.132-.009-.2a2.233,2.233,0,0,0-.074-.388,2.774,2.774,0,0,0-.873-1.3,4.856,4.856,0,0,0-1.352-.831l-.06-.025.008-.068a.954.954,0,0,0-.02-.3,1.247,1.247,0,0,0-.106-.3,1.554,1.554,0,0,0-.4-.492,2.509,2.509,0,0,0-.545-.351c-.049-.023-.1-.049-.148-.07l-.152-.055a1.929,1.929,0,0,0-.312-.082,1.08,1.08,0,0,0-.161-.021c-.054,0-.108-.012-.162-.014l-.163,0h-.082l-.081.009-.162.017-.161.03c-.108.017-.213.052-.32.078a4.644,4.644,0,0,0-1.189.564l-.041-.126s0,0-.013,0a.046.046,0,0,0-.013.008.062.062,0,0,0-.021.058.062.062,0,0,0,.005.016c.008.012.007.009.006.009l-.006,0a.475.475,0,0,0-.048-.028c-.035-.018-.073-.036-.112-.052-.077-.033-.155-.064-.235-.095-.158-.061-.318-.118-.479-.174a1.711,1.711,0,0,0-.48-.121,1.021,1.021,0,0,0-.478.085,1.9,1.9,0,0,0-.753.646A4.159,4.159,0,0,0,1244.789,344.344Z" transform="translate(-1238.418 -341.641)" fill="#fff"/>
        <g id="グループ_56092" data-name="グループ 56092" transform="translate(0.744 9.923)">
          <path id="パス_75400" data-name="パス 75400" d="M1179.446,456.544a.41.41,0,0,0-.614-.3.509.509,0,0,0-.285.443,1.9,1.9,0,0,0,.892,1.361C1179.623,458.094,1179.525,457.143,1179.446,456.544Z" transform="translate(-1178.547 -455.721)" fill="#090962"/>
          <g id="グループ_56091" data-name="グループ 56091" transform="translate(0.041 2.127)">
            <path id="パス_75401" data-name="パス 75401" d="M1180.146,478.363c-.039-.006-.966-.143-1.107-.565a11.44,11.44,0,0,1,.564-2.065l.085.029a11.9,11.9,0,0,0-.564,2.008c.123.371,1.025.5,1.034.505Z" transform="translate(-1179.034 -475.733)" fill="#090962"/>
          </g>
          <path id="パス_75402" data-name="パス 75402" d="M1181.7,451.841v-.625l6.927-.52.048.623Z" transform="translate(-1181.429 -450.697)" fill="#d35974"/>
        </g>
      </g>
      <g id="グループ_56094" data-name="グループ 56094" transform="translate(19.649 86.005)">
        <path id="パス_75403" data-name="パス 75403" d="M934.755,1445.958c-.5.725-4.176,1.764-5.063,1.92-1.069.187-9.088,2.544-9.357,2.368a.348.348,0,0,1-.173-.416c4.057-2.516,13.046-4.9,14.418-4.281l.026.012C934.824,1445.673,934.857,1445.81,934.755,1445.958Z" transform="translate(-920.037 -1437.039)" fill="#d35974"/>
        <path id="パス_75404" data-name="パス 75404" d="M996.091,1352.052a8.151,8.151,0,0,0,.167-2.677c-.184-1.248-.456-2.406-.456-2.406l5.35-.558s1,4.189,1.359,4.99S996.457,1354.28,996.091,1352.052Z" transform="translate(-989.267 -1346.41)" fill="#dea353"/>
        <path id="パス_75405" data-name="パス 75405" d="M933.644,1399.931a.277.277,0,0,1-.055.155v0a.231.231,0,0,0-.184-.164l-.046-.007a3.727,3.727,0,0,0-1.9.127c-1.376.437-8.386,2.2-12.383,4.245-.179.092-.236-.282-.2-.479a2.715,2.715,0,0,1,.457-1.128,45.454,45.454,0,0,1,4.14-2.935.223.223,0,0,0,.068-.067,18.844,18.844,0,0,0,1.479-2.464c0-.268,0-.892.264-.893a.971.971,0,0,0,.4-.106.237.237,0,0,1,.255.033,1.9,1.9,0,0,0,.773.423,7.939,7.939,0,0,0,2.854-.19c.623-.27.622-.716,1.245-.986a1.374,1.374,0,0,1,1.338-.006,3.76,3.76,0,0,1,.369.747c.127.374.282.961.441,1.556a10.512,10.512,0,0,0,.635,1.973C933.668,1399.861,933.672,1399.91,933.644,1399.931Z" transform="translate(-918.872 -1391.167)" fill="#090962"/>
        <path id="パス_75406" data-name="パス 75406" d="M984.355,1425.031l-1.853-.549.025-.085,1.781.528.315-.636-1.649-.583.03-.084,1.744.616Z" transform="translate(-977.098 -1417.062)" fill="#fff"/>
        <path id="パス_75407" data-name="パス 75407" d="M975.9,1441.414l-1.909-.537.024-.086,1.843.518.219-.369-1.779-.551.026-.085,1.887.584Z" transform="translate(-969.313 -1432.329)" fill="#fff"/>
        <path id="パス_75408" data-name="パス 75408" d="M1068.818,1404.654l-1.468.153a5,5,0,0,1,.17-1.874c.2-.265.64.006.857.165C1068.5,1403.472,1068.659,1404.06,1068.818,1404.654Z" transform="translate(-1054.723 -1398.031)" fill="#fff"/>
        <path id="パス_75409" data-name="パス 75409" d="M920.719,1446.7q1.73-.812,3.483-1.573c1.171-.5,2.349-.991,3.544-1.438.6-.229,1.2-.437,1.808-.635.3-.093.609-.188.916-.277s.614-.173.922-.255c.618-.159,1.238-.312,1.87-.424.16-.026.312-.054.484-.068a4.366,4.366,0,0,1,.485.014,3.888,3.888,0,0,1,.943.194l-.007.026a4.292,4.292,0,0,0-.941-.1,4.471,4.471,0,0,0-.469.019c-.144.021-.3.06-.457.1-.615.151-1.227.322-1.837.5l-1.832.528c-.608.179-1.213.37-1.812.583-1.2.42-2.385.883-3.565,1.361s-2.356.965-3.524,1.473Z" transform="translate(-920.562 -1433.906)" fill="#fff"/>
        <path id="パス_75410" data-name="パス 75410" d="M1003.923,1402.378a1.982,1.982,0,0,0,.577.2,3.657,3.657,0,0,0,.6.062c.1,0,.2,0,.3,0s.2-.012.3-.022a5.689,5.689,0,0,0,.6-.088c.2-.035.4-.08.592-.132a5.908,5.908,0,0,0,.577-.18,3.489,3.489,0,0,0,.544-.258,1.412,1.412,0,0,0,.457-.4,1.188,1.188,0,0,1-.38.5,2.723,2.723,0,0,1-.537.343,4.881,4.881,0,0,1-1.2.383,5.114,5.114,0,0,1-.629.077c-.106,0-.212.009-.318,0a3.019,3.019,0,0,1-.938-.166A1.529,1.529,0,0,1,1003.923,1402.378Z" transform="translate(-996.699 -1396.872)" fill="#fff"/>
      </g>
      <path id="パス_75411" data-name="パス 75411" d="M1155.278,1328.789a26.479,26.479,0,0,0-.484-3.741c-.284-.841,4.395-.767,4.395-.767a45.122,45.122,0,0,0,1.331,4.954C1160.992,1330.262,1155.195,1331.41,1155.278,1328.789Z" transform="translate(-1115.094 -1240.154)" fill="#dea353"/>
      <path id="パス_75412" data-name="パス 75412" d="M1102.578,1141.725l3.819,17.113s3.929.965,5.974-.649l-1.406-16.231S1104.361,1141.36,1102.578,1141.725Z" transform="translate(-1067.325 -1072.998)" fill="#6ebfb0"/>
      <path id="パス_75413" data-name="パス 75413" d="M980,1010.755a10.185,10.185,0,0,1-.306,1.36s0,.01,0,.014a4.6,4.6,0,0,1-4.368,3.455,11.984,11.984,0,0,0-3.873.971,18.767,18.767,0,0,1-9.489,1.18c-2.616-.57-11.583-.869-15.26-1.007l1.593,18.282a10.567,10.567,0,0,1-6.778.564s-5.172-20.854-4.559-23.444a4.953,4.953,0,0,1,1.743-2.545,8.206,8.206,0,0,1,3.657-1.739c4.011-.814,16.688-3.291,19.907-2.781,2.7.428,7.7-.182,10.139.934l6.807-1.986A13.688,13.688,0,0,1,980,1010.755Z" transform="translate(-915.723 -947.092)" fill="#6ebfb0"/>
      <g id="グループ_56096" data-name="グループ 56096" transform="translate(0 44.549)">
        <g id="グループ_56095" data-name="グループ 56095">
          <path id="パス_75414" data-name="パス 75414" d="M731.125,870.258l.013-1.1-10.523.014-4.738-.492-8.962.509-19.055.2.049.885,14.269,1.65,29.09-1.643Z" transform="translate(-687.833 -867.799)" fill="#090962"/>
          <path id="パス_75415" data-name="パス 75415" d="M701.778,861.426l29.121-1.478-15.392-1.6-27.968,1.59Z" transform="translate(-687.54 -858.351)" fill="#6ebfb0"/>
        </g>
        <rect id="長方形_26671" data-name="長方形 26671" width="22.689" height="0.089" transform="translate(5.573 1.636) rotate(-2.916)" fill="#fff"/>
        <rect id="長方形_26672" data-name="長方形 26672" width="22.689" height="0.089" transform="matrix(0.999, -0.051, 0.051, 0.999, 9.409, 1.992)" fill="#fff"/>
        <rect id="長方形_26673" data-name="長方形 26673" width="22.689" height="0.089" transform="translate(13.245 2.35) rotate(-2.916)" fill="#fff"/>
      </g>
      <path id="パス_75416" data-name="パス 75416" d="M1202.537,574.027c-3.088,2.362-12.068.943-12.493.763-.621-.263-6.441-4.895-6.533-4.968h0a5.469,5.469,0,0,1-1.7-1.063c-2.172-7.485-3.426-29.782-1.472-31.932a42.49,42.49,0,0,1,6.135-4.932l-.4-.743a.537.537,0,0,1,.159-.695,18.291,18.291,0,0,1,7.292-3.251.657.657,0,0,1,.714.387l.652,1.5.231.532.13.075,4.968,2.848c4.573,5.6,2.286,13.283,1.326,18.372-.806,4.274-.335,13.134-.163,15.864.032.521.054.819.054.819q.285.352.53.685C1204.115,571.219,1203.9,572.989,1202.537,574.027Z" transform="translate(-1137.593 -510.775)" fill="#d35974"/>
      <path id="パス_75417" data-name="パス 75417" d="M863.926,857.105s-2.5-.535-2.676-.535a6.625,6.625,0,0,0-4.015-.892c-.27.03-.571.052-.873.1l-.216-.032-.8.227-.34-.023-.917.344-.242.013-1.427.535s-.8.8-.446,1.07.714-.268.892-.357a1.322,1.322,0,0,1,.208-.067.222.222,0,0,0,.06.067.516.516,0,0,0,.714-.089,11.473,11.473,0,0,1,2.587.625,4.049,4.049,0,0,0,1.983.653,13.351,13.351,0,0,1,1.764.328c.8.178,3.212.892,3.658.268S863.926,857.105,863.926,857.105Z" transform="translate(-837.921 -811.319)" fill="#dea353"/>
      <path id="パス_75418" data-name="パス 75418" d="M987.346,620.064c-1.493.579-2.859,2.322-3.7,3.6a11.529,11.529,0,0,0-1.233,2.49l-4.594,12.973-10.856,1.224s-1.327,2.682.018,4.282c0,0,12.5,1.91,14.28,1.546a.481.481,0,0,0,.246-.125h0l0,0c.057-.057,1.326-.862,1.352-.949,1.04-1.807,6.733-11.18,8.31-18.234C992.33,621.689,989.8,619.112,987.346,620.064Z" transform="translate(-942.695 -595.577)" fill="#d35974"/>
      <path id="パス_75419" data-name="パス 75419" d="M1190.528,679.283c-1.087,4.866-4.109,10.79-6.241,14.627.009.045.648,4.9.657,4.944,2.137-3.838,4.573-14.636,5.671-19.551a11.576,11.576,0,0,0,.282-2.142l-.092.083A11.559,11.559,0,0,1,1190.528,679.283Z" transform="translate(-1142.094 -648.001)" fill="#090962"/>
      <path id="パス_75420" data-name="パス 75420" d="M1340.189,1048.52h.023C1340.089,1048.558,1340.189,1048.52,1340.189,1048.52Z" transform="translate(-1284.718 -987.818)" fill="#090962"/>
      <path id="パス_75421" data-name="パス 75421" d="M1349.75,994.809c-3.323,3.271-8.488,3.2-8.877,3.187.2-.064,1.032-.339,3.986-1.356,3.052-1.051,4.01-2.466,4.307-3.335.033.521.054.819.054.819Q1349.505,994.477,1349.75,994.809Z" transform="translate(-1285.379 -937.294)" fill="#090962"/>
      <path id="パス_75422" data-name="パス 75422" d="M1220.872,623.942a3.71,3.71,0,0,0-1.933-3.241,3.518,3.518,0,0,0-1.662-.333l-.009-.089c.033,0,3.319-.269,3.692,3.654Z" transform="translate(-1172.274 -595.948)" fill="#fff"/>
      <path id="パス_75423" data-name="パス 75423" d="M1295.308,550.167l-.085-.03a13.982,13.982,0,0,0-6.507,1.365,14.583,14.583,0,0,1,6.231-1.942l.23.532Z" transform="translate(-1237.653 -531.24)" fill="#fff"/>
      <path id="パス_75424" data-name="パス 75424" d="M1101.338,840.152a7.752,7.752,0,0,0,.367,2.318l.36.891a13.893,13.893,0,0,1-.277-2.318c.088-.357.538.712.806.71s-1.067-2.219-1.067-2.219Z" transform="translate(-1066.19 -796.582)" fill="#090962"/>
      <path id="パス_75425" data-name="パス 75425" d="M1005.956,1129.6s-2.954-2.486-3.132-2.217,1.613,1.777,1.613,1.777a16.787,16.787,0,0,0-2.767-.345C1001.85,1129,1004.888,1130.322,1005.956,1129.6Z" transform="translate(-974.981 -1059.967)" fill="#090962"/>
      <path id="パス_75426" data-name="パス 75426" d="M1246.5,1033.662a10.2,10.2,0,0,1-.306,1.36c-5.247,2.309-11.291.4-12.136.154-.886-.262-5.836-6.039-5.913-6.13.091.073,5.911,4.7,6.532,4.968C1235.076,1034.182,1242.957,1035.434,1246.5,1033.662Z" transform="translate(-1182.228 -969.998)" fill="#090962"/>
      <path id="パス_75427" data-name="パス 75427" d="M1305.053,1063.567c1.216.1,2.43.19,3.644.249.607.025,1.214.052,1.82.057s1.213.009,1.818-.014,1.209-.055,1.808-.121a13.072,13.072,0,0,0,1.778-.3,7.3,7.3,0,0,0,.855-.271,4.156,4.156,0,0,0,.795-.4,2.453,2.453,0,0,0,.652-.6,2.047,2.047,0,0,0,.359-.821,1.953,1.953,0,0,1-.277.875,2.5,2.5,0,0,1-.632.687,5.277,5.277,0,0,1-1.677.8,14.894,14.894,0,0,1-3.649.512q-.919.025-1.838-.006c-.612-.024-1.223-.059-1.831-.117A31.758,31.758,0,0,1,1305.053,1063.567Z" transform="translate(-1252.601 -999.552)" fill="#fff"/>
      <path id="パス_75428" data-name="パス 75428" d="M1310.639,1002.925q1.35-.2,2.672-.464c.881-.184,1.755-.39,2.61-.654.428-.129.851-.273,1.267-.434.21-.076.413-.168.619-.253s.407-.182.605-.283a8.9,8.9,0,0,0,2.2-1.522,6.371,6.371,0,0,1-2.037,1.828,9.435,9.435,0,0,1-1.233.623c-.211.093-.427.171-.642.253s-.434.15-.654.216a16.284,16.284,0,0,1-2.683.569c-.453.06-.908.1-1.363.123A12.473,12.473,0,0,1,1310.639,1002.925Z" transform="translate(-1257.713 -942.793)" fill="#fff"/>
      <path id="パス_75429" data-name="パス 75429" d="M1340.666,668.326l0-.729c-.023-5.462-2.024-19.465-2.044-19.606l.176-.025c.02.135,1.86,13.018,2.033,18.907.681-3.007,3.226-15.016,2.5-23.546l.178-.016c.836,9.8-2.631,24.162-2.666,24.306Z" transform="translate(-1283.317 -617.028)" fill="#fff"/>
      <rect id="長方形_26674" data-name="長方形 26674" width="0.178" height="8.343" transform="translate(35.545 69.914) rotate(-88.018)" fill="#090962"/>
      <path id="パス_75430" data-name="パス 75430" d="M1099.3,1374.708a5.845,5.845,0,0,1-3.246.97c-2.388.2-9.938.615-10.134-.436,0,0,.092-.86.569-1.15s3.148-1.447,3.148-1.447l1.81-1.346s.093-.669.284-.766a.743.743,0,0,1,.477,0s.483,1.05,1.248,1.238a3.179,3.179,0,0,0,2.293-.488c.19-.287.95-1.247,1.621-.867a1.118,1.118,0,0,1,.321.363,12.362,12.362,0,0,1,.914,1.971C1098.991,1373.758,1099.3,1374.708,1099.3,1374.708Z" transform="translate(-1052.079 -1282.291)" fill="#090962"/>
      <path id="パス_75431" data-name="パス 75431" d="M1129.093,1393.645l-.017-.042a5.986,5.986,0,0,1-.288-1.132l.088-.013a6.071,6.071,0,0,0,.266,1.069l.579-.251-.222-1.3.088-.015.234,1.369Z" transform="translate(-1091.308 -1302.087)" fill="#fff"/>
      <path id="パス_75432" data-name="パス 75432" d="M1142.142,1383.2l-.018-.036a8.23,8.23,0,0,1-.405-1.287l.087-.02a8.883,8.883,0,0,0,.38,1.231l.668-.254a6.172,6.172,0,0,1-.369-1.562h.089a6.5,6.5,0,0,0,.378,1.574l.015.042Z" transform="translate(-1103.141 -1292.301)" fill="#fff"/>
      <path id="パス_75433" data-name="パス 75433" d="M1089.2,1418.421c1.084-.046,2.162-.059,3.238-.07.538-.012,1.075-.007,1.612-.02s1.073-.01,1.609-.026,1.071-.025,1.605-.046,1.068-.054,1.6-.087l.4-.032c.133-.014.265-.028.4-.039.265-.028.53-.059.792-.1a7.366,7.366,0,0,0,1.553-.38l.017.031a6.166,6.166,0,0,1-1.529.532,15.16,15.16,0,0,1-1.6.268c-1.072.127-2.152.184-3.231.211s-2.159,0-3.237-.03-2.156-.092-3.232-.176Z" transform="translate(-1055.085 -1325.567)" fill="#fff"/>
      <path id="パス_75434" data-name="パス 75434" d="M1215.516,1377.612l-1.324.355s-.661-1.4-.476-1.87c.125-.318.6-.422.885-.456A12.37,12.37,0,0,1,1215.516,1377.612Z" transform="translate(-1168.993 -1287.154)" fill="#fff"/>
      <path id="パス_75435" data-name="パス 75435" d="M1162.852,1383.975a2.867,2.867,0,0,0,.826.468c.074.025.148.046.222.065a1.594,1.594,0,0,0,.221.033,2.965,2.965,0,0,0,.463,0,5.9,5.9,0,0,0,.935-.142,4.13,4.13,0,0,0,.456-.135,1.892,1.892,0,0,0,.433-.21,1.285,1.285,0,0,1-.375.328,2.6,2.6,0,0,1-.453.216,3.457,3.457,0,0,1-.979.209,2.413,2.413,0,0,1-.51-.015,1.529,1.529,0,0,1-.257-.058,1.875,1.875,0,0,1-.237-.1A1.839,1.839,0,0,1,1162.852,1383.975Z" transform="translate(-1122.479 -1294.78)" fill="#fff"/>
      <path id="パス_75436" data-name="パス 75436" d="M1221.671,518.995a.138.138,0,0,0-.123-.082l-.036.005a.134.134,0,0,0-.059.035l-.021.027a.133.133,0,0,0-.018.068v.046a.137.137,0,0,0,.135.133l.035-.005a.131.131,0,0,0,.059-.035l.021-.027a.131.131,0,0,0,.018-.068v-.046A.1.1,0,0,0,1221.671,518.995Z" transform="translate(-1176.068 -503.196)" fill="#090962"/>
      <path id="長方形_26675" data-name="長方形 26675" d="M0,0H7.315a0,0,0,0,1,0,0V5.09A3.206,3.206,0,0,1,4.109,8.3h-.9A3.206,3.206,0,0,1,0,5.09V0A0,0,0,0,1,0,0Z" transform="translate(49.446 70.719) rotate(-0.24)" fill="#090962"/>
      <path id="パス_75437" data-name="パス 75437" d="M1114.5,1153.384v.17a1.076,1.076,0,0,0,1.081,1.072l15.756-.066a1.076,1.076,0,0,0,1.072-1.081h0a1.076,1.076,0,0,0-1.069-1.072l-15.756-.1A1.077,1.077,0,0,0,1114.5,1153.384Z" transform="translate(-1078.233 -1082.786)" fill="#090962"/>
      <path id="パス_75438" data-name="パス 75438" d="M1129.581,1157.572l-14.483.061a1.033,1.033,0,0,1-1.036-1.027v-.17a1.022,1.022,0,0,1,.3-.735c.013-.014.028-.026.042-.039l-.106-.024a1.112,1.112,0,0,0-.329.8v.17a1.122,1.122,0,0,0,1.125,1.116l14.476-.061C1129.576,1157.632,1129.579,1157.6,1129.581,1157.572Z" transform="translate(-1077.751 -1085.837)" fill="#fff"/>
      <path id="パス_75439" data-name="パス 75439" d="M1327.015,694.324l-.048.134-19.069,1.3-5.433,17.3-3.379,22.423-2.052.009,3.379-22.423,5.433-17.3Z" transform="translate(-1245.263 -663.708)" fill="#090962"/>
      <path id="パス_75440" data-name="パス 75440" d="M1351.172,694.223l-6.391,17.649-3.184,21.809-20.405,1.705.025-.165,3.354-22.258,5.433-17.3,19.069-1.3Z" transform="translate(-1267.368 -663.615)" fill="#dea353"/>
      <rect id="長方形_26676" data-name="長方形 26676" width="1.784" height="15.612" transform="translate(52.233 77.991)" fill="#090962"/>
      <path id="パス_75441" data-name="パス 75441" d="M1249.517,1427.909l-5.809-1.492-5.58,1.436a1,1,0,0,0,.04,1.952,29.476,29.476,0,0,0,11.278.062A1,1,0,0,0,1249.517,1427.909Z" transform="translate(-1190.672 -1333.617)" fill="#090962"/>
      <path id="パス_75442" data-name="パス 75442" d="M1301.367,1263.443h1.879v.579h-1.784Z" transform="translate(-1249.229 -1184.486)" fill="#fff"/>
      <path id="パス_75443" data-name="パス 75443" d="M1241.533,1451.607c1.033.044,2.057.1,3.079.157.512.02,1.021.055,1.532.07s1.019.04,1.528.047,1.018.014,1.526.01,1.015-.026,1.523-.047,1.013-.07,1.516-.138a13.081,13.081,0,0,0,1.508-.277l.013.033a9.27,9.27,0,0,1-1.483.428,14.54,14.54,0,0,1-1.526.233,25.984,25.984,0,0,1-3.084.114c-1.029-.024-2.056-.092-3.08-.193s-2.044-.23-3.059-.4Z" transform="translate(-1194.471 -1356.504)" fill="#fff"/>
      <path id="パス_75444" data-name="パス 75444" d="M1440.8,743.457l-.177-.026,3.035-21.063,0-.009,6.195-16.372-19.307,1.594-.015-.178,19.589-1.617-.05.132-6.241,16.495Z" transform="translate(-1367.421 -674.195)" fill="#090962"/>
    </g>
    <g id="グループ_56099" data-name="グループ 56099" transform="translate(31.483 13.815)">
      <path id="パス_75445" data-name="パス 75445" d="M608.91,237.365v3.649l36.244-.608-.122-3.649Z" transform="translate(-604.457 -236.734)" fill="#dea353"/>
      <path id="パス_75446" data-name="パス 75446" d="M1034.155,238.216l-1.869.765-3.482,1.424a3.124,3.124,0,0,1-.122-3.649l3.592.957Z" transform="translate(-988.107 -236.733)" fill="#f2e3e2"/>
      <path id="パス_75447" data-name="パス 75447" d="M572.05,247.54l-3.873.026v-3.623l3.873-.026Z" transform="translate(-567.184 -243.285)" fill="#d35974"/>
      <path id="パス_75448" data-name="パス 75448" d="M601.687,247.048h-2.8c.568-.037,1.029-.831,1.029-1.838a1.871,1.871,0,0,0-.864-1.824l2.623-.033Z" transform="translate(-595.288 -242.768)" fill="#f2e3e2"/>
      <path id="パス_75449" data-name="パス 75449" d="M1076.344,248.528l-1.869.765a1.141,1.141,0,0,1-.012-1.267Z" transform="translate(-1030.296 -247.045)" fill="#090962"/>
      <g id="グループ_56098" data-name="グループ 56098" transform="translate(8.332 0.978)">
        <rect id="長方形_26677" data-name="長方形 26677" width="19.095" height="0.122" transform="matrix(1, -0.015, 0.015, 1, 0, 0.425)" fill="#090962"/>
        <rect id="長方形_26678" data-name="長方形 26678" width="8.392" height="0.122" transform="matrix(1, -0.015, 0.015, 1, 20.188, 0.123)" fill="#090962"/>
        <rect id="長方形_26679" data-name="長方形 26679" width="22.865" height="0.122" transform="matrix(1, -0.015, 0.015, 1, 7.446, 2.137)" fill="#090962"/>
      </g>
      <path id="パス_75450" data-name="パス 75450" d="M558.492,246.063c0,1-.457,1.785-1.01,1.785s-.993-.785-.993-1.785.44-1.838.993-1.838S558.492,245.062,558.492,246.063Z" transform="translate(-556.49 -243.567)" fill="#e6617e"/>
      <path id="パス_75451" data-name="パス 75451" d="M621.34,245.209c0,1.031-.484,1.839-1.071,1.839s-1.053-.809-1.053-1.839.475-1.858,1.062-1.858S621.34,244.178,621.34,245.209Z" transform="translate(-613.888 -242.767)" fill="#f2e3e2"/>
      <path id="パス_75452" data-name="パス 75452" d="M1022.263,238.336c0,1.031-.484,1.839-1.071,1.839s-1.053-.809-1.053-1.839.475-1.858,1.062-1.858S1022.263,237.305,1022.263,238.336Z" transform="translate(-980.757 -236.478)" fill="#dea353"/>
    </g>
    <g id="グループ_56101" data-name="グループ 56101" transform="translate(104.231 16.746)">
      <g id="グループ_56100" data-name="グループ 56100">
        <path id="パス_75453" data-name="パス 75453" d="M1412.952,271.236l.052,12.481,17.233-1.249.106-11.479Z" transform="translate(-1412.952 -270.989)" fill="#090962"/>
        <path id="パス_75454" data-name="パス 75454" d="M1424.889,277.488l.052,12.481,17.234-1.249.105-11.479Z" transform="translate(-1423.875 -276.711)" fill="#6ebfb0"/>
        <path id="パス_75455" data-name="パス 75455" d="M1430.042,319.613l5.89-9.222,4.683,5.649,2.318-2.607,3.621,4.973Z" transform="translate(-1428.59 -307.044)" fill="#fff"/>
        <path id="パス_75456" data-name="パス 75456" d="M1567.479,293.219a1.631,1.631,0,1,1-.553-2.3A1.673,1.673,0,0,1,1567.479,293.219Z" transform="translate(-1551.553 -289.036)" fill="#fff"/>
        <ellipse id="楕円形_517" data-name="楕円形 517" cx="1.148" cy="1.091" rx="1.148" ry="1.091" transform="translate(12.997 3.817) rotate(-60)" fill="#dea353"/>
      </g>
      <path id="パス_75457" data-name="パス 75457" d="M1426.9,290.336l-.006-.089,17.667-1.2.133-12.136h.089l-.134,12.219-.041,0Z" transform="translate(-1425.707 -276.406)" fill="#6ebfb0"/>
    </g>
    <g id="グループ_56102" data-name="グループ 56102" transform="translate(2.237 48.413)">
      <path id="パス_75458" data-name="パス 75458" d="M212.175,656.512l.184-11.033,14.19-1.673-1.751,11.27Z" transform="translate(-212.175 -643.807)" fill="#090962"/>
      <path id="パス_75459" data-name="パス 75459" d="M212.175,663.57l1.535-9.018,8.358-.937.938-1.668,4.691-.427-1.706,10.616Z" transform="translate(-212.175 -650.865)" fill="#dea353"/>
      <path id="パス_75460" data-name="パス 75460" d="M220.844,670.066l0-.095,12.586-1.431,1.55-9.069-3.539.322V659.7l3.649-.332-1.583,9.26-.038,0Z" transform="translate(-220.105 -658.045)" fill="#090962"/>
    </g>
    <path id="パス_75461" data-name="パス 75461" d="M407.34,1172.116l-1.832-.916,1.51,1.294a16.825,16.825,0,0,1-3.169,2.916l-1.285-1.624.607,2.047a5.43,5.43,0,0,1-4.908.541,5.115,5.115,0,0,1-.472-.223s-.012-.057-.032-.16c-.158-.819-.8-4.55.389-5.818,1.338-1.427,12.133-2.319,12.133-2.319A30.053,30.053,0,0,1,407.34,1172.116Z" transform="translate(-379.471 -1074.929)" fill="#6ebfb0"/>
    <g id="グループ_56104" data-name="グループ 56104" transform="translate(3.155 82.278)">
      <g id="グループ_56103" data-name="グループ 56103" transform="translate(5.882 25.944)">
        <path id="パス_75462" data-name="パス 75462" d="M309.372,1361.364l-17.144.082,2.924,13.962h0c.124.436,2.8.772,6.086.756s5.959-.377,6.079-.814h0Z" transform="translate(-292.228 -1360.224)" fill="#dea353"/>
        <ellipse id="楕円形_518" data-name="楕円形 518" cx="8.572" cy="1.149" rx="8.572" ry="1.149" transform="translate(0.035)" fill="#dea353"/>
        <ellipse id="楕円形_519" data-name="楕円形 519" cx="7.645" cy="1.025" rx="7.645" ry="1.025" transform="translate(0.962 0.124)" fill="#090962"/>
      </g>
      <path id="パス_75463" data-name="パス 75463" d="M342.1,1281.241l-.606.152a33.746,33.746,0,0,0-3.24-7.453c.169-.053.263-.093.263-.093a1.158,1.158,0,0,0,.326-.132A34.366,34.366,0,0,1,342.1,1281.241Z" transform="translate(-328.465 -1254.075)" fill="#6ebfb0"/>
      <path id="パス_75464" data-name="パス 75464" d="M390.477,1274.548l-.4,7.308-.623-.034.4-7.341c.16.1.254.158.254.158Q390.3,1274.6,390.477,1274.548Z" transform="translate(-375.317 -1254.777)" fill="#6ebfb0"/>
      <path id="パス_75465" data-name="パス 75465" d="M420.368,1272.438a34.326,34.326,0,0,0-3.838,6.937l-.583-.225a35.339,35.339,0,0,1,2.647-5.2q.626-1.012,1.27-1.891c.02.1.032.16.032.16A5.12,5.12,0,0,0,420.368,1272.438Z" transform="translate(-399.556 -1252.557)" fill="#6ebfb0"/>
      <path id="パス_75466" data-name="パス 75466" d="M362.033,1056.116l-2.279.38,2.268.227c-.077,2.238-.592,4.708-3.657,5.551-.118.033-.24.063-.367.091,0,0-.095-.055-.254-.158-.907-.587-3.906-2.769-3.3-5.578.714-3.3,4.372-14.127,4.372-14.127s1.172,3.561,2.1,6.95l-1.253,1.065,1.4-.51a24.8,24.8,0,0,1,.961,4.837C362.029,1055.242,362.036,1055.671,362.033,1056.116Z" transform="translate(-343.205 -1042.503)" fill="#6ebfb0"/>
      <path id="パス_75467" data-name="パス 75467" d="M233.358,1133.6a1.163,1.163,0,0,1-.326.132s-.095.04-.263.093h0a5.135,5.135,0,0,1-3.457-.117c-1.873-.8-6.334-13.114-6.334-13.114s2.447,1.975,5.024,4.261l-.488.733-.356.534-.032.048.049-.031.539-.334.8-.5c1.134,1.018,2.263,2.074,3.193,3.029l-1.012.953,1.342-.61a8.428,8.428,0,0,1,1.825,2.439C234.356,1132.728,233.765,1133.361,233.358,1133.6Z" transform="translate(-222.977 -1113.959)" fill="#6ebfb0"/>
      <path id="パス_75468" data-name="パス 75468" d="M276.548,1191.148a1.159,1.159,0,0,1-.326.132s-.095.04-.263.093h0a42.161,42.161,0,0,0-5.594-7.686l-.017-.018-.171-.186S275.2,1188.768,276.548,1191.148Z" transform="translate(-266.168 -1171.509)" fill="#fff"/>
      <path id="パス_75469" data-name="パス 75469" d="M394.764,1158.536q-.177.05-.367.091s-.095-.054-.254-.158l.583-10.769Z" transform="translate(-379.604 -1138.765)" fill="#fff"/>
      <path id="パス_75470" data-name="パス 75470" d="M468.277,1218.542a13.9,13.9,0,0,0-5.708,4.928,5.088,5.088,0,0,1-.472-.223s-.012-.057-.032-.16C463.967,1220.487,468.277,1218.542,468.277,1218.542Z" transform="translate(-441.757 -1203.589)" fill="#fff"/>
    </g>
    <g id="グループ_56119" data-name="グループ 56119" transform="translate(27.704 24.995)">
      <g id="グループ_56105" data-name="グループ 56105">
        <path id="パス_75471" data-name="パス 75471" d="M555.187,373.243l-42.335.954a.845.845,0,0,1-.855-.859.893.893,0,0,1,.856-.9l42.37-.956a.826.826,0,0,1,.839.86A.915.915,0,0,1,555.187,373.243Zm-42.334-.742a.831.831,0,0,0-.8.836.786.786,0,0,0,.8.8l42.336-.954a.852.852,0,0,0,.814-.836.769.769,0,0,0-.781-.8Z" transform="translate(-511.997 -371.197)" fill="#090962"/>
        <path id="パス_75472" data-name="パス 75472" d="M1051.433,371.058a.973.973,0,0,1-.989-1.015,1.083,1.083,0,0,1,1.034-1.062.973.973,0,0,1,.989,1.016A1.083,1.083,0,0,1,1051.433,371.058Zm.044-2.017a1.02,1.02,0,0,0-.974,1,.916.916,0,0,0,.931.956,1.02,1.02,0,0,0,.974-1A.917.917,0,0,0,1051.477,369.041Z" transform="translate(-1004.709 -368.905)" fill="#090962"/>
        <path id="パス_75473" data-name="パス 75473" d="M1090.37,370.178a.972.972,0,0,1-.987-1.015,1.085,1.085,0,0,1,1.035-1.062.972.972,0,0,1,.987,1.016A1.085,1.085,0,0,1,1090.37,370.178Zm.047-2.017a1.022,1.022,0,0,0-.975,1,.915.915,0,0,0,.93.956,1.022,1.022,0,0,0,.975-1A.915.915,0,0,0,1090.417,368.162Z" transform="translate(-1040.34 -368.101)" fill="#090962"/>
      </g>
      <g id="グループ_56106" data-name="グループ 56106" transform="translate(43.514 3.684)">
        <path id="パス_75474" data-name="パス 75474" d="M1032.366,412.494l-8.075.281.022-1.02,8.081-.283Z" transform="translate(-1024.291 -411.472)" fill="#dca153"/>
        <path id="パス_75475" data-name="パス 75475" d="M1037.51,587.726l-7.462.4.021-1,7.468-.406Z" transform="translate(-1029.559 -571.842)" fill="#d35974"/>
        <path id="パス_75476" data-name="パス 75476" d="M1035.972,438.952l-7.671.414.058-2.657,7.687-.42Zm-7.614.347,7.56-.408.07-2.534-7.575.414Z" transform="translate(-1027.96 -434.181)" fill="#090962"/>
        <path id="パス_75477" data-name="パス 75477" d="M1035.835,488.4l-7.646.4.057-2.64,7.662-.41Zm-7.589.338,7.535-.4.07-2.518-7.551.4Z" transform="translate(-1027.858 -479.445)" fill="#090962"/>
        <path id="パス_75478" data-name="パス 75478" d="M1035.692,617.715l-7.56.466.057-2.592,7.575-.473Zm-7.5.4,7.45-.459.069-2.473-7.465.466Z" transform="translate(-1027.806 -597.819)" fill="#090962"/>
        <path id="パス_75479" data-name="パス 75479" d="M1035.562,664.324l-7.536.456.056-2.576,7.552-.463Zm-7.48.391,7.427-.45.068-2.458-7.442.456Z" transform="translate(-1027.709 -640.483)" fill="#090962"/>
        <path id="パス_75480" data-name="パス 75480" d="M1036.025,535.789l-7.592.5.057-2.623,7.608-.5Zm-7.535.431,7.482-.491.069-2.5-7.5.5Z" transform="translate(-1028.081 -522.824)" fill="#090962"/>
      </g>
      <g id="グループ_56115" data-name="グループ 56115" transform="translate(0.151 4.444)">
        <path id="パス_75481" data-name="パス 75481" d="M523.23,455.821l-9.1.75,0-25.406,9.418-1.044Z" transform="translate(-514.101 -429.298)" fill="#fff"/>
        <path id="パス_75482" data-name="パス 75482" d="M566.247,472.6l-.18.02.053-24.642.182-.02Z" transform="translate(-561.626 -445.62)" fill="#f0e1e0"/>
        <path id="パス_75483" data-name="パス 75483" d="M523.513,422.288l-9.518.261h0a1.961,1.961,0,0,1,1.881-1.964l5.764-.158a1.826,1.826,0,0,1,1.873,1.861Z" transform="translate(-513.977 -420.426)" fill="#090962"/>
        <path id="パス_75484" data-name="パス 75484" d="M530.078,463.693l-.031-2.11,1.854,1.036Z" transform="translate(-528.665 -458.087)" fill="#090962"/>
        <g id="グループ_56107" data-name="グループ 56107" transform="translate(6.167 3.067)">
          <path id="パス_75485" data-name="パス 75485" d="M586.418,458.871l-.029-2.332,2.046,1.145Zm.1-2.1.023,1.89,1.635-.962Z" transform="translate(-586.389 -456.539)" fill="#090962"/>
        </g>
        <g id="グループ_56108" data-name="グループ 56108" transform="translate(5.539 6.674)">
          <rect id="長方形_26680" data-name="長方形 26680" width="0.778" height="1.268" transform="matrix(0.649, -0.76, 0.76, 0.649, 0, 0.592)" fill="#090962"/>
          <path id="パス_75486" data-name="パス 75486" d="M589.375,508.23l.2,1.111,1.6.459-.7-1.43,0-.009Zm1.683,1.437-.667-.593a.265.265,0,1,0-.4.06.275.275,0,0,0,.364-.026l.679.6-1.42-.409-.188-1.022,1.012.121Z" transform="translate(-588.493 -507.446)" fill="#090962"/>
        </g>
        <g id="グループ_56109" data-name="グループ 56109" transform="translate(0.87 6.78)">
          <path id="パス_75487" data-name="パス 75487" d="M524.029,518.313l.99-1.355.315.178-1.244,1.23A.04.04,0,1,1,524.029,518.313Z" transform="translate(-524.019 -515.538)" fill="#090962"/>
          <path id="パス_75488" data-name="パス 75488" d="M537.336,501.516a1.066,1.066,0,0,1,.5-.64,1.954,1.954,0,0,0,.658-.632s-.238,1.144-.712,1.356S537.336,501.516,537.336,501.516Z" transform="translate(-536.205 -500.244)" fill="#090962"/>
        </g>
        <path id="パス_75489" data-name="パス 75489" d="M523.222,486.1l-9.427.579v-.154l9.427-.578Z" transform="translate(-513.794 -480.379)" fill="#f0e1e0"/>
        <path id="パス_75490" data-name="パス 75490" d="M523.2,539.154l-9.407.576v-.153L523.2,539Z" transform="translate(-513.791 -528.929)" fill="#f0e1e0"/>
        <path id="パス_75491" data-name="パス 75491" d="M523.174,593.781l-9.386.573V594.2l9.387-.573Z" transform="translate(-513.787 -578.917)" fill="#f0e1e0"/>
        <path id="パス_75492" data-name="パス 75492" d="M523.15,647.816l-9.366.762v-.151l9.367-.762Z" transform="translate(-513.784 -628.363)" fill="#f0e1e0"/>
        <path id="パス_75493" data-name="パス 75493" d="M523.126,701.62l-9.346.758v-.151l9.347-.759Z" transform="translate(-513.78 -677.597)" fill="#f0e1e0"/>
        <g id="グループ_56110" data-name="グループ 56110" transform="translate(0.723 11.843)">
          <path id="パス_75494" data-name="パス 75494" d="M525.132,561.908l-2.844.313v-2.049l2.846-.314Zm-2.717.172,2.592-.285,0-1.795-2.594.286Z" transform="translate(-522.288 -559.858)" fill="#090962"/>
        </g>
        <g id="グループ_56111" data-name="グループ 56111" transform="translate(5.526 11.434)">
          <path id="パス_75495" data-name="パス 75495" d="M580.472,557.561c-.9.1-1.632-.382-1.63-1.073a1.706,1.706,0,0,1,1.639-1.435c.9-.1,1.633.383,1.631,1.075A1.707,1.707,0,0,1,580.472,557.561Zm.008-2.38c-.832.092-1.511.672-1.512,1.293s.673,1.051,1.5.96,1.51-.671,1.513-1.292S581.313,555.089,580.48,555.181Z" transform="translate(-578.842 -555.04)" fill="#090962"/>
        </g>
        <g id="グループ_56112" data-name="グループ 56112" transform="translate(0.844 16.14)">
          <path id="パス_75496" data-name="パス 75496" d="M523.712,615.528l.352-.649,1.822-1.79.441.461-.012.011-1.783,1.687Zm.374-.63-.313.579.746-.255,1.766-1.67-.4-.419Z" transform="translate(-523.712 -612.863)" fill="#090962"/>
          <path id="パス_75497" data-name="パス 75497" d="M550.024,611.068l-.477-.461.162-.116a.232.232,0,0,1,.3.01l.11.108a.238.238,0,0,1,.012.31Zm-.429-.459.427.413.084-.118a.208.208,0,0,0-.011-.271l-.11-.108a.2.2,0,0,0-.26-.009Z" transform="translate(-547.353 -610.442)" fill="#090962"/>
          <path id="パス_75498" data-name="パス 75498" d="M530.716,617.318l-.02-.02,1.569-1.57.02.021Z" transform="translate(-530.103 -615.278)" fill="#090962"/>
          <path id="パス_75499" data-name="パス 75499" d="M532.849,619.82l-.019-.022,1.569-1.448.019.022Z" transform="translate(-532.056 -617.679)" fill="#090962"/>
          <path id="パス_75500" data-name="パス 75500" d="M524.485,637.678l-.415.142.185-.342A.38.38,0,0,1,524.485,637.678Z" transform="translate(-524.04 -635.182)" fill="#090962"/>
        </g>
        <g id="グループ_56113" data-name="グループ 56113" transform="translate(5.519 15.612)">
          <path id="パス_75501" data-name="パス 75501" d="M578.862,612.345a.366.366,0,0,1,0-.515l1.433-1.6a.346.346,0,1,1,.51.46l-1.433,1.6A.365.365,0,0,1,578.862,612.345Zm1.925-2.145a.335.335,0,0,0-.469.052l-1.433,1.6a.317.317,0,1,0,.468.421l1.433-1.6A.337.337,0,0,0,580.787,610.2Z" transform="translate(-578.757 -609.598)" fill="#090962"/>
          <path id="パス_75502" data-name="パス 75502" d="M592.994,605.023l.76.685.226-.252-.086-.078.454-.818-.363-.327-.661.562-.086-.078Z" transform="translate(-591.785 -604.232)" fill="#090962"/>
        </g>
        <g id="グループ_56114" data-name="グループ 56114" transform="translate(1.349 21.367)">
          <path id="パス_75503" data-name="パス 75503" d="M531.282,672.213l-.67.073,0,1.844-.279.031,0-1.844-.672.074v-.237l1.621-.178Z" transform="translate(-529.661 -671.976)" fill="#090962"/>
        </g>
        <path id="パス_75504" data-name="パス 75504" d="M581.649,665.966l-.876-.923a1.018,1.018,0,0,0,.328-.73.788.788,0,0,0-.894-.8,1.034,1.034,0,0,0-.9,1,.788.788,0,0,0,.894.8.978.978,0,0,0,.446-.169l.887.935Zm-2.19-1.474a.86.86,0,0,1,.748-.832.656.656,0,0,1,.744.669.861.861,0,0,1-.748.832A.656.656,0,0,1,579.459,664.493Z" transform="translate(-573.742 -642.856)" fill="#090962"/>
      </g>
      <path id="パス_75505" data-name="パス 75505" d="M677.592,442.035l-29.78,1.813-.055-25.866,29.839-.542Z" transform="translate(-636.226 -413.249)" fill="#fff"/>
      <path id="パス_75506" data-name="パス 75506" d="M730.064,744.894,706.9,746.673l-.134-2.263,23.293-1.631Z" transform="translate(-690.223 -710.955)" fill="#dca153"/>
      <path id="パス_75507" data-name="パス 75507" d="M905.21,434.61l-10.528.232.057-3.757,10.547-.233Z" transform="translate(-862.177 -425.522)" fill="#090962"/>
      <g id="グループ_56116" data-name="グループ 56116" transform="translate(33.103 6.485)">
        <path id="パス_75508" data-name="パス 75508" d="M903.084,447.911l-1.366.03.021-1.386,1.367-.03Z" transform="translate(-901.718 -446.348)" fill="#cf5974"/>
        <path id="パス_75509" data-name="パス 75509" d="M926.588,447.391l-1.366.03.023-1.386,1.367-.03Z" transform="translate(-923.225 -445.872)" fill="#dca153"/>
        <path id="パス_75510" data-name="パス 75510" d="M950.093,446.871l-1.366.03.024-1.386,1.367-.03Z" transform="translate(-944.734 -445.396)" fill="#fff"/>
        <path id="パス_75511" data-name="パス 75511" d="M973.6,446.351l-1.366.03.025-1.386,1.367-.03Z" transform="translate(-966.244 -444.92)" fill="#6dbdae"/>
        <path id="パス_75512" data-name="パス 75512" d="M997.109,445.831l-1.366.03.026-1.386,1.367-.03Z" transform="translate(-987.756 -444.444)" fill="#cf5974"/>
      </g>
      <path id="パス_75513" data-name="パス 75513" d="M670.23,519.925l8.812-15.028,6.65,8.981,3.243-3.937,7.352,8.81Z" transform="translate(-656.789 -493.278)" fill="#cf5974"/>
      <path id="パス_75514" data-name="パス 75514" d="M840.415,485.3a3.129,3.129,0,0,1-3.02,3.074,2.868,2.868,0,0,1-2.935-2.943,3.129,3.129,0,0,1,3.02-3.083A2.868,2.868,0,0,1,840.415,485.3Z" transform="translate(-807.07 -472.642)" fill="#dca153"/>
      <path id="パス_75515" data-name="パス 75515" d="M1003.52,528.671h0a.346.346,0,0,1-.355-.357l.139-7.114a.384.384,0,0,1,.371-.376h0a.348.348,0,0,1,.356.36l-.141,7.114A.382.382,0,0,1,1003.52,528.671Z" transform="translate(-961.445 -507.853)" fill="#090962"/>
      <g id="グループ_56118" data-name="グループ 56118" transform="translate(10.957 23.893)">
        <path id="パス_75516" data-name="パス 75516" d="M650.069,649.762c0-.259-.119,11.265-.119,11.265l-8.06.481-.074-11.432Z" transform="translate(-641.746 -649.727)" fill="#fff"/>
        <path id="パス_75517" data-name="パス 75517" d="M641.066,661.238l-.075-11.519,8.274-.316a.046.046,0,0,1,.023-.005h0a.043.043,0,0,1,.043.044h0v.045c-.009.771-.117,11.116-.118,11.224v.04l-.04,0Zm.011-11.436.074,11.345,7.975-.476c0-.352.031-2.963.058-5.58.015-1.41.03-2.821.041-3.881.006-.53.01-.972.014-1.282l0-.437Z" transform="translate(-640.991 -649.399)" fill="#090962"/>
        <g id="グループ_56117" data-name="グループ 56117" transform="translate(1.061 1.817)">
          <path id="パス_75518" data-name="パス 75518" d="M657.02,693.916a1.884,1.884,0,1,1-.834-2.474A1.85,1.85,0,0,1,657.02,693.916Z" transform="translate(-653.481 -689.487)" fill="#090962"/>
          <path id="パス_75519" data-name="パス 75519" d="M672.415,673.494a1.886,1.886,0,1,1-.833-2.478A1.851,1.851,0,0,1,672.415,673.494Z" transform="translate(-667.566 -670.796)" fill="#6ebfb0"/>
          <path id="パス_75520" data-name="パス 75520" d="M686.414,693.8a1.883,1.883,0,1,1-.831-2.474A1.852,1.852,0,0,1,686.414,693.8Z" transform="translate(-680.379 -689.378)" fill="#d35974"/>
        </g>
        <path id="パス_75521" data-name="パス 75521" d="M653.744,755.272l.041,1.563,1.433-.077-.04-1.592Z" transform="translate(-652.66 -746.182)" fill="#d35974"/>
        <path id="パス_75522" data-name="パス 75522" d="M678.939,754.666l.039,1.563,1.433-.077-.038-1.592Z" transform="translate(-675.716 -745.627)" fill="#090962"/>
        <path id="パス_75523" data-name="パス 75523" d="M704.39,753.554l.037,1.564,1.433-.077-.036-1.593Z" transform="translate(-699.005 -744.609)" fill="#6ebfb0"/>
      </g>
    </g>
    <g id="グループ_56122" data-name="グループ 56122" transform="translate(110.079 37.472)">
      <g id="グループ_56120" data-name="グループ 56120">
        <path id="パス_75524" data-name="パス 75524" d="M1489.493,523.529l-6.837.459a.791.791,0,0,1-.854-.8v-6.827a.929.929,0,0,1,.854-.911l6.837-.459a.791.791,0,0,1,.854.8v6.827A.93.93,0,0,1,1489.493,523.529Z" transform="translate(-1481.802 -514.993)" fill="#dea353"/>
      </g>
      <g id="グループ_56121" data-name="グループ 56121" transform="translate(1.355 1.804)">
        <path id="パス_75525" data-name="パス 75525" d="M1502.2,543.533l-.964.065-.4-1.163-1.925.129-.392,1.216-.77.052,1.661-5.108,1.111-.075Zm-1.606-1.8-.729-2.18-.73,2.278Z" transform="translate(-1497.752 -538.443)" fill="#fff"/>
        <path id="パス_75526" data-name="パス 75526" d="M1557.459,537.1l-.836.056v-.868l.836-.056Zm0,4.129-.836.056v-3.7l.836-.056Z" transform="translate(-1551.622 -536.229)" fill="#fff"/>
      </g>
    </g>
    <g id="グループ_56125" data-name="グループ 56125" transform="translate(84.003 0.244)">
      <g id="グループ_56123" data-name="グループ 56123">
        <path id="パス_75527" data-name="パス 75527" d="M1182.492,85.247l-6.827.281a.815.815,0,0,1-.853-.818V77.882a.9.9,0,0,1,.853-.888l6.827-.281a.815.815,0,0,1,.853.818v6.827A.9.9,0,0,1,1182.492,85.247Z" transform="translate(-1174.811 -76.712)" fill="#090962"/>
      </g>
      <g id="グループ_56124" data-name="グループ 56124" transform="translate(0.681 1.931)">
        <path id="パス_75528" data-name="パス 75528" d="M1183.729,104.5l-.9.037v-5l2.047-.084a1.663,1.663,0,0,1,1.3.388,1.4,1.4,0,0,1,.423,1.024,1.5,1.5,0,0,1-.458,1.128,1.706,1.706,0,0,1-1.161.472l-1.248.051Zm0-2.753,1.065-.044a.933.933,0,0,0,.637-.231.74.74,0,0,0,.22-.555.719.719,0,0,0-.2-.519.947.947,0,0,0-.734-.189l-.985.04Z" transform="translate(-1182.829 -99.45)" fill="#fff"/>
        <path id="パス_75529" data-name="パス 75529" d="M1229.852,115.14l.783-.182a.722.722,0,0,0,.791.418q.776-.032.776-.489a.282.282,0,0,0-.121-.237.634.634,0,0,0-.285-.116l-.674-.1q-1.12-.17-1.12-1.048a1.16,1.16,0,0,1,.355-.847,1.524,1.524,0,0,1,1.058-.386q1.172-.048,1.432.8l-.743.181q-.117-.412-.666-.39-.666.027-.666.445,0,.289.538.377l.794.132a.961.961,0,0,1,.927,1.024,1.056,1.056,0,0,1-.476.933,2.137,2.137,0,0,1-1.131.349,2.075,2.075,0,0,1-1-.188A1.032,1.032,0,0,1,1229.852,115.14Z" transform="translate(-1225.858 -111.07)" fill="#fff"/>
      </g>
    </g>
    <g id="グループ_56128" data-name="グループ 56128" transform="translate(0 35.004)">
      <g id="グループ_56126" data-name="グループ 56126">
        <path id="パス_75530" data-name="パス 75530" d="M193.518,494.477l-6.827.281a.815.815,0,0,1-.853-.818v-6.827a.9.9,0,0,1,.853-.888l6.827-.28a.815.815,0,0,1,.853.818v6.827A.9.9,0,0,1,193.518,494.477Z" transform="translate(-185.838 -485.943)" fill="#090962"/>
      </g>
      <g id="グループ_56127" data-name="グループ 56127" transform="translate(1.772 1.768)">
        <path id="パス_75531" data-name="パス 75531" d="M207.6,513.737l-.9.037v-5l.9-.037Z" transform="translate(-206.701 -508.572)" fill="#fff"/>
        <path id="パス_75532" data-name="パス 75532" d="M230.148,511.759l-.78.032v-.747a1.181,1.181,0,0,1-1.091.869,1.113,1.113,0,0,1-1.043-.524,2.493,2.493,0,0,1-.362-1.395,2.532,2.532,0,0,1,.377-1.381,1.264,1.264,0,0,1,1.073-.626.95.95,0,0,1,.992.611v-1.8l.835-.034Zm-.835-2.148a1.012,1.012,0,0,0-.214-.692.667.667,0,0,0-.555-.228.687.687,0,0,0-.578.346,1.838,1.838,0,0,0-.209.971q0,1.238.776,1.205a.744.744,0,0,0,.544-.288,1.02,1.02,0,0,0,.236-.689Z" transform="translate(-225.158 -506.762)" fill="#fff"/>
      </g>
    </g>
  </g>
</svg>
