<svg xmlns="http://www.w3.org/2000/svg" xmlns:xlink="http://www.w3.org/1999/xlink" width="200.021" height="132.83" viewBox="0 0 200.021 132.83">
  <defs>
    <clipPath id="clip-path">
      <rect id="長方形_23785" data-name="長方形 23785" width="32.151" height="25.189" fill="none"/>
    </clipPath>
    <clipPath id="clip-path-2">
      <rect id="長方形_23786" data-name="長方形 23786" width="9.2" height="26.393" fill="none"/>
    </clipPath>
    <clipPath id="clip-path-3">
      <rect id="長方形_23787" data-name="長方形 23787" width="13.235" height="20.51" fill="none"/>
    </clipPath>
    <clipPath id="clip-path-4">
      <rect id="長方形_23788" data-name="長方形 23788" width="0.299" height="0.316" fill="none"/>
    </clipPath>
  </defs>
  <g id="グループ_70344" data-name="グループ 70344" transform="translate(14173 15112)">
    <g id="グループ_8446" data-name="グループ 8446" transform="translate(-14124 -15108)">
      <path id="パス_1588" data-name="パス 1588" d="M2942.028,1334.812l18.282-11.068,66.117,37.341-19.164,11.93Z" transform="translate(-2942.028 -1250.702)" fill="#dceceb"/>
      <path id="パス_1589" data-name="パス 1589" d="M2942.028,1435.394v2.337l64.872,38.04,19.346-11.52.181-2.583-19.164,11.93Z" transform="translate(-2942.028 -1351.285)" fill="#adcbc7"/>
      <path id="パス_1590" data-name="パス 1590" d="M3040.865,913.578l-3.092,1.739,22.258-50.838,2.1.908Z" transform="translate(-3028.283 -836.962)" fill="#184863"/>
      <path id="パス_1591" data-name="パス 1591" d="M2942.028,899.175l32.477-31.25,64.952,37.5-31.9,32.173Z" transform="translate(-2942.028 -840.066)" fill="#adcbc7"/>
      <path id="パス_1592" data-name="パス 1592" d="M2970.227,917.547l30.613-29.457,61.225,35.349-30.073,30.327Z" transform="translate(-2967.431 -858.233)" fill="#fff"/>
      <path id="パス_1593" data-name="パス 1593" d="M3319.527,873.141l2.6-2.594,50.719,28.982-2.6,2.892Z" transform="translate(-3282.107 -842.428)" fill="#adcbc7"/>
      <path id="パス_1594" data-name="パス 1594" d="M3691.692,1291.6l-3.116,1.884,22.378-51.828,2.1.908Z" transform="translate(-3614.574 -1176.751)" fill="#184863"/>
      <path id="パス_1595" data-name="パス 1595" d="M3623.077,1550.816l-15.691-3.115,1.769-2.34,14.369,3.211Z" transform="translate(-3541.431 -1450.352)" fill="#184863"/>
      <path id="パス_1596" data-name="パス 1596" d="M3736.679,1533.013c-.759,3.051-3.242,5.838-5.545,6.226s-3.555-1.771-2.8-4.821,3.242-5.838,5.544-6.226,3.558,1.771,2.8,4.821" transform="translate(-3650.193 -1434.843)" fill="#dceceb"/>
      <path id="パス_1597" data-name="パス 1597" d="M3746.767,1547.491c-.544,2.19-2.327,4.19-3.979,4.469s-2.553-1.271-2.008-3.461,2.327-4.19,3.979-4.468,2.553,1.27,2.009,3.46" transform="translate(-3661.459 -1449.123)" fill="#adcbc7"/>
      <path id="パス_1598" data-name="パス 1598" d="M3166.622,926.1l-12.472,12.623,9.106,5.257,12.495-12.809Z" transform="translate(-3133.123 -892.475)" fill="#ffc945"/>
      <path id="パス_1599" data-name="パス 1599" d="M3244.909,1083.524l-12.472,12.623,9.107,5.258,12.5-12.809Z" transform="translate(-3203.65 -1034.294)" fill="#68a3c1"/>
      <path id="パス_1600" data-name="パス 1600" d="M3378.867,1014.153l4.688-4.723,12.669,7.2-4.638,4.863Z" transform="translate(-3335.565 -967.544)" fill="#c62143"/>
      <path id="パス_1601" data-name="パス 1601" d="M3759.092,1021.458l-1.97-.349,2.9-16.346-20.079-7.321.685-1.88,21.656,7.9Z" transform="translate(-3660.847 -955.053)" fill="#184863"/>
      <path id="パス_1602" data-name="パス 1602" d="M3105.612,639.9l-1.97-.349,2.9-16.346-20.079-7.32.686-1.88,21.656,7.9Z" transform="translate(-3072.142 -611.313)" fill="#184863"/>
      <path id="パス_1603" data-name="パス 1603" d="M3278.95,675.974c-.435,1.747-1.856,3.343-3.176,3.565s-2.035-1.014-1.6-2.761,1.856-3.343,3.174-3.565,2.037,1.014,1.6,2.761" transform="translate(-3241.135 -664.632)" fill="#dceceb"/>
      <path id="パス_1604" data-name="パス 1604" d="M3284.727,684.264a3.462,3.462,0,0,1-2.279,2.559c-.948.16-1.462-.728-1.15-1.982a3.46,3.46,0,0,1,2.279-2.559c.947-.159,1.462.728,1.15,1.982" transform="translate(-3247.585 -672.809)" fill="#adcbc7"/>
      <path id="パス_1605" data-name="パス 1605" d="M3284.727,684.264a3.462,3.462,0,0,1-2.279,2.559c-.948.16-1.462-.728-1.15-1.982a3.46,3.46,0,0,1,2.279-2.559c.947-.159,1.462.728,1.15,1.982" transform="translate(-3247.585 -672.809)" fill="#adcbc7"/>
      <path id="パス_1609" data-name="パス 1609" d="M2986.071,587.028l86.142,49.734a1.106,1.106,0,0,1,.138,1.822l-7.219,5.77a1.109,1.109,0,0,1-1.255.088l-85.634-50.614a1.106,1.106,0,0,1-.088-1.846l6.712-4.89a1.1,1.1,0,0,1,1.2-.064" transform="translate(-2974.165 -586.88)" fill="#184863"/>
      <path id="パス_1610" data-name="パス 1610" d="M3008.78,618.189l81.079,46.734,5.218-4.13-80.862-46.083Z" transform="translate(-3002.163 -611.952)" fill="#1f5e7a"/>
      <path id="パス_1611" data-name="パス 1611" d="M3906.218,1219.81c-.435,1.747-1.857,3.343-3.175,3.565s-2.036-1.014-1.6-2.76,1.856-3.343,3.176-3.565,2.036,1.014,1.6,2.761" transform="translate(-3806.224 -1154.56)" fill="#dceceb"/>
      <path id="パス_1612" data-name="パス 1612" d="M3911.994,1228.1a3.464,3.464,0,0,1-2.279,2.559c-.947.159-1.462-.728-1.15-1.982a3.462,3.462,0,0,1,2.28-2.559c.946-.159,1.461.728,1.149,1.982" transform="translate(-3812.674 -1162.737)" fill="#adcbc7"/>
      <path id="パス_1613" data-name="パス 1613" d="M3692.506,1168.292l-1.739,1.691,13.477,7.583,1.739-1.594Z" transform="translate(-3616.547 -1110.66)" fill="#c62143"/>
      <path id="パス_1614" data-name="パス 1614" d="M3666.192,1197.531l-1.739,1.691,13.477,7.584,1.738-1.594Z" transform="translate(-3592.843 -1137)" fill="#ffc945"/>
      <path id="パス_1615" data-name="パス 1615" d="M3639.877,1226.769l-1.74,1.691,13.478,7.584,1.739-1.594Z" transform="translate(-3569.135 -1163.34)" fill="#fbaa43"/>
      <path id="パス_1616" data-name="パス 1616" d="M3613.563,1256.008l-1.739,1.691,13.477,7.584,1.74-1.594Z" transform="translate(-3545.43 -1189.681)" fill="#376f92"/>
      <path id="パス_1617" data-name="パス 1617" d="M3587.247,1285.247l-1.737,1.69,13.477,7.584,1.739-1.594Z" transform="translate(-3521.724 -1216.021)" fill="#1c5276"/>
      <path id="パス_1673" data-name="パス 1673" d="M3551.584,1195.191a20.7,20.7,0,0,0-1.96.7c-.007-.027-.015-.053-.023-.081l1.863-.979s.9-.344.838-.6-.2-.235-.514-.156c-.246.062-1.7.823-2.375,1.166l1.8-1.284s.879-.533.777-.781-.185-.179-.491-.048c-.252.108-1.888,1.216-2.441,1.621l-.007-.008c.062-.093.131-.194.2-.274.16-.2,1.368-1.131,1.557-1.423s.105-.412-.216-.383-1.367,1.149-1.688,1.353c-.208.132-.7.314-.916.455,0,0,0,0-.005,0-.248-.044-.685-.19-.7-.423s.393-.583.13-.758-.423.16-.757.525a3.7,3.7,0,0,0-.555,1.136c-.129.277-.319.787-.319.787h0l-.512.247c.875.408.583,1.923.583,1.923s1.37-.5,1.778-.583a4.982,4.982,0,0,0,1.923-.728.491.491,0,0,0,.039-.058l1.808-.685s.925-.333.89-.592-.385-.12-.707-.072" transform="translate(-3485.474 -1132.612)" fill="#fd8d68"/>
      <path id="パス_1674" data-name="パス 1674" d="M3275.9,1685.651a25.789,25.789,0,0,0-.042-3.255c-.141-.895,3.154-.468,3.48-.63s-.326,1.4.326,2.44-.652,3.52-3.764,1.445" transform="translate(-3242.763 -1573.224)" fill="#fd8d68"/>
      <path id="パス_1675" data-name="パス 1675" d="M3277.866,1696.936a3.283,3.283,0,0,1-.135.985c-.264.833-1.892,1.464-2.867,1.628a21.325,21.325,0,0,0-3.154,1.363,3.975,3.975,0,0,1-2.5-.2,1.146,1.146,0,0,1-.548-1.382,1.887,1.887,0,0,0,.077-.181c.194-.535.43-1.63.43-1.63.735-.734.489,1.695,3.216.366.833-.407.609-.631.527-1.119s0-.388.265-.549.874,0,1.443-.306a4.121,4.121,0,0,1,2.565-.508c.472.162.676.85.683,1.538" transform="translate(-3236.214 -1585.452)" fill="#242733"/>
      <path id="パス_1676" data-name="パス 1676" d="M3196.891,1374.07c-.161,1.466-.242,9.034-.812,10.254-.532,1.141-1.064,1.215-2.394,1.418-.093.016-.191.03-.291.046-1.547.245-3.011-.65-2.686-1.872s-.082-6.834-.082-7.975.57-1.872.651-2.928a3.968,3.968,0,0,0-.406-2.6,9.065,9.065,0,0,0-1.829-2.223,21.816,21.816,0,0,1-3.052-3.31,13.827,13.827,0,0,0-1.717-2.165,9.06,9.06,0,0,1-1.864-2.882,10.867,10.867,0,0,1-.162-4.883s.487-4.069,2.277-3.255,9.277,2.849,9.277,2.849a5.169,5.169,0,0,0,.406,3.661,8.519,8.519,0,0,1,.372.874c.992,2.661,2.38,8.586,2.883,9.949.571,1.547-.407,3.581-.571,5.045" transform="translate(-3158.244 -1275.783)" fill="#3d4156"/>
      <path id="パス_1677" data-name="パス 1677" d="M3079.179,1653.274s1.094-1.7,1.607-2.747,2.635.4,2.992.6-.378,1.9-.378,2.479-2.545,2.121-4.221-.335" transform="translate(-3065.584 -1544.753)" fill="#fd8d68"/>
      <path id="パス_1678" data-name="パス 1678" d="M3071.653,1681.538c-.653.351-3.769.132-4.657.082s-1.924.42-2.644.219-1.758-1.174-1.642-1.61a2.547,2.547,0,0,1,.319-.589c.385-.584.97-1.319.97-1.319s.586-.671.568-.3,1.144.924,1.826,1.07c1.108.235,1.575-.1,1.741-.452s.488-.8.656-.452,1.44.6,1.924,1a4.406,4.406,0,0,1,1.028,1.483c.154.383.172.724-.089.864" transform="translate(-3050.739 -1569.761)" fill="#242733"/>
      <path id="パス_1679" data-name="パス 1679" d="M3071.653,1697.272c-.653.352-3.769.132-4.657.082s-1.924.42-2.644.219-1.758-1.173-1.642-1.609a2.542,2.542,0,0,1,.319-.589,3.747,3.747,0,0,0,2.22,1.255c1.3.066,4.447,0,5.139.021a2.457,2.457,0,0,0,1.354-.243c.154.383.172.724-.089.864" transform="translate(-3050.739 -1585.495)" fill="#7b85ad"/>
      <path id="パス_1680" data-name="パス 1680" d="M3106.7,1323.982s-.164,9.439-.488,12.613a9.15,9.15,0,0,1-.148.943c-.55,2.6-2.153,4.216-3.758,5.892-1.791,1.872-6.918,10.255-6.918,10.255a2.725,2.725,0,0,1-2.559-.265,4.405,4.405,0,0,1-1.428-1.689c2.278-8.626,6.347-11.8,7.487-12.531s.489-.571.081-1.464-.325-3.013-.9-4.314a30.953,30.953,0,0,1-2.115-8.625c-.083-2.848,2.36-5.778,2.36-5.778,5.045,4.069,8.383,4.964,8.383,4.964" transform="translate(-3076.591 -1246.445)" fill="#3d4156"/>
      <path id="パス_1681" data-name="パス 1681" d="M3169.145,1085.27s-11.394,3.5-13.022,3.012a8.319,8.319,0,0,1-3.661-2.034c-1.626-1.3-4.965-3.664-4.965-3.664a12.918,12.918,0,0,0-1.546,5.7c-.243,3.661.9,13.182.9,13.182q-.717.443-1.4.821a22.364,22.364,0,0,1-6.238,2.46q-.662.138-1.278.207a9.052,9.052,0,0,1-9.963-6.011c-.488-1.628-1.057-5.778.082-7.324s4.639-6.836,5.533-9.276.082-2.6.407-4.883a29.4,29.4,0,0,0-.245-6.267c-.081-1.382-.731-2.848.407-4.07s2.848-.976,4.311-.488,2.117.733,2.117.733c1.626-.733,4.557,2.6,4.557,2.6a6.551,6.551,0,0,0,.651,1.709c.57,1.138,3.582,2.848,4.313,4.231s5.534,6.916,6.917,6.753,1.3.406,2.767.489,5.533-.245,6.509-1.139a3.162,3.162,0,0,1,2.6-.488,5,5,0,0,1,.894,1.492,1.759,1.759,0,0,1-.648,2.25" transform="translate(-3109.011 -1018.719)" fill="#00acec"/>
      <path id="パス_1682" data-name="パス 1682" d="M3263.792,957.044s1.525-1.892,1.587-3.174-1.4-5.432.122-7.629,5.614-4.211,8.239-1.953,1.16,6.774.549,8.544-1.159,3.357-2.319,3.784-1.343-.305-2.013.3a27.673,27.673,0,0,0-2.26,2.93s-1.769-2.5-3.905-2.807" transform="translate(-3231.897 -907.968)" fill="#fd8d68"/>
      <path id="パス_1683" data-name="パス 1683" d="M3277.866,1711.56a3.281,3.281,0,0,1-.135.984c-.264.833-1.892,1.464-2.867,1.627a21.4,21.4,0,0,0-3.154,1.363,3.968,3.968,0,0,1-2.5-.2,1.146,1.146,0,0,1-.548-1.382c.024-.048.051-.109.077-.18a2.1,2.1,0,0,0,1.468.789,6.686,6.686,0,0,0,3.6-.792c.589-.224,3.437-.551,4.049-2.179a.188.188,0,0,1,.012-.026" transform="translate(-3236.214 -1600.076)" fill="#7b85ad"/>
      <path id="パス_1684" data-name="パス 1684" d="M3210.225,1040.013s4.7-1.038,6.591-.671,7.69-.488,9.278-1.343a7.5,7.5,0,0,1,3.112-1.037c.854-.122.977,1.4.671,2.319-.253.761-3.458,1.353-4.884,2.022a14.912,14.912,0,0,1-2.415.874,14.62,14.62,0,0,0-3.138,1.132c-1.16.732-7.568-3.235-9.216-3.3" transform="translate(-3183.64 -992.341)" fill="#8b3d55"/>
      <path id="パス_1685" data-name="パス 1685" d="M3410.751,1022.617a8.546,8.546,0,0,0-1.473.152l.151-.07c.3-.142,1.2-.183,1.322-.366s.123-.265-.2-.285a1.981,1.981,0,0,0-.38.038.271.271,0,0,0,.116-.078c.122-.183.122-.265-.2-.285a2.553,2.553,0,0,0-.509.061.271.271,0,0,0,.122-.081c.122-.183.122-.265-.2-.285a9.186,9.186,0,0,0-1.485.285l-1.118.376a5.016,5.016,0,0,0-1.953.977l-1.068.427c.489.366.275,1.617.275,1.617s.875-.149,1.555-.324a6.184,6.184,0,0,1,.927.081,8.132,8.132,0,0,0,2.2-.2c.569-.1.488-.326.2-.488s-1.235.282-1.639.018c.624-.231,1.271-.5,1.362-.717.141-.049.572-.2.834-.294.317-.116,1.212-.08,1.349-.252s.144-.253-.178-.3" transform="translate(-3358.085 -978.343)" fill="#fd8d68"/>
      <path id="パス_1686" data-name="パス 1686" d="M3233.494,939.936a4.637,4.637,0,0,1-.244,1.994,15.49,15.49,0,0,0-1.425,2.848c-.082.732-.285.895-1.18,1.3a1.8,1.8,0,0,0-1.26,1.546c-.164.773-1.873,2.2-1.71,4.15s-.692,6.022-3.052,6.633-5.737-.244-6.592-1.262-.324-2.075-1.18-3.5,1.344-2.6,1.465-3.58.976-1.139,1.872-1.261,2.034-1.1,1.953-2.075-.611-3.5.04-5.289a5.5,5.5,0,0,1,3.663-3.662c2.033-.732,3.458-1.058,5.492-.2a3.134,3.134,0,0,1,2.157,2.36" transform="translate(-3189.432 -902.354)" fill="#12233d"/>
      <path id="パス_1687" data-name="パス 1687" d="M3248.542,1329.314a53.4,53.4,0,0,0,.476,7.2s4.276-.611,5.77-1.765c0,0-.679-5.771-.679-6.856Z" transform="translate(-3218.157 -1254.436)" fill="#0086b8"/>
      <path id="パス_1688" data-name="パス 1688" d="M3252.48,1333.783l.051.764,4.837-1.222-.1-.815Z" transform="translate(-3221.706 -1258.6)" fill="#d15e8d"/>
      <g id="グループ_8430" data-name="グループ 8430" transform="translate(28.781 61.045)" opacity="0.2">
        <g id="グループ_8429" data-name="グループ 8429">
          <g id="グループ_8428" data-name="グループ 8428" clip-path="url(#clip-path)">
            <path id="パス_1689" data-name="パス 1689" d="M3263.724,1208.224s-11.393,3.5-13.022,3.012a8.309,8.309,0,0,1-3.661-2.034c-1.627-1.3-4.965-3.663-4.965-3.663a12.911,12.911,0,0,0-1.547,5.7c-.243,3.662.9,13.183.9,13.183a22.134,22.134,0,0,1-8.916,3.488,20.033,20.033,0,0,1,.65-8.029c1.289-3.6,4.481-10.455,4.888-13.305s.882-4.617,2.442-3.531,5.7,4.413,7.468,5.023,2.1-1.084,3.8-.405,3.123.882,5.973.271a69.022,69.022,0,0,0,6.639-1.956,1.759,1.759,0,0,1-.648,2.249" transform="translate(-3232.371 -1202.719)" fill="#024947"/>
          </g>
        </g>
      </g>
      <g id="グループ_8433" data-name="グループ 8433" transform="translate(30.196 83.566)" opacity="0.3">
        <g id="グループ_8432" data-name="グループ 8432">
          <g id="グループ_8431" data-name="グループ 8431" clip-path="url(#clip-path-2)">
            <path id="パス_1690" data-name="パス 1690" d="M3255.1,1444.641c-.163,1.466-.243,9.033-.813,10.254-.532,1.141-1.064,1.215-2.393,1.418.377-1.894.423-11.03-.1-12.612a3.385,3.385,0,0,1-.2-2.781c.272-1.426.067-1.359-1.085-3.191-.965-1.531-3.156-4.43-3.854-5.348a22.337,22.337,0,0,0,6.237-2.46c.985,2.772,2.3,8.357,2.786,9.676.57,1.546-.406,3.581-.571,5.045" transform="translate(-3246.649 -1429.92)" fill="#242733"/>
          </g>
        </g>
      </g>
      <g id="グループ_8436" data-name="グループ 8436" transform="translate(16.234 86.929)" opacity="0.3">
        <g id="グループ_8435" data-name="グループ 8435">
          <g id="グループ_8434" data-name="グループ 8434" clip-path="url(#clip-path-3)">
            <path id="パス_1691" data-name="パス 1691" d="M3119.036,1468c-.55,2.6-2.153,4.216-3.757,5.893-1.792,1.871-6.919,10.254-6.919,10.254a2.727,2.727,0,0,1-2.559-.265c.85-1.922,3.729-8.26,5.392-9.693,1.969-1.7,4.21-4.618,4.276-5.772a24.383,24.383,0,0,0,.127-4.581,13.752,13.752,0,0,1,1.717,2.165,10.624,10.624,0,0,0,1.723,2" transform="translate(-3105.801 -1463.836)" fill="#242733"/>
          </g>
        </g>
      </g>
      <g id="グループ_8439" data-name="グループ 8439" transform="translate(25.223 85.07)" opacity="0.3">
        <g id="グループ_8438" data-name="グループ 8438">
          <g id="グループ_8437" data-name="グループ 8437" clip-path="url(#clip-path-4)">
            <path id="パス_1692" data-name="パス 1692" d="M3196.613,1445.213a1.324,1.324,0,0,1,.163.188c-.312-.321-.4-.421-.163-.188" transform="translate(-3196.477 -1445.086)" fill="#242733"/>
          </g>
        </g>
      </g>
    </g>
    <g id="グループ_8453" data-name="グループ 8453" transform="translate(-14075 -15048)">
      <path id="パス_1606" data-name="パス 1606" d="M3935.916,1052.639a3.936,3.936,0,0,1-2.592,2.91c-1.077.181-1.663-.827-1.308-2.253a3.934,3.934,0,0,1,2.592-2.909c1.077-.182,1.662.827,1.308,2.253" transform="translate(-3931.912 -1050.365)" fill="#dceceb"/>
      <path id="パス_1607" data-name="パス 1607" d="M3941.945,1061.073a2.824,2.824,0,0,1-1.859,2.089c-.773.13-1.193-.594-.938-1.617a2.822,2.822,0,0,1,1.859-2.089c.772-.13,1.192.594.938,1.617" transform="translate(-3938.494 -1058.707)" fill="#adcbc7"/>
      <path id="パス_1608" data-name="パス 1608" d="M3941.945,1061.073a2.824,2.824,0,0,1-1.859,2.089c-.773.13-1.193-.594-.938-1.617a2.822,2.822,0,0,1,1.859-2.089c.772-.13,1.192.594.938,1.617" transform="translate(-3938.494 -1058.707)" fill="#adcbc7"/>
    </g>
    <rect id="長方形_27254" data-name="長方形 27254" width="200.021" height="132.831" transform="translate(-14173 -15112)" fill="none"/>
  </g>
</svg>
